<svg width="64" height="11" viewBox="0 0 64 11" fill="none" xmlns="http://www.w3.org/2000/svg">
<path d="M9.36403 9.91895H7.58795L6.9336 8.19628H2.84727L2.19293 9.91895H0.416845L3.91559 1.01182H5.86528L9.36403 9.91895ZM6.49292 6.82082L4.89044 2.57424L3.28796 6.82082H6.49292ZM14.1407 10.0792C11.51 10.0792 9.46679 8.20963 9.46679 5.47206C9.46679 2.72113 11.51 0.864928 14.1407 0.864928C15.9301 0.864928 17.0519 1.78635 17.7062 2.85467L16.3842 3.54908C15.9568 2.80126 15.0888 2.25374 14.1407 2.25374C12.378 2.25374 11.0693 3.58915 11.0693 5.47206C11.0693 7.32827 12.378 8.69038 14.1407 8.69038C15.0888 8.69038 15.9568 8.12951 16.3842 7.39504L17.7196 8.06274C17.0385 9.13106 15.9301 10.0792 14.1407 10.0792ZM26.9825 9.91895H25.2064L24.552 8.19628H20.4657L19.8114 9.91895H18.0353L21.534 1.01182H23.4837L26.9825 9.91895ZM24.1113 6.82082L22.5089 2.57424L20.9064 6.82082H24.1113ZM31.2671 9.91895H27.942V1.01182H31.2538C34.0447 1.01182 35.9143 2.85467 35.9143 5.45871C35.9143 8.08945 34.0447 9.91895 31.2671 9.91895ZM31.2538 8.54348C33.1901 8.54348 34.3118 7.15467 34.3118 5.45871C34.3118 3.74939 33.2435 2.38728 31.2671 2.38728H29.5044V8.54348H31.2538ZM43.5256 9.91895H37.4228V1.01182H43.5256V2.38728H38.9852V4.68417H43.4321V6.05964H38.9852V8.54348H43.5256V9.91895ZM54.3844 9.91895H52.8219V3.04163L50.0977 9.91895H49.43L46.6924 3.04163V9.91895H45.13V1.01182H47.3334L49.7639 7.12796L52.1809 1.01182H54.3844V9.91895ZM60.3798 9.91895H58.8174V6.21989L55.3587 1.01182H57.1481L59.5919 4.81771L62.0357 1.01182H63.8251L60.3798 6.21989V9.91895Z" fill="#7077A1"/>
</svg>
