<svg width="16" height="16" viewBox="0 0 16 16" fill="none" xmlns="http://www.w3.org/2000/svg">
<g id="Outline/Files/Document">
<g id="Icon">
<path d="M10.4999 8.66667C10.4999 8.39052 10.2761 8.16667 9.99992 8.16667H5.99992C5.72378 8.16667 5.49992 8.39052 5.49992 8.66667C5.49992 8.94281 5.72378 9.16667 5.99992 9.16667H9.99992C10.2761 9.16667 10.4999 8.94281 10.4999 8.66667Z" fill="#637381"/>
<path d="M10.4999 11.3333C10.4999 11.0572 10.2761 10.8333 9.99992 10.8333H5.99992C5.72378 10.8333 5.49992 11.0572 5.49992 11.3333C5.49992 11.6095 5.72378 11.8333 5.99992 11.8333H9.99992C10.2761 11.8333 10.4999 11.6095 10.4999 11.3333Z" fill="#637381"/>
<path fill-rule="evenodd" clip-rule="evenodd" d="M4.66659 1.5C3.65406 1.5 2.83325 2.32081 2.83325 3.33333V12.6667C2.83325 13.6792 3.65406 14.5 4.66658 14.5H11.3333C12.3458 14.5 13.1666 13.6792 13.1666 12.6667V5.31177C13.1666 5.05792 13.0838 4.811 12.9308 4.60847L10.9322 1.96336C10.7117 1.67153 10.3672 1.5 10.0014 1.5H4.66659ZM3.83325 3.33333C3.83325 2.8731 4.20635 2.5 4.66659 2.5H9.49992V5.43136C9.49992 5.70751 9.72378 5.93136 9.99992 5.93136H12.1666V12.6667C12.1666 13.1269 11.7935 13.5 11.3333 13.5H4.66658C4.20635 13.5 3.83325 13.1269 3.83325 12.6667V3.33333Z" fill="#637381"/>
</g>
</g>
</svg>
