<svg width="40" height="40" viewBox="0 0 40 40" fill="none" xmlns="http://www.w3.org/2000/svg">
<g id="Group 1000004268">
<g id="book">
<path id="Vector" d="M20 30.08C19.7 30.08 19.4 30.01 19.15 29.87C17.28 28.85 13.99 27.77 11.93 27.5L11.64 27.46C10.33 27.3 9.25 26.07 9.25 24.74V12.66C9.25 11.87 9.56 11.15 10.13 10.63C10.7 10.11 11.44 9.86001 12.22 9.93001C14.42 10.1 17.74 11.2 19.62 12.38L19.86 12.52C19.93 12.56 20.08 12.56 20.14 12.53L20.3 12.43C22.18 11.25 25.5 10.13 27.71 9.94001C27.73 9.94001 27.81 9.94001 27.83 9.94001C28.56 9.87001 29.31 10.13 29.87 10.65C30.44 11.17 30.75 11.89 30.75 12.68V24.75C30.75 26.09 29.67 27.31 28.35 27.47L28.02 27.51C25.96 27.78 22.66 28.87 20.83 29.88C20.59 30.02 20.3 30.08 20 30.08ZM11.98 11.42C11.66 11.42 11.37 11.53 11.14 11.74C10.89 11.97 10.75 12.3 10.75 12.66V24.74C10.75 25.33 11.26 25.9 11.83 25.98L12.13 26.02C14.38 26.32 17.83 27.45 19.83 28.54C19.92 28.58 20.05 28.59 20.1 28.57C22.1 27.46 25.57 26.32 27.83 26.02L28.17 25.98C28.74 25.91 29.25 25.33 29.25 24.74V12.67C29.25 12.3 29.11 11.98 28.86 11.74C28.6 11.51 28.27 11.4 27.9 11.42C27.88 11.42 27.8 11.42 27.78 11.42C25.87 11.59 22.79 12.62 21.11 13.67L20.95 13.78C20.4 14.12 19.62 14.12 19.09 13.79L18.85 13.65C17.14 12.6 14.06 11.58 12.1 11.42C12.06 11.42 12.02 11.42 11.98 11.42Z" fill="#8899A8"/>
<path id="Vector_2" d="M20 29.24C19.59 29.24 19.25 28.9 19.25 28.49V13.49C19.25 13.08 19.59 12.74 20 12.74C20.41 12.74 20.75 13.08 20.75 13.49V28.49C20.75 28.91 20.41 29.24 20 29.24Z" fill="#8899A8"/>
<path id="Vector_3" d="M15.75 17.24H13.5C13.09 17.24 12.75 16.9 12.75 16.49C12.75 16.08 13.09 15.74 13.5 15.74H15.75C16.16 15.74 16.5 16.08 16.5 16.49C16.5 16.9 16.16 17.24 15.75 17.24Z" fill="#8899A8"/>
<path id="Vector_4" d="M16.5 20.24H13.5C13.09 20.24 12.75 19.9 12.75 19.49C12.75 19.08 13.09 18.74 13.5 18.74H16.5C16.91 18.74 17.25 19.08 17.25 19.49C17.25 19.9 16.91 20.24 16.5 20.24Z" fill="#8899A8"/>
</g>
<circle id="Ellipse 2831" cx="20" cy="20" r="19.5" stroke="#DFE4EA"/>
</g>
</svg>
