<svg width="16" height="16" viewBox="0 0 16 16" fill="none" xmlns="http://www.w3.org/2000/svg">
<g id="vuesax/bold/like">
<g id="like">
<path id="Vector" d="M5.59326 12.3266V5.55328C5.59326 5.28661 5.67326 5.02661 5.81993 4.80661L7.63993 2.09994C7.92659 1.66661 8.63993 1.35994 9.24659 1.58661C9.89993 1.80661 10.3333 2.53994 10.1933 3.19328L9.84659 5.37328C9.81993 5.57328 9.87326 5.75328 9.98659 5.89328C10.0999 6.01994 10.2666 6.09994 10.4466 6.09994H13.1866C13.7133 6.09994 14.1666 6.31328 14.4333 6.68661C14.6866 7.04661 14.7333 7.51328 14.5666 7.98661L12.9266 12.9799C12.7199 13.8066 11.8199 14.4799 10.9266 14.4799H8.32659C7.87993 14.4799 7.25326 14.3266 6.96659 14.0399L6.11326 13.3799C5.78659 13.1333 5.59326 12.7399 5.59326 12.3266Z" fill="#8899A8"/>
<path id="Vector_2" d="M3.47325 4.2533H2.78659C1.75325 4.2533 1.33325 4.6533 1.33325 5.63996V12.3466C1.33325 13.3333 1.75325 13.7333 2.78659 13.7333H3.47325C4.50659 13.7333 4.92659 13.3333 4.92659 12.3466V5.63996C4.92659 4.6533 4.50659 4.2533 3.47325 4.2533Z" fill="#8899A8"/>
</g>
</g>
</svg>
