<svg width="46" height="61" viewBox="0 0 46 61" fill="none" xmlns="http://www.w3.org/2000/svg">
<g id="Group 4">
<g id="Group 2">
<path id="Vector" d="M27.9187 48.382C27.9187 48.3817 27.9187 48.3815 27.9186 48.3813C26.7764 44.9299 26.7481 41.1051 27.8382 37.6307C27.8777 37.5066 27.7895 37.3803 27.6592 37.3831C24.9704 37.4415 2.28518 37.9265 1.98695 37.6666C1.66992 37.3902 1.16392 39.1193 0.63657 40.0502C0.171965 40.8703 0.163949 42.8714 0.168619 43.336C0.169278 43.4015 0.173778 43.4671 0.181289 43.5322C0.410672 45.5212 0.795058 46.5433 1.75965 47.9204C2.17507 48.5135 2.87256 48.837 3.59654 48.8239L27.9165 48.3842C27.9177 48.3842 27.9187 48.3832 27.9187 48.382Z" fill="#3758F9" fill-opacity="0.05"/>
<path id="Vector_2" d="M28.631 60.2177C28.4092 60.8208 28.9616 61.222 29.4227 60.8668L43.4646 50.2818C43.4798 50.269 43.4929 50.2562 43.5037 50.2358C43.7778 49.7758 47.1839 43.254 43.1971 37.5194C43.147 37.4479 43.06 37.4325 42.997 37.4862C41.7115 38.5595 29.2465 47.0439 27.7654 48.1249C27.6871 48.1811 27.6675 48.3063 27.7153 48.4009C28.159 49.2442 31.2541 53.0903 28.6288 60.2177H28.631Z" fill="#000F28"/>
<path id="Vector_3" d="M27.7405 37.9891H2.01704C1.60208 37.9891 1.46738 37.3325 1.83889 37.1137L15.776 28.8455C16.0628 28.675 16.38 28.5859 16.7037 28.5859H43.5917L27.7405 37.9891Z" fill="#16213E"/>
<path id="Vector_4" d="M4.37354 42.8818H23.9443" stroke="#E4E6F2" stroke-width="0.229345" stroke-miterlimit="10" stroke-linecap="round"/>
<path id="Vector_5" d="M3.22803 55.4956H6.36241" stroke="#E4E6F2" stroke-width="0.229345" stroke-miterlimit="10" stroke-linecap="round"/>
<path id="Vector_6" d="M11.0234 55.3428H27.154" stroke="#E4E6F2" stroke-width="0.229345" stroke-miterlimit="10" stroke-linecap="round"/>
<path id="Vector_7" d="M33.7378 37.8735L41.3567 33.9038" stroke="#E4E6F2" stroke-width="0.229345" stroke-miterlimit="10" stroke-linecap="round"/>
<path id="Vector_8" d="M30.1377 41.5062L31.4373 40.7417" stroke="#E4E6F2" stroke-width="0.229345" stroke-miterlimit="10" stroke-linecap="round"/>
<g id="Mask group">
<mask id="mask0_39_38515" style="mask-type:alpha" maskUnits="userSpaceOnUse" x="27" y="37" width="19" height="24">
<path id="Vector_9" d="M28.631 60.2177C28.4092 60.8208 28.9616 61.222 29.4227 60.8668L43.4646 50.2818C43.4798 50.269 43.4929 50.2562 43.5037 50.2358C43.7778 49.7758 47.1839 43.254 43.1971 37.5194C43.147 37.4479 43.06 37.4325 42.997 37.4862C41.7115 38.5595 29.2465 47.0439 27.7654 48.1249C27.6871 48.1811 27.6675 48.3063 27.7153 48.4009C28.159 49.2442 31.2541 53.0903 28.6288 60.2177H28.631Z" fill="#000F28"/>
</mask>
<g mask="url(#mask0_39_38515)">
<path id="Vector_10" d="M42.2161 49.2512C39.3804 51.8595 36.2066 53.9525 32.8412 55.4315C31.7569 55.9068 30.4157 56.1177 29.3157 56.6569C29.1647 57.8156 28.8626 59.0917 28.3532 60.488C28.1233 61.118 28.6958 61.5371 29.1737 61.1661L43.7264 50.1082C43.7421 50.0948 43.7557 50.0815 43.7669 50.0601C43.8932 49.8439 44.6708 48.3568 45.1194 46.2451C44.1975 47.3077 43.2304 48.3141 42.2138 49.2485L42.2161 49.2512Z" fill="#16213E"/>
</g>
</g>
<path id="Vector_11" d="M43.5917 28.5859H37.6584C37.1869 28.96 36.7133 29.3316 36.2331 29.6904C33.9758 31.3827 31.5729 32.8053 29.0766 33.9504C24.5576 36.0219 19.7323 37.1798 14.8831 37.3783C12.4585 37.4776 10.0274 37.3376 7.62232 36.9508C6.41002 36.7548 5.20423 36.4978 4.01148 36.1772C3.87678 36.1415 3.74425 36.1008 3.61389 36.0601L1.83889 37.1137C1.46738 37.3351 1.60208 37.9891 2.01704 37.9891H27.7405L43.5917 28.5859Z" fill="#000F28"/>
<rect id="Rectangle 1" x="0.167969" y="60.6177" width="29.0504" height="0.382241" rx="0.191121" fill="#14263E"/>
<path id="Union" fill-rule="evenodd" clip-rule="evenodd" d="M1.98024 37.4728C2.03329 37.3909 2.00995 37.2816 1.92811 37.2285L1.95255 37.5157C1.88488 37.6213 1.81939 37.7279 1.75605 37.8354H1.46879V37.9883H1.66779C-0.277389 41.4276 -0.0466445 45.759 2.15527 48.1782C2.35634 48.3989 2.61982 48.5119 2.88829 48.5144L2.91833 48.8675L27.9216 48.4789C28.0192 48.4773 28.097 48.3971 28.0955 48.2995C28.094 48.202 28.0137 48.1242 27.9162 48.1257L2.9128 48.5143L2.91275 48.5143C2.9046 48.5145 2.89644 48.5145 2.88829 48.5144L1.99275 37.9883H2.00393V37.8354H1.97974L1.95255 37.5157C1.96174 37.5014 1.97097 37.4871 1.98024 37.4728Z" fill="#000F28"/>
<g id="Group 1">
<path id="Vector_12" d="M40.4869 46.1473L37.8161 45.8718L34.5152 49.5226L34.3413 37.5615L40.3522 34.4292L40.4869 46.1473Z" fill="#FFCA00"/>
<path id="Vector_13" d="M38.0252 42.0824C37.3668 43.1345 36.4845 44.0889 35.4153 44.731C35.0872 44.9284 34.7699 45.0477 34.4526 45.1323L34.5157 49.5228L37.8166 45.872L40.4874 46.1475L40.3722 36.1279C40.3505 36.1908 40.3288 36.2537 40.3092 36.3145C39.6877 38.2928 39.1248 40.3232 38.0252 42.0824Z" fill="#F9B300"/>
</g>
<path id="Vector 2" d="M27.9894 60.6175C28.4646 60.5281 28.6967 60.1005 28.7585 59.853H28.9879V60.6175H27.9894C27.8774 60.6386 27.7518 60.6408 27.6118 60.6175H27.9894Z" fill="#14263E"/>
</g>
<g id="Group 3">
<path id="Vector_14" d="M35.3748 7.70417L34.5977 8.15283L40.2481 17.9397L41.0252 17.4911L35.3748 7.70417Z" fill="#64748B"/>
<path id="Vector_15" d="M40.3216 17.1703C40.8792 16.8484 41.0703 16.1353 40.7483 15.5777C40.4264 15.02 39.7133 14.829 39.1557 15.1509C38.5981 15.4729 38.407 16.1859 38.7289 16.7436C39.0509 17.3012 39.764 17.4923 40.3216 17.1703Z" fill="#16213E"/>
<path id="Union_2" fill-rule="evenodd" clip-rule="evenodd" d="M18.0179 9.06675L37.4709 6.49251L32.1233 12.48L37.1019 21.1031C37.1019 21.1031 37.6869 24.0901 28.4049 29.4491C19.1228 34.8081 16.8285 32.8079 16.8285 32.8079L11.5342 23.6379L3.37641 24.9341L18.0179 9.06675Z" fill="#16213E"/>
<mask id="mask1_39_38515" style="mask-type:alpha" maskUnits="userSpaceOnUse" x="3" y="6" width="35" height="28">
<path id="Union_3" fill-rule="evenodd" clip-rule="evenodd" d="M18.0179 9.06675L37.4709 6.49251L32.1233 12.48L37.1019 21.1031C37.1019 21.1031 37.6869 24.0901 28.4049 29.4491C19.1228 34.8081 16.8285 32.8079 16.8285 32.8079L11.5342 23.6379L3.37641 24.9341L18.0179 9.06675Z" fill="#1E293B"/>
</mask>
<g mask="url(#mask1_39_38515)">
<path id="Vector 3" d="M33.8359 12.231C31.7316 31.1691 20.6844 32.7472 15.4238 31.1691L17.002 34.983L28.7068 31.1691L39.6225 22.6206L33.8359 12.231Z" fill="#000F28"/>
</g>
</g>
</g>
</svg>
