<svg width="151" height="61" viewBox="0 0 151 61" fill="none" xmlns="http://www.w3.org/2000/svg">
<path d="M60.1694 34.7965C57.0534 34.7965 54.8838 33.804 53.3374 32.3499L55.4378 29.2571C56.5457 30.365 58.2537 31.2882 60.3771 31.2882C61.7158 31.2882 62.5467 30.8266 62.5467 30.0649C62.5467 28.0338 53.8452 29.7187 53.8452 23.7869C53.8452 21.2018 56.0148 18.8937 59.9616 18.8937C62.4313 18.8937 64.5778 19.6323 66.2166 21.0402L64.047 24.0177C62.7544 22.9329 61.0695 22.402 59.5462 22.402C58.3921 22.402 57.8844 22.7944 57.8844 23.4637C57.8844 25.3564 66.5859 23.9253 66.5859 29.6494C66.5859 32.7423 64.3009 34.7965 60.1694 34.7965ZM75.9901 34.7965C71.2585 34.7965 67.6579 31.5652 67.6579 26.8336C67.6579 22.0789 71.2585 18.8706 75.9901 18.8706C79.7062 18.8706 81.7142 20.971 82.7067 22.979L79.2907 24.6178C78.7829 23.3945 77.4673 22.3789 75.9901 22.3789C73.4743 22.3789 71.6971 24.2946 71.6971 26.8336C71.6971 29.3494 73.4743 31.2882 75.9901 31.2882C77.4673 31.2882 78.7829 30.2726 79.2907 29.0493L82.7067 30.665C81.7142 32.6269 79.7062 34.7965 75.9901 34.7965ZM88.3935 34.5195H84.4235V19.1245H88.3935V34.5195ZM102.45 34.5195H91.163V19.1245H102.45V22.5867H95.1329V24.9871H102.288V28.4492H95.1329V31.0574H102.45V34.5195ZM119.065 34.5195H115.233L108.725 25.6103V34.5195H104.755V19.1245H108.84L115.072 27.5952V19.1245H119.065V34.5195ZM129.388 34.7965C124.656 34.7965 121.055 31.5652 121.055 26.8336C121.055 22.0789 124.656 18.8706 129.388 18.8706C133.104 18.8706 135.112 20.971 136.104 22.979L132.688 24.6178C132.18 23.3945 130.865 22.3789 129.388 22.3789C126.872 22.3789 125.094 24.2946 125.094 26.8336C125.094 29.3494 126.872 31.2882 129.388 31.2882C130.865 31.2882 132.18 30.2726 132.688 29.0493L136.104 30.665C135.112 32.6269 133.104 34.7965 129.388 34.7965ZM149.108 34.5195H137.821V19.1245H149.108V22.5867H141.791V24.9871H148.946V28.4492H141.791V31.0574H149.108V34.5195Z" fill="white"/>
<path d="M62.3638 49.9199H60.5877L59.9334 48.1973H55.847L55.1927 49.9199H53.4166L56.9154 41.0128H58.865L62.3638 49.9199ZM59.4927 46.8218L57.8902 42.5752L56.2877 46.8218H59.4927ZM67.1405 50.0802C64.5097 50.0802 62.4665 48.2106 62.4665 45.473C62.4665 42.7221 64.5097 40.8659 67.1405 40.8659C68.9299 40.8659 70.0516 41.7873 70.706 42.8557L69.3839 43.5501C68.9566 42.8022 68.0886 42.2547 67.1405 42.2547C65.3777 42.2547 64.069 43.5901 64.069 45.473C64.069 47.3292 65.3777 48.6914 67.1405 48.6914C68.0886 48.6914 68.9566 48.1305 69.3839 47.396L70.7193 48.0637C70.0383 49.132 68.9299 50.0802 67.1405 50.0802ZM79.9822 49.9199H78.2061L77.5518 48.1973H73.4655L72.8111 49.9199H71.035L74.5338 41.0128H76.4835L79.9822 49.9199ZM77.1111 46.8218L75.5086 42.5752L73.9061 46.8218H77.1111ZM84.2669 49.9199H80.9417V41.0128H84.2535C87.0445 41.0128 88.9141 42.8557 88.9141 45.4597C88.9141 48.0904 87.0445 49.9199 84.2669 49.9199ZM84.2535 48.5445C86.1898 48.5445 87.3116 47.1556 87.3116 45.4597C87.3116 43.7504 86.2433 42.3883 84.2669 42.3883H82.5041V48.5445H84.2535ZM96.5253 49.9199H90.4225V41.0128H96.5253V42.3883H91.985V44.6852H96.4318V46.0606H91.985V48.5445H96.5253V49.9199ZM107.384 49.9199H105.822V43.0426L103.097 49.9199H102.43L99.6922 43.0426V49.9199H98.1298V41.0128H100.333L102.764 47.1289L105.181 41.0128H107.384V49.9199ZM113.38 49.9199H111.817V46.2209L108.358 41.0128H110.148L112.592 44.8187L115.035 41.0128H116.825L113.38 46.2209V49.9199Z" fill="#7FAAD6"/>
<path d="M27.9187 48.3815C27.9187 48.3812 27.9187 48.381 27.9186 48.3808C26.7764 44.9294 26.7481 41.1046 27.8382 37.6302C27.8777 37.5061 27.7895 37.3798 27.6592 37.3826C24.9704 37.441 2.28518 37.926 1.98695 37.6661C1.66992 37.3897 1.16392 39.1188 0.63657 40.0497C0.171965 40.8698 0.163949 42.8709 0.168619 43.3355C0.169278 43.401 0.173778 43.4666 0.181289 43.5317C0.410672 45.5208 0.795058 46.5428 1.75965 47.9199C2.17507 48.513 2.87256 48.8365 3.59654 48.8234L27.9165 48.3837C27.9177 48.3837 27.9187 48.3827 27.9187 48.3815Z" fill="#3758F9" fill-opacity="0.05"/>
<path d="M28.631 60.2167C28.4092 60.8198 28.9616 61.221 29.4227 60.8658L43.4646 50.2808C43.4798 50.268 43.4929 50.2552 43.5037 50.2348C43.7778 49.7748 47.1839 43.2531 43.1971 37.5184C43.147 37.4469 43.06 37.4316 42.997 37.4852C41.7115 38.5585 29.2465 47.0429 27.7654 48.1239C27.6871 48.1801 27.6675 48.3053 27.7153 48.3999C28.159 49.2432 31.2541 53.0893 28.6288 60.2167H28.631Z" fill="#000F28"/>
<path d="M27.7404 37.9891H2.01692C1.60195 37.9891 1.46725 37.3325 1.83877 37.1137L15.7759 28.8455C16.0627 28.675 16.3799 28.5859 16.7036 28.5859H43.5916L27.7404 37.9891Z" fill="#16213E"/>
<path d="M4.37366 42.8809H23.9444" stroke="#E4E6F2" stroke-width="0.229345" stroke-miterlimit="10" stroke-linecap="round"/>
<path d="M3.22791 55.4961H6.36228" stroke="#E4E6F2" stroke-width="0.229345" stroke-miterlimit="10" stroke-linecap="round"/>
<path d="M11.0237 55.3418H27.1543" stroke="#E4E6F2" stroke-width="0.229345" stroke-miterlimit="10" stroke-linecap="round"/>
<path d="M33.7378 37.874L41.3567 33.9043" stroke="#E4E6F2" stroke-width="0.229345" stroke-miterlimit="10" stroke-linecap="round"/>
<path d="M30.1378 41.5067L31.4374 40.7422" stroke="#E4E6F2" stroke-width="0.229345" stroke-miterlimit="10" stroke-linecap="round"/>
<mask id="mask0_238_21941" style="mask-type:alpha" maskUnits="userSpaceOnUse" x="27" y="37" width="19" height="24">
<path d="M28.631 60.2167C28.4092 60.8198 28.9616 61.221 29.4227 60.8658L43.4646 50.2808C43.4798 50.268 43.4929 50.2552 43.5037 50.2348C43.7778 49.7748 47.1839 43.2531 43.1971 37.5184C43.147 37.4469 43.06 37.4316 42.997 37.4852C41.7115 38.5585 29.2465 47.0429 27.7654 48.1239C27.6871 48.1801 27.6675 48.3053 27.7153 48.3999C28.159 49.2432 31.2541 53.0893 28.6288 60.2167H28.631Z" fill="#000F28"/>
</mask>
<g mask="url(#mask0_238_21941)">
<path d="M42.2163 49.2502C39.3806 51.8585 36.2068 53.9516 32.8414 55.4306C31.7572 55.9058 30.416 56.1167 29.316 56.656C29.1649 57.8146 28.8629 59.0907 28.3534 60.487C28.1235 61.117 28.6961 61.5362 29.174 61.1651L43.7266 50.1072C43.7424 50.0938 43.7559 50.0805 43.7672 50.0591C43.8934 49.8429 44.6711 48.3559 45.1196 46.2441C44.1977 47.3067 43.2307 48.3132 42.2141 49.2476L42.2163 49.2502Z" fill="#16213E"/>
</g>
<path d="M43.5916 28.5859H37.6582C37.1868 28.96 36.7132 29.3316 36.233 29.6904C33.9757 31.3827 31.5728 32.8053 29.0765 33.9504C24.5575 36.0219 19.7322 37.1798 14.883 37.3783C12.4584 37.4776 10.0273 37.3376 7.6222 36.9508C6.40989 36.7548 5.20411 36.4978 4.01136 36.1772C3.87665 36.1415 3.74413 36.1008 3.61377 36.0601L1.83877 37.1137C1.46725 37.3351 1.60195 37.9891 2.01692 37.9891H27.7404L43.5916 28.5859Z" fill="#000F28"/>
<rect x="0.167969" y="60.6172" width="29.0504" height="0.382241" rx="0.191121" fill="#14263E"/>
<path fill-rule="evenodd" clip-rule="evenodd" d="M1.98012 37.4728C2.03317 37.3909 2.00983 37.2816 1.92799 37.2285L1.95242 37.5157C1.88476 37.6213 1.81926 37.7279 1.75593 37.8354H1.46867V37.9883H1.66767C-0.277511 41.4276 -0.0467665 45.759 2.15515 48.1782C2.35622 48.3989 2.61969 48.5119 2.88817 48.5144L2.91821 48.8675L27.9215 48.4789C28.019 48.4773 28.0969 48.3971 28.0954 48.2995C28.0938 48.202 28.0136 48.1242 27.916 48.1257L2.91267 48.5143L2.91263 48.5143C2.90447 48.5145 2.89632 48.5145 2.88817 48.5144L1.99263 37.9883H2.00381V37.8354H1.97962L1.95242 37.5157C1.96162 37.5014 1.97085 37.4871 1.98012 37.4728Z" fill="#000F28"/>
<path d="M40.4866 46.1478L37.8159 45.8723L34.5149 49.5231L34.3411 37.562L40.3519 34.4297L40.4866 46.1478Z" fill="#FFCA00"/>
<path d="M38.0249 42.0834C37.3664 43.1355 36.4841 44.0899 35.415 44.732C35.0868 44.9294 34.7695 45.0487 34.4523 45.1333L34.5153 49.5238L37.8163 45.873L40.487 46.1485L40.3718 36.1289C40.3501 36.1918 40.3284 36.2547 40.3088 36.3155C39.6873 38.2938 39.1245 40.3242 38.0249 42.0834Z" fill="#F9B300"/>
<path d="M27.9896 60.618C28.4647 60.5286 28.6968 60.101 28.7587 59.8535H28.988V60.618H27.9896C27.8775 60.6391 27.752 60.6413 27.6119 60.618H27.9896Z" fill="#14263E"/>
<path d="M35.3746 7.70368L34.5975 8.15234L40.248 17.9392L41.0251 17.4906L35.3746 7.70368Z" fill="#64748B"/>
<path d="M40.3216 17.1708C40.8792 16.8489 41.0703 16.1358 40.7483 15.5782C40.4264 15.0205 39.7133 14.8295 39.1557 15.1514C38.5981 15.4734 38.407 16.1864 38.7289 16.7441C39.0509 17.3017 39.764 17.4928 40.3216 17.1708Z" fill="#16213E"/>
<path fill-rule="evenodd" clip-rule="evenodd" d="M18.0179 9.06626L37.4709 6.49202L32.1233 12.4795L37.1019 21.1026C37.1019 21.1026 37.6869 24.0896 28.4049 29.4486C19.1228 34.8076 16.8285 32.8074 16.8285 32.8074L11.5342 23.6374L3.37641 24.9336L18.0179 9.06626Z" fill="#16213E"/>
<mask id="mask1_238_21941" style="mask-type:alpha" maskUnits="userSpaceOnUse" x="3" y="6" width="35" height="28">
<path fill-rule="evenodd" clip-rule="evenodd" d="M18.0179 9.06626L37.4709 6.49202L32.1233 12.4795L37.1019 21.1026C37.1019 21.1026 37.6869 24.0896 28.4049 29.4486C19.1228 34.8076 16.8285 32.8074 16.8285 32.8074L11.5342 23.6374L3.37641 24.9336L18.0179 9.06626Z" fill="#1E293B"/>
</mask>
<g mask="url(#mask1_238_21941)">
<path d="M33.836 12.2305C31.7318 31.1686 20.6845 32.7468 15.424 31.1686L17.0021 34.9825L28.7069 31.1686L39.6226 22.6201L33.836 12.2305Z" fill="#000F28"/>
</g>
</svg>
