<svg width="16" height="16" viewBox="0 0 16 16" fill="none" xmlns="http://www.w3.org/2000/svg">
<g id="Communication / Chat_Circle">
<path id="Vector" d="M5.00684 13.2012C5.88783 13.7093 6.91001 14 8.00009 14C11.3138 14 14 11.3137 14 8C14 4.68629 11.3137 2 8 2C4.68629 2 2 4.68629 2 8C2 9.09008 2.2907 10.1123 2.79879 10.9933L2.79922 10.994C2.84913 11.0805 2.87416 11.1239 2.88544 11.1647C2.89597 11.2028 2.89945 11.2368 2.89675 11.2763C2.89389 11.3181 2.87943 11.3615 2.85086 11.4472L2.84979 11.4504L2.33724 12.9881L2.33684 12.9893C2.22854 13.3142 2.17436 13.4767 2.21293 13.5849C2.24654 13.6791 2.3208 13.7533 2.41504 13.7869C2.52333 13.8255 2.68635 13.7713 3.01204 13.6627L4.54969 13.1501L4.55075 13.1498C4.63787 13.1208 4.68141 13.1062 4.72361 13.1034C4.76305 13.1007 4.79718 13.1041 4.83529 13.1146C4.87622 13.1259 4.9198 13.151 5.00684 13.2012Z" stroke="#8899A8" stroke-width="2" stroke-linecap="round" stroke-linejoin="round"/>
</g>
</svg>
