<svg width="97" height="17" viewBox="0 0 97 17" fill="none" xmlns="http://www.w3.org/2000/svg">
<path d="M7.1695 16.7965C4.05356 16.7965 1.88395 15.804 0.337519 14.3499L2.43789 11.2571C3.54578 12.365 5.25377 13.2882 7.37723 13.2882C8.71592 13.2882 9.54684 12.8266 9.54684 12.0649C9.54684 10.0338 0.845301 11.7187 0.845301 5.78686C0.845301 3.20179 3.01492 0.89369 6.96177 0.89369C9.43144 0.89369 11.578 1.63228 13.2167 3.04022L11.0471 6.01767C9.75457 4.93287 8.06966 4.402 6.54631 4.402C5.39226 4.402 4.88448 4.79438 4.88448 5.46373C4.88448 7.35637 13.586 5.92535 13.586 11.6494C13.586 14.7423 11.301 16.7965 7.1695 16.7965ZM22.9903 16.7965C18.2587 16.7965 14.658 13.5652 14.658 8.83356C14.658 4.07887 18.2587 0.870609 22.9903 0.870609C26.7063 0.870609 28.7144 2.97098 29.7068 4.97903L26.2908 6.61778C25.7831 5.39449 24.4674 4.37892 22.9903 4.37892C20.4744 4.37892 18.6972 6.29465 18.6972 8.83356C18.6972 11.3494 20.4744 13.2882 22.9903 13.2882C24.4674 13.2882 25.7831 12.2726 26.2908 11.0493L29.7068 12.665C28.7144 14.6269 26.7063 16.7965 22.9903 16.7965ZM35.3936 16.5195H31.4237V1.1245H35.3936V16.5195ZM49.4498 16.5195H38.1631V1.1245H49.4498V4.58665H42.1331V6.98708H49.2882V10.4492H42.1331V13.0574H49.4498V16.5195ZM66.065 16.5195H62.2336L55.7247 7.61026V16.5195H51.7548V1.1245H55.8401L62.072 9.59523V1.1245H66.065V16.5195ZM76.3876 16.7965C71.656 16.7965 68.0554 13.5652 68.0554 8.83356C68.0554 4.07887 71.656 0.870609 76.3876 0.870609C80.1037 0.870609 82.1117 2.97098 83.1042 4.97903L79.6882 6.61778C79.1804 5.39449 77.8648 4.37892 76.3876 4.37892C73.8718 4.37892 72.0946 6.29465 72.0946 8.83356C72.0946 11.3494 73.8718 13.2882 76.3876 13.2882C77.8648 13.2882 79.1804 12.2726 79.6882 11.0493L83.1042 12.665C82.1117 14.6269 80.1037 16.7965 76.3876 16.7965ZM96.1076 16.5195H84.821V1.1245H96.1076V4.58665H88.791V6.98708H95.9461V10.4492H88.791V13.0574H96.1076V16.5195Z" fill="#16213E"/>
</svg>
