<svg width="32" height="32" viewBox="0 0 32 32" fill="none" xmlns="http://www.w3.org/2000/svg">
<g clip-path="url(#clip0_359_13967)">
<path d="M5.625 17.9375C4.07413 17.9375 2.8125 19.1991 2.8125 20.75C2.8125 22.3009 4.07413 23.5625 5.625 23.5625C7.17587 23.5625 8.4375 22.3009 8.4375 20.75C8.4375 19.1991 7.17587 17.9375 5.625 17.9375Z" fill="#1A416A"/>
<path d="M7.5 23.5625H5.625H3.75C1.68181 23.5625 0 25.2443 0 27.3125V31.0625C0 31.5807 0.419312 32 0.9375 32H10.3125C10.8307 32 11.25 31.5807 11.25 31.0625V27.3125C11.25 25.2443 9.56819 23.5625 7.5 23.5625Z" fill="#1A416A"/>
<path d="M26.375 17.9375C24.8241 17.9375 23.5625 19.1991 23.5625 20.75C23.5625 22.3009 24.8241 23.5625 26.375 23.5625C27.9259 23.5625 29.1875 22.3009 29.1875 20.75C29.1875 19.1991 27.9259 17.9375 26.375 17.9375Z" fill="#1A416A"/>
<path d="M28.25 23.5625H26.375H24.5C22.4318 23.5625 20.75 25.2443 20.75 27.3125V31.0625C20.75 31.5807 21.1693 32 21.6875 32H31.0625C31.5807 32 32 31.5807 32 31.0625V27.3125C32 25.2443 30.3182 23.5625 28.25 23.5625Z" fill="#1A416A"/>
<path d="M16 0H8.5C5.91119 0 3.8125 2.09869 3.8125 4.6875V10.3125C3.8125 12.5766 5.42569 14.4699 7.5625 14.9057V17.8124C7.5625 18.6476 8.57231 19.0659 9.16294 18.4753L12.6382 15H16C18.5888 15 20.6875 12.9013 20.6875 10.3125V4.6875C20.6875 2.09869 18.5888 0 16 0ZM15.7253 5.35031L11.9753 9.10031C11.6092 9.46637 11.0157 9.46637 10.6496 9.10031L8.77462 7.22531C8.40844 6.85913 8.40844 6.26581 8.77462 5.89962C9.14081 5.53344 9.73412 5.53344 10.1003 5.89962L11.3125 7.11181L14.3997 4.02462C14.7659 3.65844 15.3592 3.65844 15.7254 4.02462C16.0916 4.39081 16.0916 4.98413 15.7253 5.35031Z" fill="#1A416A"/>
<path d="M23.5023 1.875H21.9065C22.3162 2.73081 22.5648 3.67719 22.5648 4.6875V10.3125C22.5648 12.4596 21.5132 14.3519 19.9141 15.55L22.8393 18.4753C23.4299 19.0659 24.4398 18.6476 24.4398 17.8124V14.9057C26.5766 14.4699 28.1898 12.5766 28.1898 10.3125V6.5625C28.1898 3.97369 26.0911 1.875 23.5023 1.875Z" fill="#1A416A"/>
</g>
<defs>
<clipPath id="clip0_359_13967">
<rect width="32" height="32" fill="white"/>
</clipPath>
</defs>
</svg>
