<svg width="32" height="32" viewBox="0 0 32 32" fill="none" xmlns="http://www.w3.org/2000/svg">
<path d="M13.8948 8.63216H11.7895C11.0585 8.63216 10.6746 7.76453 11.1664 7.22359L15.3769 2.59203C15.711 2.22453 16.289 2.22453 16.6231 2.59203L20.8336 7.22359C21.3253 7.76453 20.9415 8.63216 20.2105 8.63216H18.1052V28.8427C18.1052 29.3077 17.7281 29.6848 17.2631 29.6848H14.7369C14.2718 29.6848 13.8948 29.3078 13.8948 28.8427V8.63216ZM25.6842 16.2111C24.754 16.2111 24 16.9652 24 17.8953V28.8427C24 29.3077 23.623 29.6848 23.1579 29.6848H20.6316C20.1665 29.6848 19.7895 29.3078 19.7895 28.8427V17.8953C19.7895 14.6398 22.4286 12.0006 25.6842 12.0006H26.1053V10.3164C26.1053 9.58734 26.9688 9.20272 27.5107 9.69047L31.7212 13.48C32.0929 13.8145 32.0929 14.3973 31.7212 14.7318L27.5107 18.5213C26.9688 19.0091 26.1053 18.6245 26.1053 17.8954V16.2112H25.6842V16.2111ZM5.89477 16.2111V17.8953C5.89477 18.6243 5.0312 19.009 4.48933 18.5212L0.278766 14.7318C-0.0929219 14.3973 -0.0929219 13.8145 0.278766 13.4799L4.48927 9.69041C5.0312 9.20266 5.8947 9.58728 5.8947 10.3163V12.0006H6.31577C9.57133 12.0006 12.2105 14.6398 12.2105 17.8953V28.8427C12.2105 29.3078 11.8335 29.6848 11.3684 29.6848H8.84208C8.37702 29.6848 7.99995 29.3078 7.99995 28.8427V17.8953C7.99995 16.9652 7.24589 16.2112 6.31577 16.2112L5.89477 16.2111Z" fill="#1A416A"/>
</svg>
