<svg width="32" height="32" viewBox="0 0 32 32" fill="none" xmlns="http://www.w3.org/2000/svg">
<path d="M28.3346 12.1989C25.2546 7.35893 20.748 4.57227 16.0013 4.57227C13.628 4.57227 11.3213 5.2656 9.21463 6.55893C7.10797 7.8656 5.21464 9.77226 3.66797 12.1989C2.33464 14.2923 2.33464 17.6923 3.66797 19.7856C6.74797 24.6389 11.2546 27.4123 16.0013 27.4123C18.3746 27.4123 20.6813 26.7189 22.788 25.4256C24.8946 24.1189 26.788 22.2123 28.3346 19.7856C29.668 17.7056 29.668 14.2923 28.3346 12.1989ZM16.0013 21.3856C13.0146 21.3856 10.6146 18.9723 10.6146 15.9989C10.6146 13.0256 13.0146 10.6123 16.0013 10.6123C18.988 10.6123 21.388 13.0256 21.388 15.9989C21.388 18.9723 18.988 21.3856 16.0013 21.3856Z" fill="#1A416A"/>
<path d="M15.9992 12.1875C13.9059 12.1875 12.1992 13.8942 12.1992 16.0008C12.1992 18.0942 13.9059 19.8008 15.9992 19.8008C18.0926 19.8008 19.8126 18.0942 19.8126 16.0008C19.8126 13.9075 18.0926 12.1875 15.9992 12.1875Z" fill="#1A416A"/>
</svg>
