<svg width="32" height="32" viewBox="0 0 32 32" fill="none" xmlns="http://www.w3.org/2000/svg">
<g clip-path="url(#clip0_359_14032)">
<path d="M24.4706 16.9413C23.4311 16.9413 22.5883 17.7841 22.5883 18.8236C22.5883 17.7841 21.7455 16.9413 20.7059 16.9413C19.6664 16.9413 18.8236 17.7841 18.8236 18.8236C18.8236 17.7841 17.9808 16.9413 16.9412 16.9413C15.9016 16.9413 15.0589 17.7841 15.0589 18.8236V10.3531C15.0589 9.3135 14.2161 8.4707 13.1765 8.4707C12.1369 8.4707 11.2942 9.3135 11.2942 10.3531V16.9413V21.6472H11.1822L9.4118 19.2868C8.93293 18.4989 7.82949 18.31 7.0101 18.8562C6.23144 19.3753 5.96119 20.393 6.3797 21.23L10.5138 30.4393C10.992 31.3959 11.9697 32.0001 13.0392 32.0001H23.5294C25.0889 32.0001 26.353 30.736 26.353 29.1766V19.7648V18.8236C26.353 17.7841 25.5102 16.9413 24.4706 16.9413Z" fill="#1A416A"/>
<path d="M7.53079 7.52941C7.53079 4.41562 10.0641 1.88235 13.1778 1.88235C16.2916 1.88235 18.8249 4.41562 18.8249 7.52941C18.8249 9.15972 18.1082 10.68 16.9426 11.7314V14.0477C17.8086 13.5456 18.5769 12.8722 19.184 12.0705C20.1805 10.7544 20.7073 9.18413 20.7073 7.52941C20.7073 3.37769 17.3296 0 13.1778 0C9.02613 0 5.64844 3.37769 5.64844 7.52941C5.64844 9.18413 6.17518 10.7544 7.1717 12.0705C7.77882 12.8721 8.54707 13.5456 9.41314 14.0477V11.7314C8.24753 10.68 7.53079 9.15972 7.53079 7.52941Z" fill="#1A416A"/>
<path d="M15.8346 4.86235C15.1237 4.15464 14.1812 3.76562 13.1787 3.76562C13.173 3.76562 13.1671 3.76562 13.1615 3.76562C11.1626 3.7746 9.51852 5.34379 9.41869 7.33808C9.39102 7.89099 9.48821 8.43637 9.69106 8.93821C10.0166 8.13921 10.6086 7.47631 11.3568 7.06081C11.5687 6.2583 12.3149 5.65187 13.1698 5.64798H13.1786C13.6798 5.64798 14.1512 5.84255 14.5066 6.19631C14.7505 6.43913 14.9195 6.73692 15.0023 7.06194C15.7514 7.47863 16.3437 8.14329 16.6685 8.94442C16.8478 8.50156 16.9432 8.02301 16.9432 7.53033C16.9432 6.52158 16.5495 5.57406 15.8346 4.86235Z" fill="#1A416A"/>
</g>
<defs>
<clipPath id="clip0_359_14032">
<rect width="32" height="32" fill="white"/>
</clipPath>
</defs>
</svg>
