<svg width="32" height="32" viewBox="0 0 32 32" fill="none" xmlns="http://www.w3.org/2000/svg">
<g clip-path="url(#clip0_359_13959)">
<path d="M19.9998 17.3331C19.2625 17.3331 18.6666 17.9305 18.6666 18.6663V23.9998C18.6666 24.7344 18.0691 25.333 17.3331 25.333H13.3331V5.3332C13.3331 4.19454 12.6078 3.17721 11.5172 2.79855L11.1224 2.66648H17.3331C18.0691 2.66648 18.6666 3.2651 18.6666 3.99996V7.99992C18.6666 8.73575 19.2625 9.33315 19.9998 9.33315C20.7371 9.33315 21.333 8.73575 21.333 7.99992V3.99996C21.333 1.79466 19.5384 0 17.3331 0H2.99997C2.94919 0 2.90671 0.0227049 2.85739 0.0292966C2.79318 0.0239255 2.7319 0 2.66672 0C1.19603 0 0 1.19579 0 2.66648V26.6662C0 27.8049 0.725334 28.8222 1.8159 29.2009L9.83998 31.8756C10.112 31.9596 10.3825 31.9997 10.6666 31.9997C12.1373 31.9997 13.3331 30.8036 13.3331 29.3329V27.9997H17.3331C19.5384 27.9997 21.333 26.205 21.333 23.9998V18.6663C21.333 17.9305 20.7371 17.3331 19.9998 17.3331Z" fill="#1A416A"/>
<path d="M31.608 12.3902L26.2746 7.05704C25.8935 6.6757 25.32 6.56095 24.8215 6.76749C24.3241 6.97428 23.9987 7.46084 23.9987 7.99966V11.9996H18.6655C17.9294 11.9996 17.332 12.5968 17.332 13.3329C17.332 14.0689 17.9294 14.6661 18.6655 14.6661H23.9987V18.666C23.9987 19.2049 24.3241 19.6914 24.8215 19.8982C25.32 20.1048 25.8935 19.99 26.2746 19.6089L31.608 14.2755C32.1292 13.7542 32.1292 12.9115 31.608 12.3902Z" fill="#1A416A"/>
</g>
<defs>
<clipPath id="clip0_359_13959">
<rect width="32" height="32" fill="white"/>
</clipPath>
</defs>
</svg>
