<svg width="32" height="32" viewBox="0 0 32 32" fill="none" xmlns="http://www.w3.org/2000/svg">
<path d="M27.9867 12.946C27.5333 12.7593 26.9333 12.666 26.1867 12.666H19.1467C16.8267 12.666 16 13.4927 16 15.8393V26.1593C16 26.9327 16.0933 27.5327 16.2933 27.9993C16.7067 28.9593 17.5867 29.3327 19.1467 29.3327H26.1867C28.5067 29.3327 29.3333 28.4927 29.3333 26.1593V15.8393C29.3333 14.2527 28.96 13.3593 27.9867 12.946ZM24 26.3327H21.3333C21.3067 26.3327 21.2667 26.3327 21.24 26.3193C21.04 26.306 20.8667 26.2393 20.72 26.106C20.48 25.9327 20.3333 25.6527 20.3333 25.3327C20.3333 24.786 20.7867 24.3327 21.3333 24.3327H24C24.5467 24.3327 25 24.786 25 25.3327C25 25.8793 24.5467 26.3327 24 26.3327Z" fill="#1A416A"/>
<path d="M27.9864 8.25268V9.33268C27.9864 10.066 27.3864 10.666 26.653 10.666H19.1464C15.733 10.666 13.9997 12.4127 13.9997 15.8393V27.9993C13.9997 28.7327 13.3997 29.3327 12.6664 29.3327H10.0664C9.53302 29.3327 9.10635 28.906 9.10635 28.386C9.10635 27.8527 9.53302 27.4393 10.0664 27.4393H12.6664V22.3327H7.99969C5.03969 22.186 2.67969 19.746 2.67969 16.746V8.25268C2.67969 5.17268 5.18635 2.66602 8.27969 2.66602H22.3997C25.4797 2.66602 27.9864 5.17268 27.9864 8.25268Z" fill="#1A416A"/>
</svg>
