<svg width="25" height="24" viewBox="0 0 25 24" fill="none" xmlns="http://www.w3.org/2000/svg">
<path d="M12.9727 7C13.5249 7 13.9727 6.55228 13.9727 6C13.9727 5.44772 13.5249 5 12.9727 5C12.4204 5 11.9727 5.44772 11.9727 6C11.9727 6.55228 12.4204 7 12.9727 7Z" stroke="#374151" stroke-width="2" stroke-linecap="round" stroke-linejoin="round"/>
<path d="M12.9727 13C13.5249 13 13.9727 12.5523 13.9727 12C13.9727 11.4477 13.5249 11 12.9727 11C12.4204 11 11.9727 11.4477 11.9727 12C11.9727 12.5523 12.4204 13 12.9727 13Z" stroke="#374151" stroke-width="2" stroke-linecap="round" stroke-linejoin="round"/>
<path d="M12.9727 19C13.5249 19 13.9727 18.5523 13.9727 18C13.9727 17.4477 13.5249 17 12.9727 17C12.4204 17 11.9727 17.4477 11.9727 18C11.9727 18.5523 12.4204 19 12.9727 19Z" stroke="#374151" stroke-width="2" stroke-linecap="round" stroke-linejoin="round"/>
</svg>
