<svg width="32" height="32" viewBox="0 0 32 32" fill="none" xmlns="http://www.w3.org/2000/svg">
<path d="M23.3734 10.3593C23.2801 10.346 23.1867 10.346 23.0934 10.3593C21.0267 10.2927 19.3867 8.59935 19.3867 6.51935C19.3867 4.39935 21.1067 2.66602 23.2401 2.66602C25.3601 2.66602 27.0934 4.38602 27.0934 6.51935C27.0801 8.59935 25.4401 10.2927 23.3734 10.3593Z" fill="#1A416A"/>
<path d="M27.7195 19.6005C26.2261 20.6005 24.1328 20.9739 22.1995 20.7205C22.7061 19.6272 22.9728 18.4139 22.9861 17.1339C22.9861 15.8005 22.6928 14.5339 22.1328 13.4272C24.1061 13.1605 26.1995 13.5339 27.7061 14.5339C29.8128 15.9205 29.8128 18.2005 27.7195 19.6005Z" fill="#1A416A"/>
<path d="M8.58557 10.3593C8.67891 10.346 8.77224 10.346 8.86557 10.3593C10.9322 10.2927 12.5722 8.59935 12.5722 6.51935C12.5722 4.38602 10.8522 2.66602 8.71891 2.66602C6.59891 2.66602 4.87891 4.38602 4.87891 6.51935C4.87891 8.59935 6.51891 10.2927 8.58557 10.3593Z" fill="#1A416A"/>
<path d="M8.73349 17.1341C8.73349 18.4275 9.01349 19.6541 9.52016 20.7608C7.64016 20.9608 5.68016 20.5608 4.24016 19.6141C2.13349 18.2141 2.13349 15.9341 4.24016 14.5341C5.66682 13.5741 7.68016 13.1875 9.57349 13.4008C9.02682 14.5208 8.73349 15.7875 8.73349 17.1341Z" fill="#1A416A"/>
<path d="M16.1584 21.16C16.0518 21.1467 15.9318 21.1467 15.8118 21.16C13.3584 21.08 11.3984 19.0667 11.3984 16.5867C11.4118 14.0533 13.4518 12 15.9984 12C18.5318 12 20.5851 14.0533 20.5851 16.5867C20.5718 19.0667 18.6251 21.08 16.1584 21.16Z" fill="#1A416A"/>
<path d="M11.8264 23.9195C9.81307 25.2662 9.81307 27.4795 11.8264 28.8129C14.1197 30.3462 17.8797 30.3462 20.1731 28.8129C22.1864 27.4662 22.1864 25.2529 20.1731 23.9195C17.8931 22.3862 14.1331 22.3862 11.8264 23.9195Z" fill="#1A416A"/>
</svg>
