<svg width="32" height="32" viewBox="0 0 32 32" fill="none" xmlns="http://www.w3.org/2000/svg">
<path d="M16.0013 11C13.6146 11 11.668 12.9467 11.668 15.3333C11.668 17.72 13.6146 19.6667 16.0013 19.6667C18.388 19.6667 20.3346 17.72 20.3346 15.3333C20.3346 12.9467 18.388 11 16.0013 11ZM17.3346 14.9067C17.3346 15.72 16.8946 16.4933 16.2013 16.9067L15.1746 17.52C15.0146 17.6133 14.8413 17.6667 14.6546 17.6667C14.3213 17.6667 13.988 17.4933 13.8013 17.1867C13.5213 16.7067 13.668 16.0933 14.148 15.8133L15.1613 15.2C15.268 15.1333 15.3213 15.0267 15.3213 14.92V13.68C15.3213 13.1333 15.7746 12.68 16.3213 12.68C16.868 12.68 17.3346 13.12 17.3346 13.6667V14.9067Z" fill="#1A416A"/>
<path d="M24.721 5.56018L17.3877 2.81352C16.6277 2.53352 15.3877 2.53352 14.6277 2.81352L7.29437 5.56018C5.88104 6.09352 4.73438 7.74685 4.73438 9.25352V20.0535C4.73438 21.1335 5.44104 22.5602 6.30771 23.2002L13.641 28.6802C14.9344 29.6535 17.0544 29.6535 18.3477 28.6802L25.681 23.2002C26.5477 22.5468 27.2544 21.1335 27.2544 20.0535V9.25352C27.2677 7.74685 26.121 6.09352 24.721 5.56018ZM16.001 21.6668C12.5077 21.6668 9.66771 18.8268 9.66771 15.3335C9.66771 11.8402 12.5077 9.00018 16.001 9.00018C19.4944 9.00018 22.3344 11.8402 22.3344 15.3335C22.3344 18.8268 19.4944 21.6668 16.001 21.6668Z" fill="#1A416A"/>
</svg>
