<svg width="32" height="32" viewBox="0 0 32 32" fill="none" xmlns="http://www.w3.org/2000/svg">
<path d="M23.1873 20.8933L17.8006 16H14.1873L8.80062 20.8933C7.29396 22.2533 6.80062 24.3467 7.53396 26.24C8.26729 28.12 10.054 29.3333 12.0673 29.3333H19.9206C21.9473 29.3333 23.7206 28.12 24.454 26.24C25.1873 24.3467 24.694 22.2533 23.1873 20.8933ZM18.4273 24.1867H13.574C13.0673 24.1867 12.6673 23.7733 12.6673 23.28C12.6673 22.7867 13.0806 22.3733 13.574 22.3733H18.4273C18.934 22.3733 19.334 22.7867 19.334 23.28C19.334 23.7733 18.9206 24.1867 18.4273 24.1867Z" fill="#1A416A"/>
<path d="M24.4662 5.75935C23.7329 3.87935 21.9462 2.66602 19.9329 2.66602H12.0662C10.0529 2.66602 8.26623 3.87935 7.5329 5.75935C6.8129 7.65268 7.30623 9.74602 8.8129 11.106L14.1996 15.9993H17.8129L23.1996 11.106C24.6929 9.74602 25.1862 7.65268 24.4662 5.75935ZM18.4262 9.63935H13.5729C13.0662 9.63935 12.6662 9.22602 12.6662 8.73268C12.6662 8.23935 13.0796 7.82601 13.5729 7.82601H18.4262C18.9329 7.82601 19.3329 8.23935 19.3329 8.73268C19.3329 9.22602 18.9196 9.63935 18.4262 9.63935Z" fill="#1A416A"/>
</svg>
