<svg width="32" height="32" viewBox="0 0 32 32" fill="none" xmlns="http://www.w3.org/2000/svg">
<path d="M21.588 2.66602H10.4146C5.5613 2.66602 2.66797 5.55935 2.66797 10.4127V21.5727C2.66797 26.4393 5.5613 29.3327 10.4146 29.3327H21.5746C26.428 29.3327 29.3213 26.4393 29.3213 21.586V10.4127C29.3346 5.55935 26.4413 2.66602 21.588 2.66602ZM22.508 15.3727C22.508 15.8927 22.0946 16.306 21.5746 16.306C21.0546 16.306 20.6413 15.8927 20.6413 15.3727V15.1327L17.0146 18.7593C16.8146 18.9593 16.548 19.0527 16.268 19.026C15.988 18.9993 15.7346 18.8527 15.588 18.6127L14.228 16.586L11.0546 19.7593C10.868 19.946 10.6413 20.026 10.4013 20.026C10.1613 20.026 9.9213 19.9327 9.74797 19.7593C9.38797 19.3993 9.38797 18.8127 9.74797 18.4393L13.7213 14.466C13.9213 14.266 14.188 14.1727 14.468 14.1993C14.748 14.226 15.0013 14.3727 15.148 14.6127L16.508 16.6393L19.3213 13.826H19.0813C18.5613 13.826 18.148 13.4127 18.148 12.8927C18.148 12.3727 18.5613 11.9593 19.0813 11.9593H21.5613C21.6813 11.9593 21.8013 11.986 21.9213 12.026C22.148 12.1193 22.3346 12.306 22.428 12.5327C22.4813 12.6527 22.4946 12.7727 22.4946 12.8927V15.3727H22.508Z" fill="#1A416A"/>
</svg>
