<svg width="327" height="136" viewBox="0 0 327 136" fill="none" xmlns="http://www.w3.org/2000/svg">
<path d="M130.513 75.9198C123.755 75.9198 119.05 73.7673 115.696 70.6137L120.251 63.9061C122.654 66.3088 126.358 68.3111 130.964 68.3111C133.867 68.3111 135.669 67.31 135.669 65.6581C135.669 61.2531 116.798 64.9072 116.798 52.0426C116.798 46.4362 121.503 41.4305 130.063 41.4305C135.419 41.4305 140.074 43.0323 143.628 46.0858L138.923 52.5432C136.12 50.1905 132.465 49.0392 129.162 49.0392C126.659 49.0392 125.557 49.8901 125.557 51.3418C125.557 55.4465 144.429 52.3429 144.429 64.7571C144.429 71.4647 139.473 75.9198 130.513 75.9198ZM164.824 75.9198C154.563 75.9198 146.754 68.9118 146.754 58.6501C146.754 48.3384 154.563 41.3805 164.824 41.3805C172.884 41.3805 177.239 45.9356 179.391 50.2906L171.983 53.8446C170.881 51.1916 168.028 48.9891 164.824 48.9891C159.368 48.9891 155.514 53.1439 155.514 58.6501C155.514 64.1063 159.368 68.3111 164.824 68.3111C168.028 68.3111 170.881 66.1086 171.983 63.4556L179.391 66.9596C177.239 71.2144 172.884 75.9198 164.824 75.9198ZM191.724 75.3191H183.114V41.9311H191.724V75.3191ZM222.209 75.3191H197.731V41.9311H222.209V49.4396H206.34V54.6456H221.858V62.1541H206.34V67.8105H222.209V75.3191ZM258.243 75.3191H249.933L235.817 55.9971V75.3191H227.208V41.9311H236.068L249.583 60.302V41.9311H258.243V75.3191ZM280.63 75.9198C270.368 75.9198 262.56 68.9118 262.56 58.6501C262.56 48.3384 270.368 41.3805 280.63 41.3805C288.689 41.3805 293.044 45.9356 295.197 50.2906L287.788 53.8446C286.687 51.1916 283.834 48.9891 280.63 48.9891C275.174 48.9891 271.319 53.1439 271.319 58.6501C271.319 64.1063 275.174 68.3111 280.63 68.3111C283.834 68.3111 286.687 66.1086 287.788 63.4556L295.197 66.9596C293.044 71.2144 288.689 75.9198 280.63 75.9198ZM323.398 75.3191H298.92V41.9311H323.398V49.4396H307.53V54.6456H323.048V62.1541H307.53V67.8105H323.398V75.3191Z" fill="#16213E"/>
<path d="M135.273 109.236H131.421L130.002 105.5H121.14L119.721 109.236H115.869L123.457 89.919H127.685L135.273 109.236ZM129.046 102.517L125.571 93.3075L122.095 102.517H129.046ZM145.632 109.584C139.927 109.584 135.496 105.529 135.496 99.5921C135.496 93.6261 139.927 89.6004 145.632 89.6004C149.513 89.6004 151.946 91.5988 153.365 93.9157L150.498 95.4217C149.571 93.7998 147.689 92.6124 145.632 92.6124C141.809 92.6124 138.971 95.5086 138.971 99.5921C138.971 103.618 141.809 106.572 145.632 106.572C147.689 106.572 149.571 105.355 150.498 103.763L153.394 105.211C151.917 107.528 149.513 109.584 145.632 109.584ZM173.483 109.236H169.631L168.212 105.5H159.35L157.931 109.236H154.079L161.667 89.919H165.895L173.483 109.236ZM167.256 102.517L163.781 93.3075L160.305 102.517H167.256ZM182.775 109.236H175.564V89.919H182.746C188.799 89.919 192.854 93.9157 192.854 99.5632C192.854 105.269 188.799 109.236 182.775 109.236ZM182.746 106.253C186.946 106.253 189.378 103.241 189.378 99.5632C189.378 95.8561 187.062 92.902 182.775 92.902H178.952V106.253H182.746ZM209.361 109.236H196.125V89.919H209.361V92.902H199.514V97.8834H209.158V100.866H199.514V106.253H209.361V109.236ZM232.911 109.236H229.522V94.3211L223.614 109.236H222.166L216.229 94.3211V109.236H212.84V89.919H217.619L222.89 103.183L228.132 89.919H232.911V109.236ZM245.913 109.236H242.525V101.214L235.024 89.919H238.905L244.205 98.173L249.505 89.919H253.385L245.913 101.214V109.236Z" fill="white"/>
<path d="M60.5682 104.928C60.5682 104.928 60.5681 104.927 60.5679 104.927C58.0908 97.4414 58.0295 89.1463 60.3936 81.6113C60.4792 81.3421 60.2879 81.0682 60.0054 81.0743C54.174 81.201 4.97543 82.2528 4.32864 81.689C3.64108 81.0898 2.54371 84.8397 1.40001 86.8585C0.392394 88.6372 0.37501 92.977 0.385139 93.9846C0.386569 94.1268 0.396326 94.2689 0.412617 94.4102C0.910092 98.7239 1.74373 100.94 3.83569 103.927C4.73663 105.213 6.2493 105.915 7.81946 105.887L60.5634 104.933C60.5661 104.933 60.5682 104.931 60.5682 104.928Z" fill="#3758F9" fill-opacity="0.05"/>
<path d="M62.1132 130.596C61.632 131.904 62.8302 132.774 63.8302 132.004L94.2835 109.048C94.3165 109.02 94.3448 108.992 94.3684 108.948C94.9628 107.95 102.35 93.8064 93.7033 81.3695C93.5948 81.2143 93.4061 81.181 93.2693 81.2974C90.4816 83.6252 63.4481 102.026 60.2358 104.37C60.066 104.492 60.0235 104.764 60.1273 104.969C61.0896 106.798 67.8019 115.139 62.1084 130.596H62.1132Z" fill="#000F28"/>
<path d="M60.1791 82.3884H4.39134C3.49139 82.3884 3.19926 80.9645 4.00498 80.4899L34.2312 62.5583C34.8532 62.1885 35.5411 61.9954 36.2431 61.9954H94.5564L60.1791 82.3884Z" fill="#16213E"/>
<path d="M9.5025 92.9995H51.9466" stroke="#E4E6F2" stroke-width="0.497392" stroke-miterlimit="10" stroke-linecap="round"/>
<path d="M7.01605 120.356H13.8137" stroke="#E4E6F2" stroke-width="0.497392" stroke-miterlimit="10" stroke-linecap="round"/>
<path d="M23.9272 120.024H58.9105" stroke="#E4E6F2" stroke-width="0.497392" stroke-miterlimit="10" stroke-linecap="round"/>
<path d="M73.1863 82.1387L89.71 73.5295" stroke="#E4E6F2" stroke-width="0.497392" stroke-miterlimit="10" stroke-linecap="round"/>
<path d="M65.3765 90.0152L68.195 88.3572" stroke="#E4E6F2" stroke-width="0.497392" stroke-miterlimit="10" stroke-linecap="round"/>
<mask id="mask0_39_42516" style="mask-type:alpha" maskUnits="userSpaceOnUse" x="60" y="81" width="38" height="52">
<path d="M62.1135 130.596C61.6324 131.904 62.8305 132.774 63.8305 132.004L94.2839 109.048C94.3169 109.02 94.3452 108.992 94.3688 108.948C94.9631 107.95 102.35 93.8064 93.7037 81.3695C93.5952 81.2143 93.4065 81.181 93.2697 81.2974C90.4819 83.6252 63.4485 102.026 60.2361 104.37C60.0663 104.492 60.0239 104.764 60.1276 104.969C61.0899 106.798 67.8023 115.139 62.1088 130.596H62.1135Z" fill="#000F28"/>
</mask>
<g mask="url(#mask0_39_42516)">
<path d="M91.5767 106.814C85.4268 112.471 78.5436 117.01 71.2449 120.218C68.8934 121.248 65.9847 121.706 63.599 122.875C63.2715 125.388 62.6164 128.155 61.5116 131.184C61.0129 132.55 62.2547 133.459 63.291 132.654L94.8521 108.672C94.8863 108.643 94.9157 108.615 94.9401 108.568C95.2139 108.099 96.9005 104.874 97.8733 100.294C95.8739 102.599 93.7766 104.782 91.5718 106.808L91.5767 106.814Z" fill="#16213E"/>
</g>
<path d="M94.5564 61.9954H81.6885C80.666 62.8067 79.6389 63.6125 78.5975 64.3907C73.702 68.0609 68.4907 71.146 63.0769 73.6296C53.2763 78.1222 42.8114 80.6334 32.2946 81.0639C27.0363 81.2791 21.7638 80.9755 16.5478 80.1366C13.9186 79.7117 11.3036 79.1542 8.71678 78.4588C8.42465 78.3816 8.13723 78.2933 7.85452 78.205L4.00498 80.4899C3.19926 80.97 3.49139 82.3884 4.39134 82.3884H60.1791L94.5564 61.9954Z" fill="#000F28"/>
<rect x="0.383728" y="131.464" width="63.003" height="0.828987" rx="0.414493" fill="#14263E"/>
<path fill-rule="evenodd" clip-rule="evenodd" d="M4.31318 81.2703C4.42824 81.0928 4.37762 80.8557 4.20013 80.7406C4.02264 80.6256 3.78548 80.6762 3.67043 80.8537C-1.40998 88.6911 -1.17652 99.1771 4.12631 105.003L4.12644 105.004C4.72146 105.657 5.52402 105.996 6.34757 105.983L6.34766 105.983L60.5737 105.14C60.7852 105.137 60.9539 104.962 60.9507 104.751C60.9474 104.539 60.7733 104.371 60.5618 104.374L6.33567 105.217L6.33557 105.217C5.73509 105.226 5.14209 104.981 4.69279 104.488C-0.0826185 99.241 -0.583052 89.8474 3.63554 82.3884H4.36269V82.0568H3.82696C3.98297 81.792 4.14504 81.5297 4.31318 81.2703Z" fill="#000F28"/>
<path d="M87.8198 100.082L82.0275 99.4844L74.8686 107.402L74.4915 81.4615L87.5276 74.6682L87.8198 100.082Z" fill="#FFCA00"/>
<path d="M82.4797 91.2656C81.0516 93.5473 79.1382 95.6173 76.8194 97.0098C76.1077 97.4379 75.4197 97.6966 74.7316 97.8801L74.8682 107.402L82.0272 99.4843L87.8194 100.082L87.5697 78.3518C87.5225 78.4882 87.4754 78.6247 87.433 78.7564C86.0851 83.0469 84.8644 87.4503 82.4797 91.2656Z" fill="#F9B300"/>
<path d="M60.7239 131.464C61.7545 131.271 62.2578 130.343 62.3919 129.806H62.8893V131.464H60.7239C60.4809 131.51 60.2086 131.515 59.905 131.464H60.7239Z" fill="#14263E"/>
<path d="M76.7423 16.7069L75.0569 17.6799L87.3114 38.9053L88.9968 37.9322L76.7423 16.7069Z" fill="#64748B"/>
<path d="M87.47 37.2388C88.6794 36.5406 89.0937 34.9942 88.3955 33.7848C87.6973 32.5754 86.1508 32.161 84.9414 32.8593C83.7321 33.5575 83.3177 35.1039 84.0159 36.3133C84.7142 37.5227 86.2606 37.9371 87.47 37.2388Z" fill="#16213E"/>
<path fill-rule="evenodd" clip-rule="evenodd" d="M39.1014 19.664L81.2902 14.0811L69.6937 27.0653L80.4914 45.7676C80.4914 45.7676 81.7602 52.2457 61.6298 63.868C41.4993 75.4903 36.5235 71.1524 36.5235 71.1524L25.0415 51.2649L7.34768 54.0763L39.1014 19.664Z" fill="#16213E"/>
<mask id="mask1_39_42516" style="mask-type:alpha" maskUnits="userSpaceOnUse" x="7" y="14" width="75" height="58">
<path fill-rule="evenodd" clip-rule="evenodd" d="M39.1014 19.664L81.2902 14.0811L69.6937 27.0653L80.4914 45.7676C80.4914 45.7676 81.7602 52.2457 61.6298 63.868C41.4993 75.4903 36.5235 71.1524 36.5235 71.1524L25.0415 51.2649L7.34768 54.0763L39.1014 19.664Z" fill="#1E293B"/>
</mask>
<g mask="url(#mask1_39_42516)">
<path d="M73.4019 26.5256C68.8384 67.5977 44.8797 71.0204 33.4708 67.5977L36.8934 75.8692L62.2783 67.5977L85.9517 49.0582L73.4019 26.5256Z" fill="#000F28"/>
</g>
<path d="M124.785 130.975H123.599L121.631 124.916L119.664 130.975H118.493L116.088 123.433H117.306L119.148 129.445L121.132 123.433H122.147L124.114 129.445L125.957 123.433H127.19L124.785 130.975ZM136.252 130.975H135.066L133.098 124.916L131.131 130.975H129.96L127.555 123.433H128.773L130.616 129.445L132.599 123.433H133.614L135.581 129.445L137.424 123.433H138.657L136.252 130.975ZM147.72 130.975H146.533L144.565 124.916L142.598 130.975H141.427L139.022 123.433H140.24L142.083 129.445L144.066 123.433H145.081L147.048 129.445L148.891 123.433H150.124L147.72 130.975ZM151.411 131.131C150.943 131.131 150.553 130.741 150.553 130.272C150.553 129.804 150.943 129.413 151.411 129.413C151.88 129.413 152.27 129.804 152.27 130.272C152.27 130.741 151.88 131.131 151.411 131.131ZM156.805 131.162C155.556 131.162 154.526 130.772 153.761 129.976L154.354 129.132C154.854 129.71 155.806 130.21 156.837 130.21C157.992 130.21 158.632 129.663 158.632 128.914C158.632 127.087 153.964 128.211 153.964 125.416C153.964 124.229 154.963 123.246 156.759 123.246C158.055 123.246 158.96 123.73 159.554 124.339L159.007 125.151C158.554 124.604 157.742 124.198 156.759 124.198C155.728 124.198 155.088 124.713 155.088 125.385C155.088 127.024 159.757 125.947 159.757 128.882C159.757 130.147 158.742 131.162 156.805 131.162ZM164.985 131.162C162.737 131.162 161.222 129.429 161.222 127.196C161.222 124.963 162.737 123.246 164.985 123.246C166.359 123.246 167.171 123.808 167.749 124.557L166.968 125.26C166.468 124.573 165.828 124.292 165.048 124.292C163.455 124.292 162.44 125.525 162.44 127.196C162.44 128.867 163.455 130.116 165.048 130.116C165.828 130.116 166.468 129.804 166.968 129.132L167.749 129.851C167.171 130.6 166.359 131.162 164.985 131.162ZM169.999 122.356C169.562 122.356 169.203 122.012 169.203 121.575C169.203 121.138 169.562 120.778 169.999 120.778C170.436 120.778 170.78 121.138 170.78 121.575C170.78 122.012 170.436 122.356 169.999 122.356ZM170.577 130.975H169.406V123.433H170.577V130.975ZM176.332 131.162C174.084 131.162 172.476 129.554 172.476 127.196C172.476 125.01 174.037 123.246 176.192 123.246C178.472 123.246 179.814 125.026 179.814 127.29V127.586H173.725C173.818 129.007 174.802 130.194 176.426 130.194C177.3 130.194 178.159 129.851 178.768 129.226L179.33 129.991C178.565 130.741 177.55 131.162 176.332 131.162ZM178.659 126.712C178.643 125.603 177.894 124.214 176.176 124.214C174.568 124.214 173.772 125.572 173.709 126.712H178.659ZM187.973 130.975H186.817V126.041C186.817 124.698 186.13 124.292 185.115 124.292C184.194 124.292 183.335 124.854 182.882 125.463V130.975H181.711V123.433H182.882V124.526C183.413 123.886 184.444 123.246 185.584 123.246C187.145 123.246 187.973 124.042 187.973 125.681V130.975ZM193.653 131.162C191.404 131.162 189.89 129.429 189.89 127.196C189.89 124.963 191.404 123.246 193.653 123.246C195.027 123.246 195.839 123.808 196.417 124.557L195.636 125.26C195.136 124.573 194.496 124.292 193.715 124.292C192.123 124.292 191.108 125.525 191.108 127.196C191.108 128.867 192.123 130.116 193.715 130.116C194.496 130.116 195.136 129.804 195.636 129.132L196.417 129.851C195.839 130.6 195.027 131.162 193.653 131.162ZM201.493 131.162C199.244 131.162 197.636 129.554 197.636 127.196C197.636 125.01 199.197 123.246 201.352 123.246C203.632 123.246 204.975 125.026 204.975 127.29V127.586H198.885C198.979 129.007 199.963 130.194 201.586 130.194C202.461 130.194 203.32 129.851 203.929 129.226L204.491 129.991C203.726 130.741 202.711 131.162 201.493 131.162ZM203.819 126.712C203.804 125.603 203.054 124.214 201.337 124.214C199.728 124.214 198.932 125.572 198.87 126.712H203.819ZM213.508 130.975H212.337V129.851C211.775 130.616 210.853 131.162 209.792 131.162C207.824 131.162 206.435 129.663 206.435 127.212C206.435 124.791 207.824 123.246 209.792 123.246C210.807 123.246 211.728 123.745 212.337 124.573V123.433H213.508V130.975ZM210.088 130.116C211.01 130.116 211.931 129.57 212.337 128.914V125.51C211.931 124.854 211.01 124.292 210.088 124.292C208.558 124.292 207.652 125.541 207.652 127.212C207.652 128.882 208.558 130.116 210.088 130.116ZM219.179 131.162C216.931 131.162 215.416 129.429 215.416 127.196C215.416 124.963 216.931 123.246 219.179 123.246C220.553 123.246 221.365 123.808 221.943 124.557L221.162 125.26C220.663 124.573 220.022 124.292 219.242 124.292C217.649 124.292 216.634 125.525 216.634 127.196C216.634 128.867 217.649 130.116 219.242 130.116C220.022 130.116 220.663 129.804 221.162 129.132L221.943 129.851C221.365 130.6 220.553 131.162 219.179 131.162ZM230.236 130.975H229.065V129.851C228.503 130.616 227.581 131.162 226.52 131.162C224.552 131.162 223.162 129.663 223.162 127.212C223.162 124.791 224.552 123.246 226.52 123.246C227.535 123.246 228.456 123.745 229.065 124.573V123.433H230.236V130.975ZM226.816 130.116C227.738 130.116 228.659 129.57 229.065 128.914V125.51C228.659 124.854 227.738 124.292 226.816 124.292C225.286 124.292 224.38 125.541 224.38 127.212C224.38 128.882 225.286 130.116 226.816 130.116ZM239.217 130.975H238.046V129.851C237.484 130.616 236.563 131.162 235.501 131.162C233.534 131.162 232.144 129.663 232.144 127.212C232.144 124.791 233.534 123.246 235.501 123.246C236.516 123.246 237.437 123.745 238.046 124.573V120.56H239.217V130.975ZM235.798 130.116C236.719 130.116 237.64 129.57 238.046 128.914V125.51C237.64 124.854 236.719 124.292 235.798 124.292C234.268 124.292 233.362 125.541 233.362 127.212C233.362 128.882 234.268 130.116 235.798 130.116ZM244.982 131.162C242.734 131.162 241.125 129.554 241.125 127.196C241.125 125.01 242.687 123.246 244.842 123.246C247.122 123.246 248.464 125.026 248.464 127.29V127.586H242.375C242.468 129.007 243.452 130.194 245.076 130.194C245.95 130.194 246.809 129.851 247.418 129.226L247.98 129.991C247.215 130.741 246.2 131.162 244.982 131.162ZM247.309 126.712C247.293 125.603 246.544 124.214 244.826 124.214C243.218 124.214 242.421 125.572 242.359 126.712H247.309ZM260.636 130.975H259.465V125.853C259.465 124.901 259.059 124.292 258.075 124.292C257.294 124.292 256.467 124.838 256.076 125.447V130.975H254.905V125.853C254.905 124.901 254.515 124.292 253.515 124.292C252.75 124.292 251.938 124.854 251.532 125.463V130.975H250.361V123.433H251.532V124.526C251.86 124.042 252.86 123.246 253.984 123.246C255.124 123.246 255.78 123.87 255.998 124.651C256.42 123.964 257.435 123.246 258.528 123.246C259.902 123.246 260.636 124.011 260.636 125.525V130.975ZM265.783 134.035C264.533 134.035 263.659 133.661 262.894 132.895L263.487 132.052C264.049 132.755 264.877 133.067 265.783 133.067C267.204 133.067 268.062 132.255 268.062 130.881V129.757C267.485 130.413 266.501 131.006 265.377 131.006C263.799 131.006 262.972 130.241 262.972 128.601V123.433H264.143V128.242C264.143 129.57 264.814 129.976 265.845 129.976C266.751 129.976 267.625 129.429 268.062 128.836V123.433H269.233V130.881C269.233 133.02 267.641 134.035 265.783 134.035ZM272.197 131.131C271.728 131.131 271.338 130.741 271.338 130.272C271.338 129.804 271.728 129.413 272.197 129.413C272.665 129.413 273.056 129.804 273.056 130.272C273.056 130.741 272.665 131.131 272.197 131.131ZM278.512 131.162C276.264 131.162 274.749 129.429 274.749 127.196C274.749 124.963 276.264 123.246 278.512 123.246C279.886 123.246 280.698 123.808 281.276 124.557L280.495 125.26C279.996 124.573 279.355 124.292 278.575 124.292C276.982 124.292 275.967 125.525 275.967 127.196C275.967 128.867 276.982 130.116 278.575 130.116C279.355 130.116 279.996 129.804 280.495 129.132L281.276 129.851C280.698 130.6 279.886 131.162 278.512 131.162ZM286.227 131.162C283.932 131.162 282.495 129.382 282.495 127.196C282.495 125.01 283.932 123.246 286.227 123.246C288.523 123.246 289.959 125.01 289.959 127.196C289.959 129.382 288.523 131.162 286.227 131.162ZM286.227 130.116C287.836 130.116 288.726 128.742 288.726 127.196C288.726 125.666 287.836 124.292 286.227 124.292C284.619 124.292 283.729 125.666 283.729 127.196C283.729 128.742 284.619 130.116 286.227 130.116ZM302.143 130.975H300.972V125.853C300.972 124.901 300.566 124.292 299.582 124.292C298.801 124.292 297.974 124.838 297.583 125.447V130.975H296.412V125.853C296.412 124.901 296.022 124.292 295.023 124.292C294.257 124.292 293.445 124.854 293.039 125.463V130.975H291.868V123.433H293.039V124.526C293.367 124.042 294.367 123.246 295.491 123.246C296.631 123.246 297.287 123.87 297.505 124.651C297.927 123.964 298.942 123.246 300.035 123.246C301.409 123.246 302.143 124.011 302.143 125.525V130.975ZM305.104 131.131C304.635 131.131 304.245 130.741 304.245 130.272C304.245 129.804 304.635 129.413 305.104 129.413C305.572 129.413 305.962 129.804 305.962 130.272C305.962 130.741 305.572 131.131 305.104 131.131ZM314.729 130.975H313.558V129.851C312.996 130.616 312.075 131.162 311.013 131.162C309.046 131.162 307.656 129.663 307.656 127.212C307.656 124.791 309.046 123.246 311.013 123.246C312.028 123.246 312.949 123.745 313.558 124.573V123.433H314.729V130.975ZM311.31 130.116C312.231 130.116 313.152 129.57 313.558 128.914V125.51C313.152 124.854 312.231 124.292 311.31 124.292C309.779 124.292 308.874 125.541 308.874 127.212C308.874 128.882 309.779 130.116 311.31 130.116ZM323.336 130.975H322.165V129.913C321.587 130.569 320.603 131.162 319.479 131.162C317.902 131.162 317.075 130.381 317.075 128.758V123.433H318.246V128.398C318.246 129.726 318.917 130.116 319.948 130.116C320.853 130.116 321.728 129.585 322.165 128.976V123.433H323.336V130.975Z" fill="white"/>
</svg>
