<svg width="620" height="660" viewBox="0 0 620 660" fill="none" xmlns="http://www.w3.org/2000/svg">
<rect width="620" height="660" rx="16" fill="white"/>
<circle cx="36" cy="44.5" r="4" fill="#C1C8EB"/>
<path d="M56.228 39.27C57.264 39.27 58.1693 39.4707 58.944 39.872C59.728 40.264 60.33 40.8333 60.75 41.58C61.1793 42.3173 61.394 43.1807 61.394 44.17C61.394 45.1593 61.1793 46.018 60.75 46.746C60.33 47.474 59.728 48.034 58.944 48.426C58.1693 48.8087 57.264 49 56.228 49H53.05V39.27H56.228ZM56.228 47.698C57.3667 47.698 58.2393 47.39 58.846 46.774C59.4527 46.158 59.756 45.29 59.756 44.17C59.756 43.0407 59.4527 42.1587 58.846 41.524C58.2393 40.8893 57.3667 40.572 56.228 40.572H54.646V47.698H56.228ZM62.4438 45.108C62.4438 44.3333 62.6024 43.6473 62.9198 43.05C63.2464 42.4527 63.6851 41.9907 64.2358 41.664C64.7958 41.328 65.4118 41.16 66.0838 41.16C66.6904 41.16 67.2178 41.2813 67.6658 41.524C68.1231 41.7573 68.4871 42.0513 68.7578 42.406V41.286H70.3678V49H68.7578V47.852C68.4871 48.216 68.1184 48.5193 67.6518 48.762C67.1851 49.0047 66.6531 49.126 66.0558 49.126C65.3931 49.126 64.7864 48.958 64.2358 48.622C63.6851 48.2767 63.2464 47.8007 62.9198 47.194C62.6024 46.578 62.4438 45.8827 62.4438 45.108ZM68.7578 45.136C68.7578 44.604 68.6458 44.142 68.4218 43.75C68.2071 43.358 67.9224 43.0593 67.5678 42.854C67.2131 42.6487 66.8304 42.546 66.4198 42.546C66.0091 42.546 65.6264 42.6487 65.2718 42.854C64.9171 43.05 64.6278 43.344 64.4038 43.736C64.1891 44.1187 64.0818 44.576 64.0818 45.108C64.0818 45.64 64.1891 46.1067 64.4038 46.508C64.6278 46.9093 64.9171 47.2173 65.2718 47.432C65.6358 47.6373 66.0184 47.74 66.4198 47.74C66.8304 47.74 67.2131 47.6373 67.5678 47.432C67.9224 47.2267 68.2071 46.928 68.4218 46.536C68.6458 46.1347 68.7578 45.668 68.7578 45.136ZM73.2761 40.264C72.9867 40.264 72.7441 40.166 72.5481 39.97C72.3521 39.774 72.2541 39.5313 72.2541 39.242C72.2541 38.9527 72.3521 38.71 72.5481 38.514C72.7441 38.318 72.9867 38.22 73.2761 38.22C73.5561 38.22 73.7941 38.318 73.9901 38.514C74.1861 38.71 74.2841 38.9527 74.2841 39.242C74.2841 39.5313 74.1861 39.774 73.9901 39.97C73.7941 40.166 73.5561 40.264 73.2761 40.264ZM74.0601 41.286V49H72.4641V41.286H74.0601ZM77.7515 38.64V49H76.1555V38.64H77.7515ZM86.7909 41.286L82.0589 52.626H80.4069L81.9749 48.874L78.9369 41.286H80.7149L82.8849 47.166L85.1389 41.286H86.7909Z" fill="#374151"/>
<circle cx="123" cy="44.5" r="4" fill="#C1F6DD"/>
<path d="M152.72 39.27L149.836 49H148.03L145.986 41.636L143.816 49L142.024 49.014L139.266 39.27H140.96L142.976 47.194L145.16 39.27H146.952L148.982 47.152L151.012 39.27H152.72ZM161.106 44.954C161.106 45.2433 161.088 45.5047 161.05 45.738H155.156C155.203 46.354 155.432 46.8487 155.842 47.222C156.253 47.5953 156.757 47.782 157.354 47.782C158.213 47.782 158.82 47.4227 159.174 46.704H160.896C160.663 47.4133 160.238 47.9967 159.622 48.454C159.016 48.902 158.26 49.126 157.354 49.126C156.617 49.126 155.954 48.9627 155.366 48.636C154.788 48.3 154.33 47.8333 153.994 47.236C153.668 46.6293 153.504 45.9293 153.504 45.136C153.504 44.3427 153.663 43.6473 153.98 43.05C154.307 42.4433 154.76 41.9767 155.338 41.65C155.926 41.3233 156.598 41.16 157.354 41.16C158.082 41.16 158.731 41.3187 159.3 41.636C159.87 41.9533 160.313 42.4013 160.63 42.98C160.948 43.5493 161.106 44.2073 161.106 44.954ZM159.44 44.45C159.431 43.862 159.221 43.3907 158.81 43.036C158.4 42.6813 157.891 42.504 157.284 42.504C156.734 42.504 156.262 42.6813 155.87 43.036C155.478 43.3813 155.245 43.8527 155.17 44.45H159.44ZM169.747 44.954C169.747 45.2433 169.728 45.5047 169.691 45.738H163.797C163.844 46.354 164.072 46.8487 164.483 47.222C164.894 47.5953 165.398 47.782 165.995 47.782C166.854 47.782 167.46 47.4227 167.815 46.704H169.537C169.304 47.4133 168.879 47.9967 168.263 48.454C167.656 48.902 166.9 49.126 165.995 49.126C165.258 49.126 164.595 48.9627 164.007 48.636C163.428 48.3 162.971 47.8333 162.635 47.236C162.308 46.6293 162.145 45.9293 162.145 45.136C162.145 44.3427 162.304 43.6473 162.621 43.05C162.948 42.4433 163.4 41.9767 163.979 41.65C164.567 41.3233 165.239 41.16 165.995 41.16C166.723 41.16 167.372 41.3187 167.941 41.636C168.51 41.9533 168.954 42.4013 169.271 42.98C169.588 43.5493 169.747 44.2073 169.747 44.954ZM168.081 44.45C168.072 43.862 167.862 43.3907 167.451 43.036C167.04 42.6813 166.532 42.504 165.925 42.504C165.374 42.504 164.903 42.6813 164.511 43.036C164.119 43.3813 163.886 43.8527 163.811 44.45H168.081ZM174.37 45.15L177.926 49H175.77L172.914 45.682V49H171.318V38.64H172.914V44.66L175.714 41.286H177.926L174.37 45.15ZM180.666 38.64V49H179.07V38.64H180.666ZM189.705 41.286L184.973 52.626H183.321L184.889 48.874L181.851 41.286H183.629L185.799 47.166L188.053 41.286H189.705Z" fill="#374151"/>
<circle cx="226" cy="44.5" r="4" fill="#FDC5C5"/>
<path d="M248.776 39.27V40.572H244.646V43.442H247.866V44.744H244.646V49H243.05V39.27H248.776ZM251.067 40.264C250.778 40.264 250.535 40.166 250.339 39.97C250.143 39.774 250.045 39.5313 250.045 39.242C250.045 38.9527 250.143 38.71 250.339 38.514C250.535 38.318 250.778 38.22 251.067 38.22C251.347 38.22 251.585 38.318 251.781 38.514C251.977 38.71 252.075 38.9527 252.075 39.242C252.075 39.5313 251.977 39.774 251.781 39.97C251.585 40.166 251.347 40.264 251.067 40.264ZM251.851 41.286V49H250.255V41.286H251.851ZM257.838 41.16C258.445 41.16 258.986 41.286 259.462 41.538C259.948 41.79 260.326 42.1633 260.596 42.658C260.867 43.1527 261.002 43.75 261.002 44.45V49H259.42V44.688C259.42 43.9973 259.248 43.47 258.902 43.106C258.557 42.7327 258.086 42.546 257.488 42.546C256.891 42.546 256.415 42.7327 256.06 43.106C255.715 43.47 255.542 43.9973 255.542 44.688V49H253.946V41.286H255.542V42.168C255.804 41.8507 256.135 41.6033 256.536 41.426C256.947 41.2487 257.381 41.16 257.838 41.16ZM262.506 45.108C262.506 44.3333 262.665 43.6473 262.982 43.05C263.309 42.4527 263.748 41.9907 264.298 41.664C264.858 41.328 265.474 41.16 266.146 41.16C266.753 41.16 267.28 41.2813 267.728 41.524C268.186 41.7573 268.55 42.0513 268.82 42.406V41.286H270.43V49H268.82V47.852C268.55 48.216 268.181 48.5193 267.714 48.762C267.248 49.0047 266.716 49.126 266.118 49.126C265.456 49.126 264.849 48.958 264.298 48.622C263.748 48.2767 263.309 47.8007 262.982 47.194C262.665 46.578 262.506 45.8827 262.506 45.108ZM268.82 45.136C268.82 44.604 268.708 44.142 268.484 43.75C268.27 43.358 267.985 43.0593 267.63 42.854C267.276 42.6487 266.893 42.546 266.482 42.546C266.072 42.546 265.689 42.6487 265.334 42.854C264.98 43.05 264.69 43.344 264.466 43.736C264.252 44.1187 264.144 44.576 264.144 45.108C264.144 45.64 264.252 46.1067 264.466 46.508C264.69 46.9093 264.98 47.2173 265.334 47.432C265.698 47.6373 266.081 47.74 266.482 47.74C266.893 47.74 267.276 47.6373 267.63 47.432C267.985 47.2267 268.27 46.928 268.484 46.536C268.708 46.1347 268.82 45.668 268.82 45.136ZM274.123 38.64V49H272.527V38.64H274.123Z" fill="#374151"/>
<path d="M581 44C581 44.5523 581.448 45 582 45C582.552 45 583 44.5523 583 44C583 43.4477 582.552 43 582 43C581.448 43 581 43.4477 581 44Z" stroke="#374151" stroke-width="2" stroke-linecap="round" stroke-linejoin="round"/>
<path d="M575 44C575 44.5523 575.448 45 576 45C576.552 45 577 44.5523 577 44C577 43.4477 576.552 43 576 43C575.448 43 575 43.4477 575 44Z" stroke="#374151" stroke-width="2" stroke-linecap="round" stroke-linejoin="round"/>
<path d="M569 44C569 44.5523 569.448 45 570 45C570.552 45 571 44.5523 571 44C571 43.4477 570.552 43 570 43C569.448 43 569 43.4477 569 44Z" stroke="#374151" stroke-width="2" stroke-linecap="round" stroke-linejoin="round"/>
<rect x="32.5" y="450.5" width="269" height="80" rx="14.5" fill="white" stroke="#F0F0F1"/>
<path d="M151.51 484.999C150.66 484.999 149.8 484.779 149.13 484.349L143.11 480.419C141.99 479.689 141.32 478.459 141.32 477.119C141.32 475.779 141.99 474.549 143.11 473.819L149.14 469.899C150.48 469.029 152.57 469.029 153.9 469.909L159.89 473.839C161 474.569 161.67 475.799 161.67 477.129C161.67 478.459 161 479.689 159.89 480.419L153.9 484.349C153.23 484.789 152.37 484.999 151.51 484.999ZM151.51 470.749C150.94 470.749 150.37 470.879 149.96 471.159L143.94 475.079C143.24 475.539 142.83 476.279 142.83 477.119C142.83 477.959 143.23 478.699 143.94 479.159L149.96 483.089C150.79 483.629 152.25 483.629 153.08 483.089L159.07 479.159C159.77 478.699 160.17 477.959 160.17 477.119C160.17 476.279 159.77 475.539 159.07 475.079L153.08 471.149C152.66 470.889 152.09 470.749 151.51 470.749Z" fill="#6B7280"/>
<path d="M151.5 490.75C151.06 490.75 150.61 490.69 150.25 490.57L147.06 489.51C145.55 489.01 144.36 487.36 144.37 485.77L144.38 481.08C144.38 480.67 144.72 480.33 145.13 480.33C145.54 480.33 145.88 480.67 145.88 481.08L145.87 485.77C145.87 486.71 146.65 487.79 147.54 488.09L150.73 489.15C151.13 489.28 151.87 489.28 152.27 489.15L155.46 488.09C156.35 487.79 157.13 486.71 157.13 485.78V481.14C157.13 480.73 157.47 480.39 157.88 480.39C158.29 480.39 158.63 480.73 158.63 481.14V485.78C158.63 487.37 157.45 489.01 155.94 489.52L152.75 490.58C152.39 490.69 151.94 490.75 151.5 490.75Z" fill="#6B7280"/>
<path d="M160.9 483.75C160.49 483.75 160.15 483.41 160.15 483V477C160.15 476.59 160.49 476.25 160.9 476.25C161.31 476.25 161.65 476.59 161.65 477V483C161.65 483.41 161.31 483.75 160.9 483.75Z" fill="#6B7280"/>
<path d="M177.136 475.112C177.216 473.512 177.776 472.28 178.816 471.416C179.872 470.536 181.256 470.096 182.968 470.096C184.136 470.096 185.136 470.304 185.968 470.72C186.8 471.12 187.424 471.672 187.84 472.376C188.272 473.064 188.488 473.848 188.488 474.728C188.488 475.736 188.224 476.592 187.696 477.296C187.184 477.984 186.568 478.448 185.848 478.688V478.784C186.776 479.072 187.496 479.584 188.008 480.32C188.536 481.056 188.8 482 188.8 483.152C188.8 484.112 188.576 484.968 188.128 485.72C187.696 486.472 187.048 487.064 186.184 487.496C185.336 487.912 184.312 488.12 183.112 488.12C181.304 488.12 179.832 487.664 178.696 486.752C177.56 485.84 176.96 484.496 176.896 482.72H180.16C180.192 483.504 180.456 484.136 180.952 484.616C181.464 485.08 182.16 485.312 183.04 485.312C183.856 485.312 184.48 485.088 184.912 484.64C185.36 484.176 185.584 483.584 185.584 482.864C185.584 481.904 185.28 481.216 184.672 480.8C184.064 480.384 183.12 480.176 181.84 480.176H181.144V477.416H181.84C184.112 477.416 185.248 476.656 185.248 475.136C185.248 474.448 185.04 473.912 184.624 473.528C184.224 473.144 183.64 472.952 182.872 472.952C182.12 472.952 181.536 473.16 181.12 473.576C180.72 473.976 180.488 474.488 180.424 475.112H177.136Z" fill="#6B7280"/>
<path d="M136.609 508.114C136.609 507.162 136.828 506.308 137.267 505.552C137.715 504.796 138.317 504.208 139.073 503.788C139.838 503.359 140.673 503.144 141.579 503.144C142.615 503.144 143.534 503.401 144.337 503.914C145.149 504.418 145.737 505.137 146.101 506.07H144.183C143.931 505.557 143.581 505.174 143.133 504.922C142.685 504.67 142.167 504.544 141.579 504.544C140.935 504.544 140.361 504.689 139.857 504.978C139.353 505.267 138.956 505.683 138.667 506.224C138.387 506.765 138.247 507.395 138.247 508.114C138.247 508.833 138.387 509.463 138.667 510.004C138.956 510.545 139.353 510.965 139.857 511.264C140.361 511.553 140.935 511.698 141.579 511.698C142.167 511.698 142.685 511.572 143.133 511.32C143.581 511.068 143.931 510.685 144.183 510.172H146.101C145.737 511.105 145.149 511.824 144.337 512.328C143.534 512.832 142.615 513.084 141.579 513.084C140.664 513.084 139.829 512.874 139.073 512.454C138.317 512.025 137.715 511.432 137.267 510.676C136.828 509.92 136.609 509.066 136.609 508.114ZM151.315 513.126C150.587 513.126 149.929 512.963 149.341 512.636C148.753 512.3 148.291 511.833 147.955 511.236C147.619 510.629 147.451 509.929 147.451 509.136C147.451 508.352 147.624 507.657 147.969 507.05C148.314 506.443 148.786 505.977 149.383 505.65C149.98 505.323 150.648 505.16 151.385 505.16C152.122 505.16 152.79 505.323 153.387 505.65C153.984 505.977 154.456 506.443 154.801 507.05C155.146 507.657 155.319 508.352 155.319 509.136C155.319 509.92 155.142 510.615 154.787 511.222C154.432 511.829 153.947 512.3 153.331 512.636C152.724 512.963 152.052 513.126 151.315 513.126ZM151.315 511.74C151.726 511.74 152.108 511.642 152.463 511.446C152.827 511.25 153.121 510.956 153.345 510.564C153.569 510.172 153.681 509.696 153.681 509.136C153.681 508.576 153.574 508.105 153.359 507.722C153.144 507.33 152.86 507.036 152.505 506.84C152.15 506.644 151.768 506.546 151.357 506.546C150.946 506.546 150.564 506.644 150.209 506.84C149.864 507.036 149.588 507.33 149.383 507.722C149.178 508.105 149.075 508.576 149.075 509.136C149.075 509.967 149.285 510.611 149.705 511.068C150.134 511.516 150.671 511.74 151.315 511.74ZM163.883 505.286V513H162.287V512.09C162.035 512.407 161.703 512.659 161.293 512.846C160.891 513.023 160.462 513.112 160.005 513.112C159.398 513.112 158.852 512.986 158.367 512.734C157.891 512.482 157.513 512.109 157.233 511.614C156.962 511.119 156.827 510.522 156.827 509.822V505.286H158.409V509.584C158.409 510.275 158.581 510.807 158.927 511.18C159.272 511.544 159.743 511.726 160.341 511.726C160.938 511.726 161.409 511.544 161.755 511.18C162.109 510.807 162.287 510.275 162.287 509.584V505.286H163.883ZM167.584 506.406C167.818 506.014 168.126 505.711 168.508 505.496C168.9 505.272 169.362 505.16 169.894 505.16V506.812H169.488C168.863 506.812 168.387 506.971 168.06 507.288C167.743 507.605 167.584 508.156 167.584 508.94V513H165.988V505.286H167.584V506.406ZM174.162 513.126C173.555 513.126 173.009 513.019 172.524 512.804C172.048 512.58 171.67 512.281 171.39 511.908C171.11 511.525 170.96 511.101 170.942 510.634H172.594C172.622 510.961 172.776 511.236 173.056 511.46C173.345 511.675 173.704 511.782 174.134 511.782C174.582 511.782 174.927 511.698 175.17 511.53C175.422 511.353 175.548 511.129 175.548 510.858C175.548 510.569 175.408 510.354 175.128 510.214C174.857 510.074 174.423 509.92 173.826 509.752C173.247 509.593 172.776 509.439 172.412 509.29C172.048 509.141 171.73 508.912 171.46 508.604C171.198 508.296 171.068 507.89 171.068 507.386C171.068 506.975 171.189 506.602 171.432 506.266C171.674 505.921 172.02 505.65 172.468 505.454C172.925 505.258 173.448 505.16 174.036 505.16C174.913 505.16 175.618 505.384 176.15 505.832C176.691 506.271 176.98 506.873 177.018 507.638H175.422C175.394 507.293 175.254 507.017 175.002 506.812C174.75 506.607 174.409 506.504 173.98 506.504C173.56 506.504 173.238 506.583 173.014 506.742C172.79 506.901 172.678 507.111 172.678 507.372C172.678 507.577 172.752 507.75 172.902 507.89C173.051 508.03 173.233 508.142 173.448 508.226C173.662 508.301 173.98 508.399 174.4 508.52C174.96 508.669 175.417 508.823 175.772 508.982C176.136 509.131 176.448 509.355 176.71 509.654C176.971 509.953 177.106 510.349 177.116 510.844C177.116 511.283 176.994 511.675 176.752 512.02C176.509 512.365 176.164 512.636 175.716 512.832C175.277 513.028 174.759 513.126 174.162 513.126ZM185.91 508.954C185.91 509.243 185.891 509.505 185.854 509.738H179.96C180.007 510.354 180.235 510.849 180.646 511.222C181.057 511.595 181.561 511.782 182.158 511.782C183.017 511.782 183.623 511.423 183.978 510.704H185.7C185.467 511.413 185.042 511.997 184.426 512.454C183.819 512.902 183.063 513.126 182.158 513.126C181.421 513.126 180.758 512.963 180.17 512.636C179.591 512.3 179.134 511.833 178.798 511.236C178.471 510.629 178.308 509.929 178.308 509.136C178.308 508.343 178.467 507.647 178.784 507.05C179.111 506.443 179.563 505.977 180.142 505.65C180.73 505.323 181.402 505.16 182.158 505.16C182.886 505.16 183.535 505.319 184.104 505.636C184.673 505.953 185.117 506.401 185.434 506.98C185.751 507.549 185.91 508.207 185.91 508.954ZM184.244 508.45C184.235 507.862 184.025 507.391 183.614 507.036C183.203 506.681 182.695 506.504 182.088 506.504C181.537 506.504 181.066 506.681 180.674 507.036C180.282 507.381 180.049 507.853 179.974 508.45H184.244ZM190.281 513.126C189.674 513.126 189.128 513.019 188.643 512.804C188.167 512.58 187.789 512.281 187.509 511.908C187.229 511.525 187.079 511.101 187.061 510.634H188.713C188.741 510.961 188.895 511.236 189.175 511.46C189.464 511.675 189.823 511.782 190.253 511.782C190.701 511.782 191.046 511.698 191.289 511.53C191.541 511.353 191.667 511.129 191.667 510.858C191.667 510.569 191.527 510.354 191.247 510.214C190.976 510.074 190.542 509.92 189.945 509.752C189.366 509.593 188.895 509.439 188.531 509.29C188.167 509.141 187.849 508.912 187.579 508.604C187.317 508.296 187.187 507.89 187.187 507.386C187.187 506.975 187.308 506.602 187.551 506.266C187.793 505.921 188.139 505.65 188.587 505.454C189.044 505.258 189.567 505.16 190.155 505.16C191.032 505.16 191.737 505.384 192.269 505.832C192.81 506.271 193.099 506.873 193.137 507.638H191.541C191.513 507.293 191.373 507.017 191.121 506.812C190.869 506.607 190.528 506.504 190.099 506.504C189.679 506.504 189.357 506.583 189.133 506.742C188.909 506.901 188.797 507.111 188.797 507.372C188.797 507.577 188.871 507.75 189.021 507.89C189.17 508.03 189.352 508.142 189.567 508.226C189.781 508.301 190.099 508.399 190.519 508.52C191.079 508.669 191.536 508.823 191.891 508.982C192.255 509.131 192.567 509.355 192.829 509.654C193.09 509.953 193.225 510.349 193.235 510.844C193.235 511.283 193.113 511.675 192.871 512.02C192.628 512.365 192.283 512.636 191.835 512.832C191.396 513.028 190.878 513.126 190.281 513.126Z" fill="#8899A8"/>
<rect x="318.5" y="450.5" width="269" height="80" rx="14.5" fill="white" stroke="#F0F0F1"/>
<path d="M441.51 484.999C440.66 484.999 439.8 484.779 439.13 484.349L433.11 480.419C431.99 479.689 431.32 478.459 431.32 477.119C431.32 475.779 431.99 474.549 433.11 473.819L439.14 469.899C440.48 469.029 442.57 469.029 443.9 469.909L449.89 473.839C451 474.569 451.67 475.799 451.67 477.129C451.67 478.459 451 479.689 449.89 480.419L443.9 484.349C443.23 484.789 442.37 484.999 441.51 484.999ZM441.51 470.749C440.94 470.749 440.37 470.879 439.96 471.159L433.94 475.079C433.24 475.539 432.83 476.279 432.83 477.119C432.83 477.959 433.23 478.699 433.94 479.159L439.96 483.089C440.79 483.629 442.25 483.629 443.08 483.089L449.07 479.159C449.77 478.699 450.17 477.959 450.17 477.119C450.17 476.279 449.77 475.539 449.07 475.079L443.08 471.149C442.66 470.889 442.09 470.749 441.51 470.749Z" fill="#6B7280"/>
<path d="M441.5 490.75C441.06 490.75 440.61 490.69 440.25 490.57L437.06 489.51C435.55 489.01 434.36 487.36 434.37 485.77L434.38 481.08C434.38 480.67 434.72 480.33 435.13 480.33C435.54 480.33 435.88 480.67 435.88 481.08L435.87 485.77C435.87 486.71 436.65 487.79 437.54 488.09L440.73 489.15C441.13 489.28 441.87 489.28 442.27 489.15L445.46 488.09C446.35 487.79 447.13 486.71 447.13 485.78V481.14C447.13 480.73 447.47 480.39 447.88 480.39C448.29 480.39 448.63 480.73 448.63 481.14V485.78C448.63 487.37 447.45 489.01 445.94 489.52L442.75 490.58C442.39 490.69 441.94 490.75 441.5 490.75Z" fill="#6B7280"/>
<path d="M450.9 483.75C450.49 483.75 450.15 483.41 450.15 483V477C450.15 476.59 450.49 476.25 450.9 476.25C451.31 476.25 451.65 476.59 451.65 477V483C451.65 483.41 451.31 483.75 450.9 483.75Z" fill="#6B7280"/>
<path d="M467.136 475.112C467.216 473.512 467.776 472.28 468.816 471.416C469.872 470.536 471.256 470.096 472.968 470.096C474.136 470.096 475.136 470.304 475.968 470.72C476.8 471.12 477.424 471.672 477.84 472.376C478.272 473.064 478.488 473.848 478.488 474.728C478.488 475.736 478.224 476.592 477.696 477.296C477.184 477.984 476.568 478.448 475.848 478.688V478.784C476.776 479.072 477.496 479.584 478.008 480.32C478.536 481.056 478.8 482 478.8 483.152C478.8 484.112 478.576 484.968 478.128 485.72C477.696 486.472 477.048 487.064 476.184 487.496C475.336 487.912 474.312 488.12 473.112 488.12C471.304 488.12 469.832 487.664 468.696 486.752C467.56 485.84 466.96 484.496 466.896 482.72H470.16C470.192 483.504 470.456 484.136 470.952 484.616C471.464 485.08 472.16 485.312 473.04 485.312C473.856 485.312 474.48 485.088 474.912 484.64C475.36 484.176 475.584 483.584 475.584 482.864C475.584 481.904 475.28 481.216 474.672 480.8C474.064 480.384 473.12 480.176 471.84 480.176H471.144V477.416H471.84C474.112 477.416 475.248 476.656 475.248 475.136C475.248 474.448 475.04 473.912 474.624 473.528C474.224 473.144 473.64 472.952 472.872 472.952C472.12 472.952 471.536 473.16 471.12 473.576C470.72 473.976 470.488 474.488 470.424 475.112H467.136Z" fill="#6B7280"/>
<path d="M419.014 511.012H414.94L414.24 513H412.574L416.06 503.256H417.908L421.394 513H419.714L419.014 511.012ZM418.566 509.71L416.984 505.188L415.388 509.71H418.566ZM425.709 513.126C425.103 513.126 424.557 513.019 424.071 512.804C423.595 512.58 423.217 512.281 422.937 511.908C422.657 511.525 422.508 511.101 422.489 510.634H424.141C424.169 510.961 424.323 511.236 424.603 511.46C424.893 511.675 425.252 511.782 425.681 511.782C426.129 511.782 426.475 511.698 426.717 511.53C426.969 511.353 427.095 511.129 427.095 510.858C427.095 510.569 426.955 510.354 426.675 510.214C426.405 510.074 425.971 509.92 425.373 509.752C424.795 509.593 424.323 509.439 423.959 509.29C423.595 509.141 423.278 508.912 423.007 508.604C422.746 508.296 422.615 507.89 422.615 507.386C422.615 506.975 422.737 506.602 422.979 506.266C423.222 505.921 423.567 505.65 424.015 505.454C424.473 505.258 424.995 505.16 425.583 505.16C426.461 505.16 427.165 505.384 427.697 505.832C428.239 506.271 428.528 506.873 428.565 507.638H426.969C426.941 507.293 426.801 507.017 426.549 506.812C426.297 506.607 425.957 506.504 425.527 506.504C425.107 506.504 424.785 506.583 424.561 506.742C424.337 506.901 424.225 507.111 424.225 507.372C424.225 507.577 424.3 507.75 424.449 507.89C424.599 508.03 424.781 508.142 424.995 508.226C425.21 508.301 425.527 508.399 425.947 508.52C426.507 508.669 426.965 508.823 427.319 508.982C427.683 509.131 427.996 509.355 428.257 509.654C428.519 509.953 428.654 510.349 428.663 510.844C428.663 511.283 428.542 511.675 428.299 512.02C428.057 512.365 427.711 512.636 427.263 512.832C426.825 513.028 426.307 513.126 425.709 513.126ZM433.188 513.126C432.581 513.126 432.035 513.019 431.55 512.804C431.074 512.58 430.696 512.281 430.416 511.908C430.136 511.525 429.987 511.101 429.968 510.634H431.62C431.648 510.961 431.802 511.236 432.082 511.46C432.371 511.675 432.731 511.782 433.16 511.782C433.608 511.782 433.953 511.698 434.196 511.53C434.448 511.353 434.574 511.129 434.574 510.858C434.574 510.569 434.434 510.354 434.154 510.214C433.883 510.074 433.449 509.92 432.852 509.752C432.273 509.593 431.802 509.439 431.438 509.29C431.074 509.141 430.757 508.912 430.486 508.604C430.225 508.296 430.094 507.89 430.094 507.386C430.094 506.975 430.215 506.602 430.458 506.266C430.701 505.921 431.046 505.65 431.494 505.454C431.951 505.258 432.474 505.16 433.062 505.16C433.939 505.16 434.644 505.384 435.176 505.832C435.717 506.271 436.007 506.873 436.044 507.638H434.448C434.42 507.293 434.28 507.017 434.028 506.812C433.776 506.607 433.435 506.504 433.006 506.504C432.586 506.504 432.264 506.583 432.04 506.742C431.816 506.901 431.704 507.111 431.704 507.372C431.704 507.577 431.779 507.75 431.928 507.89C432.077 508.03 432.259 508.142 432.474 508.226C432.689 508.301 433.006 508.399 433.426 508.52C433.986 508.669 434.443 508.823 434.798 508.982C435.162 509.131 435.475 509.355 435.736 509.654C435.997 509.953 436.133 510.349 436.142 510.844C436.142 511.283 436.021 511.675 435.778 512.02C435.535 512.365 435.19 512.636 434.742 512.832C434.303 513.028 433.785 513.126 433.188 513.126ZM444.936 508.954C444.936 509.243 444.918 509.505 444.88 509.738H438.986C439.033 510.354 439.262 510.849 439.672 511.222C440.083 511.595 440.587 511.782 441.184 511.782C442.043 511.782 442.65 511.423 443.004 510.704H444.726C444.493 511.413 444.068 511.997 443.452 512.454C442.846 512.902 442.09 513.126 441.184 513.126C440.447 513.126 439.784 512.963 439.196 512.636C438.618 512.3 438.16 511.833 437.824 511.236C437.498 510.629 437.334 509.929 437.334 509.136C437.334 508.343 437.493 507.647 437.81 507.05C438.137 506.443 438.59 505.977 439.168 505.65C439.756 505.323 440.428 505.16 441.184 505.16C441.912 505.16 442.561 505.319 443.13 505.636C443.7 505.953 444.143 506.401 444.46 506.98C444.778 507.549 444.936 508.207 444.936 508.954ZM443.27 508.45C443.261 507.862 443.051 507.391 442.64 507.036C442.23 506.681 441.721 506.504 441.114 506.504C440.564 506.504 440.092 506.681 439.7 507.036C439.308 507.381 439.075 507.853 439 508.45H443.27ZM449.307 513.126C448.7 513.126 448.154 513.019 447.669 512.804C447.193 512.58 446.815 512.281 446.535 511.908C446.255 511.525 446.106 511.101 446.087 510.634H447.739C447.767 510.961 447.921 511.236 448.201 511.46C448.49 511.675 448.85 511.782 449.279 511.782C449.727 511.782 450.072 511.698 450.315 511.53C450.567 511.353 450.693 511.129 450.693 510.858C450.693 510.569 450.553 510.354 450.273 510.214C450.002 510.074 449.568 509.92 448.971 509.752C448.392 509.593 447.921 509.439 447.557 509.29C447.193 509.141 446.876 508.912 446.605 508.604C446.344 508.296 446.213 507.89 446.213 507.386C446.213 506.975 446.334 506.602 446.577 506.266C446.82 505.921 447.165 505.65 447.613 505.454C448.07 505.258 448.593 505.16 449.181 505.16C450.058 505.16 450.763 505.384 451.295 505.832C451.836 506.271 452.126 506.873 452.163 507.638H450.567C450.539 507.293 450.399 507.017 450.147 506.812C449.895 506.607 449.554 506.504 449.125 506.504C448.705 506.504 448.383 506.583 448.159 506.742C447.935 506.901 447.823 507.111 447.823 507.372C447.823 507.577 447.898 507.75 448.047 507.89C448.196 508.03 448.378 508.142 448.593 508.226C448.808 508.301 449.125 508.399 449.545 508.52C450.105 508.669 450.562 508.823 450.917 508.982C451.281 509.131 451.594 509.355 451.855 509.654C452.116 509.953 452.252 510.349 452.261 510.844C452.261 511.283 452.14 511.675 451.897 512.02C451.654 512.365 451.309 512.636 450.861 512.832C450.422 513.028 449.904 513.126 449.307 513.126ZM456.786 513.126C456.179 513.126 455.633 513.019 455.148 512.804C454.672 512.58 454.294 512.281 454.014 511.908C453.734 511.525 453.584 511.101 453.566 510.634H455.218C455.246 510.961 455.4 511.236 455.68 511.46C455.969 511.675 456.328 511.782 456.758 511.782C457.206 511.782 457.551 511.698 457.794 511.53C458.046 511.353 458.172 511.129 458.172 510.858C458.172 510.569 458.032 510.354 457.752 510.214C457.481 510.074 457.047 509.92 456.45 509.752C455.871 509.593 455.4 509.439 455.036 509.29C454.672 509.141 454.354 508.912 454.084 508.604C453.822 508.296 453.692 507.89 453.692 507.386C453.692 506.975 453.813 506.602 454.056 506.266C454.298 505.921 454.644 505.65 455.092 505.454C455.549 505.258 456.072 505.16 456.66 505.16C457.537 505.16 458.242 505.384 458.774 505.832C459.315 506.271 459.604 506.873 459.642 507.638H458.046C458.018 507.293 457.878 507.017 457.626 506.812C457.374 506.607 457.033 506.504 456.604 506.504C456.184 506.504 455.862 506.583 455.638 506.742C455.414 506.901 455.302 507.111 455.302 507.372C455.302 507.577 455.376 507.75 455.526 507.89C455.675 508.03 455.857 508.142 456.072 508.226C456.286 508.301 456.604 508.399 457.024 508.52C457.584 508.669 458.041 508.823 458.396 508.982C458.76 509.131 459.072 509.355 459.334 509.654C459.595 509.953 459.73 510.349 459.74 510.844C459.74 511.283 459.618 511.675 459.376 512.02C459.133 512.365 458.788 512.636 458.34 512.832C457.901 513.028 457.383 513.126 456.786 513.126ZM470.802 505.16C471.409 505.16 471.95 505.286 472.426 505.538C472.911 505.79 473.289 506.163 473.56 506.658C473.84 507.153 473.98 507.75 473.98 508.45V513H472.398V508.688C472.398 507.997 472.225 507.47 471.88 507.106C471.535 506.733 471.063 506.546 470.466 506.546C469.869 506.546 469.393 506.733 469.038 507.106C468.693 507.47 468.52 507.997 468.52 508.688V513H466.938V508.688C466.938 507.997 466.765 507.47 466.42 507.106C466.075 506.733 465.603 506.546 465.006 506.546C464.409 506.546 463.933 506.733 463.578 507.106C463.233 507.47 463.06 507.997 463.06 508.688V513H461.464V505.286H463.06V506.168C463.321 505.851 463.653 505.603 464.054 505.426C464.455 505.249 464.885 505.16 465.342 505.16C465.958 505.16 466.509 505.291 466.994 505.552C467.479 505.813 467.853 506.191 468.114 506.686C468.347 506.219 468.711 505.851 469.206 505.58C469.701 505.3 470.233 505.16 470.802 505.16ZM483.081 508.954C483.081 509.243 483.062 509.505 483.025 509.738H477.131C477.178 510.354 477.406 510.849 477.817 511.222C478.228 511.595 478.732 511.782 479.329 511.782C480.188 511.782 480.794 511.423 481.149 510.704H482.871C482.638 511.413 482.213 511.997 481.597 512.454C480.99 512.902 480.234 513.126 479.329 513.126C478.592 513.126 477.929 512.963 477.341 512.636C476.762 512.3 476.305 511.833 475.969 511.236C475.642 510.629 475.479 509.929 475.479 509.136C475.479 508.343 475.638 507.647 475.955 507.05C476.282 506.443 476.734 505.977 477.313 505.65C477.901 505.323 478.573 505.16 479.329 505.16C480.057 505.16 480.706 505.319 481.275 505.636C481.844 505.953 482.288 506.401 482.605 506.98C482.922 507.549 483.081 508.207 483.081 508.954ZM481.415 508.45C481.406 507.862 481.196 507.391 480.785 507.036C480.374 506.681 479.866 506.504 479.259 506.504C478.708 506.504 478.237 506.681 477.845 507.036C477.453 507.381 477.22 507.853 477.145 508.45H481.415ZM488.544 505.16C489.15 505.16 489.692 505.286 490.168 505.538C490.653 505.79 491.031 506.163 491.302 506.658C491.572 507.153 491.708 507.75 491.708 508.45V513H490.126V508.688C490.126 507.997 489.953 507.47 489.608 507.106C489.262 506.733 488.791 506.546 488.194 506.546C487.596 506.546 487.12 506.733 486.766 507.106C486.42 507.47 486.248 507.997 486.248 508.688V513H484.652V505.286H486.248V506.168C486.509 505.851 486.84 505.603 487.242 505.426C487.652 505.249 488.086 505.16 488.544 505.16ZM495.605 506.588V510.858C495.605 511.147 495.671 511.357 495.801 511.488C495.941 511.609 496.175 511.67 496.501 511.67H497.481V513H496.221C495.503 513 494.952 512.832 494.569 512.496C494.187 512.16 493.995 511.614 493.995 510.858V506.588H493.085V505.286H493.995V503.368H495.605V505.286H497.481V506.588H495.605Z" fill="#8899A8"/>
<rect x="32.5" y="547.5" width="269" height="80" rx="14.5" fill="white" stroke="#F0F0F1"/>
<path d="M151.51 581.999C150.66 581.999 149.8 581.779 149.13 581.349L143.11 577.419C141.99 576.689 141.32 575.459 141.32 574.119C141.32 572.779 141.99 571.549 143.11 570.819L149.14 566.899C150.48 566.029 152.57 566.029 153.9 566.909L159.89 570.839C161 571.569 161.67 572.799 161.67 574.129C161.67 575.459 161 576.689 159.89 577.419L153.9 581.349C153.23 581.789 152.37 581.999 151.51 581.999ZM151.51 567.749C150.94 567.749 150.37 567.879 149.96 568.159L143.94 572.079C143.24 572.539 142.83 573.279 142.83 574.119C142.83 574.959 143.23 575.699 143.94 576.159L149.96 580.089C150.79 580.629 152.25 580.629 153.08 580.089L159.07 576.159C159.77 575.699 160.17 574.959 160.17 574.119C160.17 573.279 159.77 572.539 159.07 572.079L153.08 568.149C152.66 567.889 152.09 567.749 151.51 567.749Z" fill="#6B7280"/>
<path d="M151.5 587.75C151.06 587.75 150.61 587.69 150.25 587.57L147.06 586.51C145.55 586.01 144.36 584.36 144.37 582.77L144.38 578.08C144.38 577.67 144.72 577.33 145.13 577.33C145.54 577.33 145.88 577.67 145.88 578.08L145.87 582.77C145.87 583.71 146.65 584.79 147.54 585.09L150.73 586.15C151.13 586.28 151.87 586.28 152.27 586.15L155.46 585.09C156.35 584.79 157.13 583.71 157.13 582.78V578.14C157.13 577.73 157.47 577.39 157.88 577.39C158.29 577.39 158.63 577.73 158.63 578.14V582.78C158.63 584.37 157.45 586.01 155.94 586.52L152.75 587.58C152.39 587.69 151.94 587.75 151.5 587.75Z" fill="#6B7280"/>
<path d="M160.9 580.75C160.49 580.75 160.15 580.41 160.15 580V574C160.15 573.59 160.49 573.25 160.9 573.25C161.31 573.25 161.65 573.59 161.65 574V580C161.65 580.41 161.31 580.75 160.9 580.75Z" fill="#6B7280"/>
<path d="M177.136 572.112C177.216 570.512 177.776 569.28 178.816 568.416C179.872 567.536 181.256 567.096 182.968 567.096C184.136 567.096 185.136 567.304 185.968 567.72C186.8 568.12 187.424 568.672 187.84 569.376C188.272 570.064 188.488 570.848 188.488 571.728C188.488 572.736 188.224 573.592 187.696 574.296C187.184 574.984 186.568 575.448 185.848 575.688V575.784C186.776 576.072 187.496 576.584 188.008 577.32C188.536 578.056 188.8 579 188.8 580.152C188.8 581.112 188.576 581.968 188.128 582.72C187.696 583.472 187.048 584.064 186.184 584.496C185.336 584.912 184.312 585.12 183.112 585.12C181.304 585.12 179.832 584.664 178.696 583.752C177.56 582.84 176.96 581.496 176.896 579.72H180.16C180.192 580.504 180.456 581.136 180.952 581.616C181.464 582.08 182.16 582.312 183.04 582.312C183.856 582.312 184.48 582.088 184.912 581.64C185.36 581.176 185.584 580.584 185.584 579.864C185.584 578.904 185.28 578.216 184.672 577.8C184.064 577.384 183.12 577.176 181.84 577.176H181.144V574.416H181.84C184.112 574.416 185.248 573.656 185.248 572.136C185.248 571.448 185.04 570.912 184.624 570.528C184.224 570.144 183.64 569.952 182.872 569.952C182.12 569.952 181.536 570.16 181.12 570.576C180.72 570.976 180.488 571.488 180.424 572.112H177.136Z" fill="#6B7280"/>
<path d="M139.988 608.712H143.278V610H138.392V600.27H139.988V608.712ZM151.683 605.954C151.683 606.243 151.664 606.505 151.627 606.738H145.733C145.779 607.354 146.008 607.849 146.419 608.222C146.829 608.595 147.333 608.782 147.931 608.782C148.789 608.782 149.396 608.423 149.751 607.704H151.472C151.239 608.413 150.815 608.997 150.199 609.454C149.592 609.902 148.836 610.126 147.931 610.126C147.193 610.126 146.531 609.963 145.943 609.636C145.364 609.3 144.907 608.833 144.571 608.236C144.244 607.629 144.081 606.929 144.081 606.136C144.081 605.343 144.239 604.647 144.557 604.05C144.883 603.443 145.336 602.977 145.915 602.65C146.503 602.323 147.175 602.16 147.931 602.16C148.659 602.16 149.307 602.319 149.877 602.636C150.446 602.953 150.889 603.401 151.207 603.98C151.524 604.549 151.683 605.207 151.683 605.954ZM150.017 605.45C150.007 604.862 149.797 604.391 149.387 604.036C148.976 603.681 148.467 603.504 147.861 603.504C147.31 603.504 146.839 603.681 146.447 604.036C146.055 604.381 145.821 604.853 145.747 605.45H150.017ZM156.053 610.126C155.446 610.126 154.9 610.019 154.415 609.804C153.939 609.58 153.561 609.281 153.281 608.908C153.001 608.525 152.852 608.101 152.833 607.634H154.485C154.513 607.961 154.667 608.236 154.947 608.46C155.236 608.675 155.596 608.782 156.025 608.782C156.473 608.782 156.818 608.698 157.061 608.53C157.313 608.353 157.439 608.129 157.439 607.858C157.439 607.569 157.299 607.354 157.019 607.214C156.748 607.074 156.314 606.92 155.717 606.752C155.138 606.593 154.667 606.439 154.303 606.29C153.939 606.141 153.622 605.912 153.351 605.604C153.09 605.296 152.959 604.89 152.959 604.386C152.959 603.975 153.08 603.602 153.323 603.266C153.566 602.921 153.911 602.65 154.359 602.454C154.816 602.258 155.339 602.16 155.927 602.16C156.804 602.16 157.509 602.384 158.041 602.832C158.582 603.271 158.872 603.873 158.909 604.638H157.313C157.285 604.293 157.145 604.017 156.893 603.812C156.641 603.607 156.3 603.504 155.871 603.504C155.451 603.504 155.129 603.583 154.905 603.742C154.681 603.901 154.569 604.111 154.569 604.372C154.569 604.577 154.644 604.75 154.793 604.89C154.942 605.03 155.124 605.142 155.339 605.226C155.554 605.301 155.871 605.399 156.291 605.52C156.851 605.669 157.308 605.823 157.663 605.982C158.027 606.131 158.34 606.355 158.601 606.654C158.862 606.953 158.998 607.349 159.007 607.844C159.007 608.283 158.886 608.675 158.643 609.02C158.4 609.365 158.055 609.636 157.607 609.832C157.168 610.028 156.65 610.126 156.053 610.126ZM163.532 610.126C162.925 610.126 162.379 610.019 161.894 609.804C161.418 609.58 161.04 609.281 160.76 608.908C160.48 608.525 160.33 608.101 160.312 607.634H161.964C161.992 607.961 162.146 608.236 162.426 608.46C162.715 608.675 163.074 608.782 163.504 608.782C163.952 608.782 164.297 608.698 164.54 608.53C164.792 608.353 164.918 608.129 164.918 607.858C164.918 607.569 164.778 607.354 164.498 607.214C164.227 607.074 163.793 606.92 163.196 606.752C162.617 606.593 162.146 606.439 161.782 606.29C161.418 606.141 161.1 605.912 160.83 605.604C160.568 605.296 160.438 604.89 160.438 604.386C160.438 603.975 160.559 603.602 160.802 603.266C161.044 602.921 161.39 602.65 161.838 602.454C162.295 602.258 162.818 602.16 163.406 602.16C164.283 602.16 164.988 602.384 165.52 602.832C166.061 603.271 166.35 603.873 166.388 604.638H164.792C164.764 604.293 164.624 604.017 164.372 603.812C164.12 603.607 163.779 603.504 163.35 603.504C162.93 603.504 162.608 603.583 162.384 603.742C162.16 603.901 162.048 604.111 162.048 604.372C162.048 604.577 162.122 604.75 162.272 604.89C162.421 605.03 162.603 605.142 162.818 605.226C163.032 605.301 163.35 605.399 163.77 605.52C164.33 605.669 164.787 605.823 165.142 605.982C165.506 606.131 165.818 606.355 166.08 606.654C166.341 606.953 166.476 607.349 166.486 607.844C166.486 608.283 166.364 608.675 166.122 609.02C165.879 609.365 165.534 609.636 165.086 609.832C164.647 610.028 164.129 610.126 163.532 610.126ZM171.556 610.126C170.828 610.126 170.17 609.963 169.582 609.636C168.994 609.3 168.532 608.833 168.196 608.236C167.86 607.629 167.692 606.929 167.692 606.136C167.692 605.352 167.865 604.657 168.21 604.05C168.555 603.443 169.027 602.977 169.624 602.65C170.221 602.323 170.889 602.16 171.626 602.16C172.363 602.16 173.031 602.323 173.628 602.65C174.225 602.977 174.697 603.443 175.042 604.05C175.387 604.657 175.56 605.352 175.56 606.136C175.56 606.92 175.383 607.615 175.028 608.222C174.673 608.829 174.188 609.3 173.572 609.636C172.965 609.963 172.293 610.126 171.556 610.126ZM171.556 608.74C171.967 608.74 172.349 608.642 172.704 608.446C173.068 608.25 173.362 607.956 173.586 607.564C173.81 607.172 173.922 606.696 173.922 606.136C173.922 605.576 173.815 605.105 173.6 604.722C173.385 604.33 173.101 604.036 172.746 603.84C172.391 603.644 172.009 603.546 171.598 603.546C171.187 603.546 170.805 603.644 170.45 603.84C170.105 604.036 169.829 604.33 169.624 604.722C169.419 605.105 169.316 605.576 169.316 606.136C169.316 606.967 169.526 607.611 169.946 608.068C170.375 608.516 170.912 608.74 171.556 608.74ZM181.03 602.16C181.637 602.16 182.178 602.286 182.654 602.538C183.139 602.79 183.517 603.163 183.788 603.658C184.059 604.153 184.194 604.75 184.194 605.45V610H182.612V605.688C182.612 604.997 182.439 604.47 182.094 604.106C181.749 603.733 181.277 603.546 180.68 603.546C180.083 603.546 179.607 603.733 179.252 604.106C178.907 604.47 178.734 604.997 178.734 605.688V610H177.138V602.286H178.734V603.168C178.995 602.851 179.327 602.603 179.728 602.426C180.139 602.249 180.573 602.16 181.03 602.16ZM189.03 610.126C188.423 610.126 187.877 610.019 187.392 609.804C186.916 609.58 186.538 609.281 186.258 608.908C185.978 608.525 185.828 608.101 185.81 607.634H187.462C187.49 607.961 187.644 608.236 187.924 608.46C188.213 608.675 188.572 608.782 189.002 608.782C189.45 608.782 189.795 608.698 190.038 608.53C190.29 608.353 190.416 608.129 190.416 607.858C190.416 607.569 190.276 607.354 189.996 607.214C189.725 607.074 189.291 606.92 188.694 606.752C188.115 606.593 187.644 606.439 187.28 606.29C186.916 606.141 186.598 605.912 186.328 605.604C186.066 605.296 185.936 604.89 185.936 604.386C185.936 603.975 186.057 603.602 186.3 603.266C186.542 602.921 186.888 602.65 187.336 602.454C187.793 602.258 188.316 602.16 188.904 602.16C189.781 602.16 190.486 602.384 191.018 602.832C191.559 603.271 191.848 603.873 191.886 604.638H190.29C190.262 604.293 190.122 604.017 189.87 603.812C189.618 603.607 189.277 603.504 188.848 603.504C188.428 603.504 188.106 603.583 187.882 603.742C187.658 603.901 187.546 604.111 187.546 604.372C187.546 604.577 187.62 604.75 187.77 604.89C187.919 605.03 188.101 605.142 188.316 605.226C188.53 605.301 188.848 605.399 189.268 605.52C189.828 605.669 190.285 605.823 190.64 605.982C191.004 606.131 191.316 606.355 191.578 606.654C191.839 606.953 191.974 607.349 191.984 607.844C191.984 608.283 191.862 608.675 191.62 609.02C191.377 609.365 191.032 609.636 190.584 609.832C190.145 610.028 189.627 610.126 189.03 610.126Z" fill="#8899A8"/>
<rect x="318.5" y="547.5" width="269" height="80" rx="14.5" fill="white" stroke="#F0F0F1"/>
<path d="M442.01 581.999C441.16 581.999 440.3 581.779 439.63 581.349L433.61 577.419C432.49 576.689 431.82 575.459 431.82 574.119C431.82 572.779 432.49 571.549 433.61 570.819L439.64 566.899C440.98 566.029 443.07 566.029 444.4 566.909L450.39 570.839C451.5 571.569 452.17 572.799 452.17 574.129C452.17 575.459 451.5 576.689 450.39 577.419L444.4 581.349C443.73 581.789 442.87 581.999 442.01 581.999ZM442.01 567.749C441.44 567.749 440.87 567.879 440.46 568.159L434.44 572.079C433.74 572.539 433.33 573.279 433.33 574.119C433.33 574.959 433.73 575.699 434.44 576.159L440.46 580.089C441.29 580.629 442.75 580.629 443.58 580.089L449.57 576.159C450.27 575.699 450.67 574.959 450.67 574.119C450.67 573.279 450.27 572.539 449.57 572.079L443.58 568.149C443.16 567.889 442.59 567.749 442.01 567.749Z" fill="#6B7280"/>
<path d="M442 587.75C441.56 587.75 441.11 587.69 440.75 587.57L437.56 586.51C436.05 586.01 434.86 584.36 434.87 582.77L434.88 578.08C434.88 577.67 435.22 577.33 435.63 577.33C436.04 577.33 436.38 577.67 436.38 578.08L436.37 582.77C436.37 583.71 437.15 584.79 438.04 585.09L441.23 586.15C441.63 586.28 442.37 586.28 442.77 586.15L445.96 585.09C446.85 584.79 447.63 583.71 447.63 582.78V578.14C447.63 577.73 447.97 577.39 448.38 577.39C448.79 577.39 449.13 577.73 449.13 578.14V582.78C449.13 584.37 447.95 586.01 446.44 586.52L443.25 587.58C442.89 587.69 442.44 587.75 442 587.75Z" fill="#6B7280"/>
<path d="M451.4 580.75C450.99 580.75 450.65 580.41 450.65 580V574C450.65 573.59 450.99 573.25 451.4 573.25C451.81 573.25 452.15 573.59 452.15 574V580C452.15 580.41 451.81 580.75 451.4 580.75Z" fill="#6B7280"/>
<path d="M467.636 572.112C467.716 570.512 468.276 569.28 469.316 568.416C470.372 567.536 471.756 567.096 473.468 567.096C474.636 567.096 475.636 567.304 476.468 567.72C477.3 568.12 477.924 568.672 478.34 569.376C478.772 570.064 478.988 570.848 478.988 571.728C478.988 572.736 478.724 573.592 478.196 574.296C477.684 574.984 477.068 575.448 476.348 575.688V575.784C477.276 576.072 477.996 576.584 478.508 577.32C479.036 578.056 479.3 579 479.3 580.152C479.3 581.112 479.076 581.968 478.628 582.72C478.196 583.472 477.548 584.064 476.684 584.496C475.836 584.912 474.812 585.12 473.612 585.12C471.804 585.12 470.332 584.664 469.196 583.752C468.06 582.84 467.46 581.496 467.396 579.72H470.66C470.692 580.504 470.956 581.136 471.452 581.616C471.964 582.08 472.66 582.312 473.54 582.312C474.356 582.312 474.98 582.088 475.412 581.64C475.86 581.176 476.084 580.584 476.084 579.864C476.084 578.904 475.78 578.216 475.172 577.8C474.564 577.384 473.62 577.176 472.34 577.176H471.644V574.416H472.34C474.612 574.416 475.748 573.656 475.748 572.136C475.748 571.448 475.54 570.912 475.124 570.528C474.724 570.144 474.14 569.952 473.372 569.952C472.62 569.952 472.036 570.16 471.62 570.576C471.22 570.976 470.988 571.488 470.924 572.112H467.636Z" fill="#6B7280"/>
<path d="M415.953 605.114C415.953 604.162 416.172 603.308 416.611 602.552C417.059 601.796 417.661 601.208 418.417 600.788C419.182 600.359 420.017 600.144 420.923 600.144C421.959 600.144 422.878 600.401 423.681 600.914C424.493 601.418 425.081 602.137 425.445 603.07H423.527C423.275 602.557 422.925 602.174 422.477 601.922C422.029 601.67 421.511 601.544 420.923 601.544C420.279 601.544 419.705 601.689 419.201 601.978C418.697 602.267 418.3 602.683 418.011 603.224C417.731 603.765 417.591 604.395 417.591 605.114C417.591 605.833 417.731 606.463 418.011 607.004C418.3 607.545 418.697 607.965 419.201 608.264C419.705 608.553 420.279 608.698 420.923 608.698C421.511 608.698 422.029 608.572 422.477 608.32C422.925 608.068 423.275 607.685 423.527 607.172H425.445C425.081 608.105 424.493 608.824 423.681 609.328C422.878 609.832 421.959 610.084 420.923 610.084C420.008 610.084 419.173 609.874 418.417 609.454C417.661 609.025 417.059 608.432 416.611 607.676C416.172 606.92 415.953 606.066 415.953 605.114ZM431.303 602.16C431.891 602.16 432.413 602.286 432.871 602.538C433.337 602.79 433.701 603.163 433.963 603.658C434.233 604.153 434.369 604.75 434.369 605.45V610H432.787V605.688C432.787 604.997 432.614 604.47 432.269 604.106C431.923 603.733 431.452 603.546 430.855 603.546C430.257 603.546 429.781 603.733 429.427 604.106C429.081 604.47 428.909 604.997 428.909 605.688V610H427.313V599.64H428.909V603.182C429.179 602.855 429.52 602.603 429.931 602.426C430.351 602.249 430.808 602.16 431.303 602.16ZM435.872 606.108C435.872 605.333 436.031 604.647 436.348 604.05C436.675 603.453 437.114 602.991 437.664 602.664C438.224 602.328 438.84 602.16 439.512 602.16C440.119 602.16 440.646 602.281 441.094 602.524C441.552 602.757 441.916 603.051 442.186 603.406V602.286H443.796V610H442.186V608.852C441.916 609.216 441.547 609.519 441.08 609.762C440.614 610.005 440.082 610.126 439.484 610.126C438.822 610.126 438.215 609.958 437.664 609.622C437.114 609.277 436.675 608.801 436.348 608.194C436.031 607.578 435.872 606.883 435.872 606.108ZM442.186 606.136C442.186 605.604 442.074 605.142 441.85 604.75C441.636 604.358 441.351 604.059 440.996 603.854C440.642 603.649 440.259 603.546 439.848 603.546C439.438 603.546 439.055 603.649 438.7 603.854C438.346 604.05 438.056 604.344 437.832 604.736C437.618 605.119 437.51 605.576 437.51 606.108C437.51 606.64 437.618 607.107 437.832 607.508C438.056 607.909 438.346 608.217 438.7 608.432C439.064 608.637 439.447 608.74 439.848 608.74C440.259 608.74 440.642 608.637 440.996 608.432C441.351 608.227 441.636 607.928 441.85 607.536C442.074 607.135 442.186 606.668 442.186 606.136ZM447.489 599.64V610H445.893V599.64H447.489ZM451.18 599.64V610H449.584V599.64H451.18ZM460.346 605.954C460.346 606.243 460.327 606.505 460.29 606.738H454.396C454.442 607.354 454.671 607.849 455.082 608.222C455.492 608.595 455.996 608.782 456.594 608.782C457.452 608.782 458.059 608.423 458.414 607.704H460.136C459.902 608.413 459.478 608.997 458.862 609.454C458.255 609.902 457.499 610.126 456.594 610.126C455.856 610.126 455.194 609.963 454.606 609.636C454.027 609.3 453.57 608.833 453.234 608.236C452.907 607.629 452.744 606.929 452.744 606.136C452.744 605.343 452.902 604.647 453.22 604.05C453.546 603.443 453.999 602.977 454.578 602.65C455.166 602.323 455.838 602.16 456.594 602.16C457.322 602.16 457.97 602.319 458.54 602.636C459.109 602.953 459.552 603.401 459.87 603.98C460.187 604.549 460.346 605.207 460.346 605.954ZM458.68 605.45C458.67 604.862 458.46 604.391 458.05 604.036C457.639 603.681 457.13 603.504 456.524 603.504C455.973 603.504 455.502 603.681 455.11 604.036C454.718 604.381 454.484 604.853 454.41 605.45H458.68ZM465.808 602.16C466.415 602.16 466.956 602.286 467.432 602.538C467.918 602.79 468.296 603.163 468.566 603.658C468.837 604.153 468.972 604.75 468.972 605.45V610H467.39V605.688C467.39 604.997 467.218 604.47 466.872 604.106C466.527 603.733 466.056 603.546 465.458 603.546C464.861 603.546 464.385 603.733 464.03 604.106C463.685 604.47 463.512 604.997 463.512 605.688V610H461.916V602.286H463.512V603.168C463.774 602.851 464.105 602.603 464.506 602.426C464.917 602.249 465.351 602.16 465.808 602.16ZM474.116 602.16C474.713 602.16 475.241 602.281 475.698 602.524C476.165 602.757 476.529 603.051 476.79 603.406V602.286H478.4V610.126C478.4 610.835 478.251 611.465 477.952 612.016C477.653 612.576 477.219 613.015 476.65 613.332C476.09 613.649 475.418 613.808 474.634 613.808C473.589 613.808 472.721 613.561 472.03 613.066C471.339 612.581 470.947 611.918 470.854 611.078H472.436C472.557 611.479 472.814 611.801 473.206 612.044C473.607 612.296 474.083 612.422 474.634 612.422C475.278 612.422 475.796 612.226 476.188 611.834C476.589 611.442 476.79 610.873 476.79 610.126V608.838C476.519 609.202 476.151 609.51 475.684 609.762C475.227 610.005 474.704 610.126 474.116 610.126C473.444 610.126 472.828 609.958 472.268 609.622C471.717 609.277 471.279 608.801 470.952 608.194C470.635 607.578 470.476 606.883 470.476 606.108C470.476 605.333 470.635 604.647 470.952 604.05C471.279 603.453 471.717 602.991 472.268 602.664C472.828 602.328 473.444 602.16 474.116 602.16ZM476.79 606.136C476.79 605.604 476.678 605.142 476.454 604.75C476.239 604.358 475.955 604.059 475.6 603.854C475.245 603.649 474.863 603.546 474.452 603.546C474.041 603.546 473.659 603.649 473.304 603.854C472.949 604.05 472.66 604.344 472.436 604.736C472.221 605.119 472.114 605.576 472.114 606.108C472.114 606.64 472.221 607.107 472.436 607.508C472.66 607.909 472.949 608.217 473.304 608.432C473.668 608.637 474.051 608.74 474.452 608.74C474.863 608.74 475.245 608.637 475.6 608.432C475.955 608.227 476.239 607.928 476.454 607.536C476.678 607.135 476.79 606.668 476.79 606.136ZM487.566 605.954C487.566 606.243 487.548 606.505 487.51 606.738H481.616C481.663 607.354 481.892 607.849 482.302 608.222C482.713 608.595 483.217 608.782 483.814 608.782C484.673 608.782 485.28 608.423 485.634 607.704H487.356C487.123 608.413 486.698 608.997 486.082 609.454C485.476 609.902 484.72 610.126 483.814 610.126C483.077 610.126 482.414 609.963 481.826 609.636C481.248 609.3 480.79 608.833 480.454 608.236C480.128 607.629 479.964 606.929 479.964 606.136C479.964 605.343 480.123 604.647 480.44 604.05C480.767 603.443 481.22 602.977 481.798 602.65C482.386 602.323 483.058 602.16 483.814 602.16C484.542 602.16 485.191 602.319 485.76 602.636C486.33 602.953 486.773 603.401 487.09 603.98C487.408 604.549 487.566 605.207 487.566 605.954ZM485.9 605.45C485.891 604.862 485.681 604.391 485.27 604.036C484.86 603.681 484.351 603.504 483.744 603.504C483.194 603.504 482.722 603.681 482.33 604.036C481.938 604.381 481.705 604.853 481.63 605.45H485.9ZM491.937 610.126C491.33 610.126 490.784 610.019 490.299 609.804C489.823 609.58 489.445 609.281 489.165 608.908C488.885 608.525 488.736 608.101 488.717 607.634H490.369C490.397 607.961 490.551 608.236 490.831 608.46C491.12 608.675 491.48 608.782 491.909 608.782C492.357 608.782 492.702 608.698 492.945 608.53C493.197 608.353 493.323 608.129 493.323 607.858C493.323 607.569 493.183 607.354 492.903 607.214C492.632 607.074 492.198 606.92 491.601 606.752C491.022 606.593 490.551 606.439 490.187 606.29C489.823 606.141 489.506 605.912 489.235 605.604C488.974 605.296 488.843 604.89 488.843 604.386C488.843 603.975 488.964 603.602 489.207 603.266C489.45 602.921 489.795 602.65 490.243 602.454C490.7 602.258 491.223 602.16 491.811 602.16C492.688 602.16 493.393 602.384 493.925 602.832C494.466 603.271 494.756 603.873 494.793 604.638H493.197C493.169 604.293 493.029 604.017 492.777 603.812C492.525 603.607 492.184 603.504 491.755 603.504C491.335 603.504 491.013 603.583 490.789 603.742C490.565 603.901 490.453 604.111 490.453 604.372C490.453 604.577 490.528 604.75 490.677 604.89C490.826 605.03 491.008 605.142 491.223 605.226C491.438 605.301 491.755 605.399 492.175 605.52C492.735 605.669 493.192 605.823 493.547 605.982C493.911 606.131 494.224 606.355 494.485 606.654C494.746 606.953 494.882 607.349 494.891 607.844C494.891 608.283 494.77 608.675 494.527 609.02C494.284 609.365 493.939 609.636 493.491 609.832C493.052 610.028 492.534 610.126 491.937 610.126Z" fill="#8899A8"/>
<line x1="92" y1="392.5" x2="588" y2="392.5" stroke="#E4EBF1"/>
<line x1="91.5" y1="393" x2="91.5" y2="102" stroke="#E4EBF1"/>
<line x1="587.5" y1="393" x2="587.5" y2="102" stroke="#E4EBF1"/>
<line x1="92" y1="102.5" x2="588" y2="102.5" stroke="#E4EBF1"/>
<path d="M35.6223 102.736C35.0996 102.531 34.6983 102.232 34.4183 101.84C34.1383 101.448 33.9983 100.972 33.9983 100.412C33.9983 99.908 34.1243 99.4553 34.3763 99.054C34.6283 98.6433 35.0016 98.3213 35.4963 98.088C36.0003 97.8453 36.6069 97.724 37.3163 97.724C38.0256 97.724 38.6276 97.8453 39.1223 98.088C39.6263 98.3213 40.0043 98.6433 40.2563 99.054C40.5176 99.4553 40.6483 99.908 40.6483 100.412C40.6483 100.953 40.5036 101.429 40.2143 101.84C39.9249 102.241 39.5283 102.54 39.0243 102.736C39.6029 102.913 40.0603 103.226 40.3963 103.674C40.7416 104.113 40.9143 104.645 40.9143 105.27C40.9143 105.877 40.7649 106.409 40.4663 106.866C40.1676 107.314 39.7429 107.664 39.1923 107.916C38.6509 108.159 38.0256 108.28 37.3163 108.28C36.6069 108.28 35.9816 108.159 35.4403 107.916C34.9083 107.664 34.4929 107.314 34.1943 106.866C33.8956 106.409 33.7463 105.877 33.7463 105.27C33.7463 104.645 33.9143 104.108 34.2503 103.66C34.5862 103.212 35.0436 102.904 35.6223 102.736ZM39.4163 100.566C39.4163 99.9967 39.2296 99.558 38.8563 99.25C38.4829 98.942 37.9696 98.788 37.3163 98.788C36.6723 98.788 36.1636 98.942 35.7903 99.25C35.4169 99.558 35.2303 100.001 35.2303 100.58C35.2303 101.103 35.4216 101.523 35.8043 101.84C36.1963 102.157 36.7003 102.316 37.3163 102.316C37.9416 102.316 38.4456 102.157 38.8283 101.84C39.2203 101.513 39.4163 101.089 39.4163 100.566ZM37.3163 103.296C36.6256 103.296 36.0609 103.459 35.6223 103.786C35.1836 104.103 34.9642 104.584 34.9642 105.228C34.9642 105.825 35.1743 106.306 35.5943 106.67C36.0236 107.034 36.5976 107.216 37.3163 107.216C38.0349 107.216 38.6043 107.034 39.0243 106.67C39.4443 106.306 39.6543 105.825 39.6543 105.228C39.6543 104.603 39.4396 104.127 39.0103 103.8C38.5809 103.464 38.0163 103.296 37.3163 103.296ZM42.2703 99.04V97.878H44.9023V108H43.6143V99.04H42.2703ZM52.6207 102.33V103.408H47.0347V102.33H52.6207ZM54.4656 99.04V97.878H57.0976V108H55.8096V99.04H54.4656ZM59.286 102.834C59.286 101.229 59.5473 99.978 60.07 99.082C60.5926 98.1767 61.5073 97.724 62.814 97.724C64.1113 97.724 65.0213 98.1767 65.544 99.082C66.0666 99.978 66.328 101.229 66.328 102.834C66.328 104.467 66.0666 105.737 65.544 106.642C65.0213 107.547 64.1113 108 62.814 108C61.5073 108 60.5926 107.547 60.07 106.642C59.5473 105.737 59.286 104.467 59.286 102.834ZM65.068 102.834C65.068 102.022 65.012 101.336 64.9 100.776C64.7973 100.207 64.578 99.7493 64.242 99.404C63.9153 99.0587 63.4393 98.886 62.814 98.886C62.1793 98.886 61.694 99.0587 61.358 99.404C61.0313 99.7493 60.812 100.207 60.7 100.776C60.5973 101.336 60.546 102.022 60.546 102.834C60.546 103.674 60.5973 104.379 60.7 104.948C60.812 105.517 61.0313 105.975 61.358 106.32C61.694 106.665 62.1793 106.838 62.814 106.838C63.4393 106.838 63.9153 106.665 64.242 106.32C64.578 105.975 64.7973 105.517 64.9 104.948C65.012 104.379 65.068 103.674 65.068 102.834ZM68.077 102.834C68.077 101.229 68.3383 99.978 68.861 99.082C69.3837 98.1767 70.2983 97.724 71.605 97.724C72.9023 97.724 73.8123 98.1767 74.335 99.082C74.8577 99.978 75.119 101.229 75.119 102.834C75.119 104.467 74.8577 105.737 74.335 106.642C73.8123 107.547 72.9023 108 71.605 108C70.2983 108 69.3837 107.547 68.861 106.642C68.3383 105.737 68.077 104.467 68.077 102.834ZM73.859 102.834C73.859 102.022 73.803 101.336 73.691 100.776C73.5883 100.207 73.369 99.7493 73.033 99.404C72.7063 99.0587 72.2303 98.886 71.605 98.886C70.9703 98.886 70.485 99.0587 70.149 99.404C69.8223 99.7493 69.603 100.207 69.491 100.776C69.3883 101.336 69.337 102.022 69.337 102.834C69.337 103.674 69.3883 104.379 69.491 104.948C69.603 105.517 69.8223 105.975 70.149 106.32C70.485 106.665 70.9703 106.838 71.605 106.838C72.2303 106.838 72.7063 106.665 73.033 106.32C73.369 105.975 73.5883 105.517 73.691 104.948C73.803 104.379 73.859 103.674 73.859 102.834Z" fill="#111928"/>
<line x1="92" y1="166.5" x2="588" y2="166.5" stroke="#E4EBF1"/>
<path d="M43.8049 164.286C43.5996 163.25 42.9603 162.732 41.8869 162.732C41.0563 162.732 40.4356 163.054 40.0249 163.698C39.6143 164.333 39.4136 165.383 39.4229 166.848C39.6376 166.363 39.9923 165.985 40.4869 165.714C40.9909 165.434 41.5509 165.294 42.1669 165.294C43.1283 165.294 43.8936 165.593 44.4629 166.19C45.0416 166.787 45.3309 167.613 45.3309 168.668C45.3309 169.303 45.2049 169.872 44.9529 170.376C44.7103 170.88 44.3369 171.281 43.8329 171.58C43.3383 171.879 42.7363 172.028 42.0269 172.028C41.0656 172.028 40.3143 171.813 39.7729 171.384C39.2316 170.955 38.8536 170.362 38.6389 169.606C38.4243 168.85 38.3169 167.917 38.3169 166.806C38.3169 163.381 39.5116 161.668 41.9009 161.668C42.8156 161.668 43.5343 161.915 44.0569 162.41C44.5796 162.905 44.8876 163.53 44.9809 164.286H43.8049ZM41.9009 166.372C41.4996 166.372 41.1216 166.456 40.7669 166.624C40.4123 166.783 40.1229 167.03 39.8989 167.366C39.6843 167.693 39.5769 168.094 39.5769 168.57C39.5769 169.279 39.7823 169.858 40.1929 170.306C40.6036 170.745 41.1916 170.964 41.9569 170.964C42.6103 170.964 43.1283 170.763 43.5109 170.362C43.9029 169.951 44.0989 169.401 44.0989 168.71C44.0989 167.982 43.9123 167.413 43.5389 167.002C43.1656 166.582 42.6196 166.372 41.9009 166.372ZM46.7136 163.04V161.878H49.3456V172H48.0576V163.04H46.7136ZM57.064 166.33V167.408H51.478V166.33H57.064ZM61.093 166.736C60.5703 166.531 60.169 166.232 59.889 165.84C59.609 165.448 59.469 164.972 59.469 164.412C59.469 163.908 59.595 163.455 59.847 163.054C60.099 162.643 60.4723 162.321 60.967 162.088C61.471 161.845 62.0776 161.724 62.787 161.724C63.4963 161.724 64.0983 161.845 64.593 162.088C65.097 162.321 65.475 162.643 65.727 163.054C65.9883 163.455 66.119 163.908 66.119 164.412C66.119 164.953 65.9743 165.429 65.685 165.84C65.3956 166.241 64.999 166.54 64.495 166.736C65.0736 166.913 65.531 167.226 65.867 167.674C66.2123 168.113 66.385 168.645 66.385 169.27C66.385 169.877 66.2356 170.409 65.937 170.866C65.6383 171.314 65.2136 171.664 64.663 171.916C64.1216 172.159 63.4963 172.28 62.787 172.28C62.0776 172.28 61.4523 172.159 60.911 171.916C60.379 171.664 59.9636 171.314 59.665 170.866C59.3663 170.409 59.217 169.877 59.217 169.27C59.217 168.645 59.385 168.108 59.721 167.66C60.057 167.212 60.5143 166.904 61.093 166.736ZM64.887 164.566C64.887 163.997 64.7003 163.558 64.327 163.25C63.9536 162.942 63.4403 162.788 62.787 162.788C62.143 162.788 61.6343 162.942 61.261 163.25C60.8876 163.558 60.701 164.001 60.701 164.58C60.701 165.103 60.8923 165.523 61.275 165.84C61.667 166.157 62.171 166.316 62.787 166.316C63.4123 166.316 63.9163 166.157 64.299 165.84C64.691 165.513 64.887 165.089 64.887 164.566ZM62.787 167.296C62.0963 167.296 61.5316 167.459 61.093 167.786C60.6543 168.103 60.435 168.584 60.435 169.228C60.435 169.825 60.645 170.306 61.065 170.67C61.4943 171.034 62.0683 171.216 62.787 171.216C63.5056 171.216 64.075 171.034 64.495 170.67C64.915 170.306 65.125 169.825 65.125 169.228C65.125 168.603 64.9103 168.127 64.481 167.8C64.0516 167.464 63.487 167.296 62.787 167.296ZM68.077 166.834C68.077 165.229 68.3383 163.978 68.861 163.082C69.3837 162.177 70.2983 161.724 71.605 161.724C72.9023 161.724 73.8123 162.177 74.335 163.082C74.8577 163.978 75.119 165.229 75.119 166.834C75.119 168.467 74.8577 169.737 74.335 170.642C73.8123 171.547 72.9023 172 71.605 172C70.2983 172 69.3837 171.547 68.861 170.642C68.3383 169.737 68.077 168.467 68.077 166.834ZM73.859 166.834C73.859 166.022 73.803 165.336 73.691 164.776C73.5883 164.207 73.369 163.749 73.033 163.404C72.7063 163.059 72.2303 162.886 71.605 162.886C70.9703 162.886 70.485 163.059 70.149 163.404C69.8223 163.749 69.603 164.207 69.491 164.776C69.3883 165.336 69.337 166.022 69.337 166.834C69.337 167.674 69.3883 168.379 69.491 168.948C69.603 169.517 69.8223 169.975 70.149 170.32C70.485 170.665 70.9703 170.838 71.605 170.838C72.2303 170.838 72.7063 170.665 73.033 170.32C73.369 169.975 73.5883 169.517 73.691 168.948C73.803 168.379 73.859 167.674 73.859 166.834Z" fill="#111928"/>
<line x1="92" y1="230.5" x2="588" y2="230.5" stroke="#E4EBF1"/>
<path d="M37.8823 233.746V232.78L42.7963 225.976H44.3223V232.64H45.7223V233.746H44.3223V236H43.0623V233.746H37.8823ZM43.1183 227.306L39.3523 232.64H43.1183V227.306ZM46.659 227.04V225.878H49.291V236H48.003V227.04H46.659ZM57.0093 230.33V231.408H51.4233V230.33H57.0093ZM64.8323 228.286C64.6269 227.25 63.9876 226.732 62.9143 226.732C62.0836 226.732 61.4629 227.054 61.0523 227.698C60.6416 228.333 60.4409 229.383 60.4503 230.848C60.6649 230.363 61.0196 229.985 61.5143 229.714C62.0183 229.434 62.5783 229.294 63.1943 229.294C64.1556 229.294 64.9209 229.593 65.4903 230.19C66.0689 230.787 66.3583 231.613 66.3583 232.668C66.3583 233.303 66.2323 233.872 65.9803 234.376C65.7376 234.88 65.3643 235.281 64.8603 235.58C64.3656 235.879 63.7636 236.028 63.0543 236.028C62.0929 236.028 61.3416 235.813 60.8003 235.384C60.2589 234.955 59.8809 234.362 59.6663 233.606C59.4516 232.85 59.3443 231.917 59.3443 230.806C59.3443 227.381 60.5389 225.668 62.9283 225.668C63.8429 225.668 64.5616 225.915 65.0843 226.41C65.6069 226.905 65.9149 227.53 66.0083 228.286H64.8323ZM62.9283 230.372C62.5269 230.372 62.1489 230.456 61.7943 230.624C61.4396 230.783 61.1503 231.03 60.9263 231.366C60.7116 231.693 60.6043 232.094 60.6043 232.57C60.6043 233.279 60.8096 233.858 61.2203 234.306C61.6309 234.745 62.2189 234.964 62.9843 234.964C63.6376 234.964 64.1556 234.763 64.5383 234.362C64.9303 233.951 65.1263 233.401 65.1263 232.71C65.1263 231.982 64.9396 231.413 64.5663 231.002C64.1929 230.582 63.6469 230.372 62.9283 230.372ZM68.077 230.834C68.077 229.229 68.3383 227.978 68.861 227.082C69.3837 226.177 70.2983 225.724 71.605 225.724C72.9023 225.724 73.8123 226.177 74.335 227.082C74.8577 227.978 75.119 229.229 75.119 230.834C75.119 232.467 74.8577 233.737 74.335 234.642C73.8123 235.547 72.9023 236 71.605 236C70.2983 236 69.3837 235.547 68.861 234.642C68.3383 233.737 68.077 232.467 68.077 230.834ZM73.859 230.834C73.859 230.022 73.803 229.336 73.691 228.776C73.5883 228.207 73.369 227.749 73.033 227.404C72.7063 227.059 72.2303 226.886 71.605 226.886C70.9703 226.886 70.485 227.059 70.149 227.404C69.8223 227.749 69.603 228.207 69.491 228.776C69.3883 229.336 69.337 230.022 69.337 230.834C69.337 231.674 69.3883 232.379 69.491 232.948C69.603 233.517 69.8223 233.975 70.149 234.32C70.485 234.665 70.9703 234.838 71.605 234.838C72.2303 234.838 72.7063 234.665 73.033 234.32C73.369 233.975 73.5883 233.517 73.691 232.948C73.803 232.379 73.859 231.674 73.859 230.834Z" fill="#111928"/>
<line x1="92" y1="294.5" x2="588" y2="294.5" stroke="#E4EBF1"/>
<path d="M38.8703 298.978C40.0556 298.026 40.9843 297.247 41.6562 296.64C42.3283 296.024 42.8929 295.385 43.3503 294.722C43.8169 294.05 44.0503 293.392 44.0503 292.748C44.0503 292.141 43.9009 291.665 43.6023 291.32C43.3129 290.965 42.8416 290.788 42.1883 290.788C41.5536 290.788 41.0589 290.989 40.7043 291.39C40.3589 291.782 40.1723 292.309 40.1443 292.972H38.9123C38.9496 291.927 39.2669 291.119 39.8643 290.55C40.4616 289.981 41.2316 289.696 42.1743 289.696C43.1356 289.696 43.8963 289.962 44.4563 290.494C45.0256 291.026 45.3103 291.759 45.3103 292.692C45.3103 293.467 45.0769 294.223 44.6103 294.96C44.1529 295.688 43.6303 296.332 43.0423 296.892C42.4543 297.443 41.7029 298.087 40.7883 298.824H45.6043V299.888H38.8703V298.978ZM46.741 291.04V289.878H49.373V300H48.085V291.04H46.741ZM57.0914 294.33V295.408H51.5054V294.33H57.0914ZM58.9643 297.746V296.78L63.8783 289.976H65.4043V296.64H66.8043V297.746H65.4043V300H64.1443V297.746H58.9643ZM64.2003 291.306L60.4343 296.64H64.2003V291.306ZM68.077 294.834C68.077 293.229 68.3383 291.978 68.861 291.082C69.3837 290.177 70.2983 289.724 71.605 289.724C72.9023 289.724 73.8123 290.177 74.335 291.082C74.8577 291.978 75.119 293.229 75.119 294.834C75.119 296.467 74.8577 297.737 74.335 298.642C73.8123 299.547 72.9023 300 71.605 300C70.2983 300 69.3837 299.547 68.861 298.642C68.3383 297.737 68.077 296.467 68.077 294.834ZM73.859 294.834C73.859 294.022 73.803 293.336 73.691 292.776C73.5883 292.207 73.369 291.749 73.033 291.404C72.7063 291.059 72.2303 290.886 71.605 290.886C70.9703 290.886 70.485 291.059 70.149 291.404C69.8223 291.749 69.603 292.207 69.491 292.776C69.3883 293.336 69.337 294.022 69.337 294.834C69.337 295.674 69.3883 296.379 69.491 296.948C69.603 297.517 69.8223 297.975 70.149 298.32C70.485 298.665 70.9703 298.838 71.605 298.838C72.2303 298.838 72.7063 298.665 73.033 298.32C73.369 297.975 73.5883 297.517 73.691 296.948C73.803 296.379 73.859 295.674 73.859 294.834Z" fill="#111928"/>
<line x1="92" y1="358.5" x2="588" y2="358.5" stroke="#E4EBF1"/>
<path d="M43.5223 358.834C43.5223 357.229 43.7836 355.978 44.3063 355.082C44.829 354.177 45.7436 353.724 47.0503 353.724C48.3476 353.724 49.2576 354.177 49.7803 355.082C50.303 355.978 50.5643 357.229 50.5643 358.834C50.5643 360.467 50.303 361.737 49.7803 362.642C49.2576 363.547 48.3476 364 47.0503 364C45.7436 364 44.829 363.547 44.3063 362.642C43.7836 361.737 43.5223 360.467 43.5223 358.834ZM49.3043 358.834C49.3043 358.022 49.2483 357.336 49.1363 356.776C49.0336 356.207 48.8143 355.749 48.4783 355.404C48.1516 355.059 47.6756 354.886 47.0503 354.886C46.4156 354.886 45.9303 355.059 45.5943 355.404C45.2676 355.749 45.0483 356.207 44.9363 356.776C44.8336 357.336 44.7823 358.022 44.7823 358.834C44.7823 359.674 44.8336 360.379 44.9363 360.948C45.0483 361.517 45.2676 361.975 45.5943 362.32C45.9303 362.665 46.4156 362.838 47.0503 362.838C47.6756 362.838 48.1516 362.665 48.4783 362.32C48.8143 361.975 49.0336 361.517 49.1363 360.948C49.2483 360.379 49.3043 359.674 49.3043 358.834ZM57.8433 358.33V359.408H52.2573V358.33H57.8433ZM59.8703 362.978C61.0556 362.026 61.9843 361.247 62.6562 360.64C63.3283 360.024 63.8929 359.385 64.3503 358.722C64.8169 358.05 65.0503 357.392 65.0503 356.748C65.0503 356.141 64.9009 355.665 64.6023 355.32C64.3129 354.965 63.8416 354.788 63.1883 354.788C62.5536 354.788 62.0589 354.989 61.7043 355.39C61.3589 355.782 61.1723 356.309 61.1443 356.972H59.9123C59.9496 355.927 60.2669 355.119 60.8643 354.55C61.4616 353.981 62.2316 353.696 63.1743 353.696C64.1356 353.696 64.8963 353.962 65.4563 354.494C66.0256 355.026 66.3103 355.759 66.3103 356.692C66.3103 357.467 66.0769 358.223 65.6103 358.96C65.1529 359.688 64.6303 360.332 64.0423 360.892C63.4543 361.443 62.7029 362.087 61.7883 362.824H66.6043V363.888H59.8703V362.978ZM68.077 358.834C68.077 357.229 68.3383 355.978 68.861 355.082C69.3837 354.177 70.2983 353.724 71.605 353.724C72.9023 353.724 73.8123 354.177 74.335 355.082C74.8577 355.978 75.119 357.229 75.119 358.834C75.119 360.467 74.8577 361.737 74.335 362.642C73.8123 363.547 72.9023 364 71.605 364C70.2983 364 69.3837 363.547 68.861 362.642C68.3383 361.737 68.077 360.467 68.077 358.834ZM73.859 358.834C73.859 358.022 73.803 357.336 73.691 356.776C73.5883 356.207 73.369 355.749 73.033 355.404C72.7063 355.059 72.2303 354.886 71.605 354.886C70.9703 354.886 70.485 355.059 70.149 355.404C69.8223 355.749 69.603 356.207 69.491 356.776C69.3883 357.336 69.337 358.022 69.337 358.834C69.337 359.674 69.3883 360.379 69.491 360.948C69.603 361.517 69.8223 361.975 70.149 362.32C70.485 362.665 70.9703 362.838 71.605 362.838C72.2303 362.838 72.7063 362.665 73.033 362.32C73.369 361.975 73.5883 361.517 73.691 360.948C73.803 360.379 73.859 359.674 73.859 358.834Z" fill="#111928"/>
<path d="M114.25 418.296H110.758L110.158 420H108.73L111.718 411.648H113.302L116.29 420H114.85L114.25 418.296ZM113.866 417.18L112.51 413.304L111.142 417.18H113.866ZM120.925 413.28C121.445 413.28 121.909 413.388 122.317 413.604C122.733 413.82 123.057 414.14 123.289 414.564C123.521 414.988 123.637 415.5 123.637 416.1V420H122.281V416.304C122.281 415.712 122.133 415.26 121.837 414.948C121.541 414.628 121.137 414.468 120.625 414.468C120.113 414.468 119.705 414.628 119.401 414.948C119.105 415.26 118.957 415.712 118.957 416.304V420H117.589V413.388H118.957V414.144C119.181 413.872 119.465 413.66 119.809 413.508C120.161 413.356 120.533 413.28 120.925 413.28ZM128.718 413.28C129.238 413.28 129.702 413.388 130.11 413.604C130.526 413.82 130.85 414.14 131.082 414.564C131.314 414.988 131.43 415.5 131.43 416.1V420H130.074V416.304C130.074 415.712 129.926 415.26 129.63 414.948C129.334 414.628 128.93 414.468 128.418 414.468C127.906 414.468 127.498 414.628 127.194 414.948C126.898 415.26 126.75 415.712 126.75 416.304V420H125.382V413.388H126.75V414.144C126.974 413.872 127.258 413.66 127.602 413.508C127.954 413.356 128.326 413.28 128.718 413.28ZM132.719 416.664C132.719 416 132.855 415.412 133.127 414.9C133.407 414.388 133.783 413.992 134.255 413.712C134.735 413.424 135.263 413.28 135.839 413.28C136.359 413.28 136.811 413.384 137.195 413.592C137.587 413.792 137.899 414.044 138.131 414.348V413.388H139.511V420H138.131V419.016C137.899 419.328 137.583 419.588 137.183 419.796C136.783 420.004 136.327 420.108 135.815 420.108C135.247 420.108 134.727 419.964 134.255 419.676C133.783 419.38 133.407 418.972 133.127 418.452C132.855 417.924 132.719 417.328 132.719 416.664ZM138.131 416.688C138.131 416.232 138.035 415.836 137.843 415.5C137.659 415.164 137.415 414.908 137.111 414.732C136.807 414.556 136.479 414.468 136.127 414.468C135.775 414.468 135.447 414.556 135.143 414.732C134.839 414.9 134.591 415.152 134.399 415.488C134.215 415.816 134.123 416.208 134.123 416.664C134.123 417.12 134.215 417.52 134.399 417.864C134.591 418.208 134.839 418.472 135.143 418.656C135.455 418.832 135.783 418.92 136.127 418.92C136.479 418.92 136.807 418.832 137.111 418.656C137.415 418.48 137.659 418.224 137.843 417.888C138.035 417.544 138.131 417.144 138.131 416.688ZM142.676 411.12V420H141.308V411.12H142.676ZM150.424 413.388L146.368 423.108H144.952L146.296 419.892L143.692 413.388H145.216L147.076 418.428L149.008 413.388H150.424ZM153.053 414.504V418.164C153.053 418.412 153.109 418.592 153.221 418.704C153.341 418.808 153.541 418.86 153.821 418.86H154.661V420H153.581C152.965 420 152.493 419.856 152.165 419.568C151.837 419.28 151.673 418.812 151.673 418.164V414.504H150.893V413.388H151.673V411.744H153.053V413.388H154.661V414.504H153.053ZM156.617 412.512C156.369 412.512 156.161 412.428 155.993 412.26C155.825 412.092 155.741 411.884 155.741 411.636C155.741 411.388 155.825 411.18 155.993 411.012C156.161 410.844 156.369 410.76 156.617 410.76C156.857 410.76 157.061 410.844 157.229 411.012C157.397 411.18 157.481 411.388 157.481 411.636C157.481 411.884 157.397 412.092 157.229 412.26C157.061 412.428 156.857 412.512 156.617 412.512ZM157.289 413.388V420H155.921V413.388H157.289ZM158.63 416.688C158.63 416.008 158.766 415.412 159.038 414.9C159.318 414.38 159.702 413.98 160.19 413.7C160.678 413.42 161.238 413.28 161.87 413.28C162.67 413.28 163.33 413.472 163.85 413.856C164.378 414.232 164.734 414.772 164.918 415.476H163.442C163.322 415.148 163.13 414.892 162.866 414.708C162.602 414.524 162.27 414.432 161.87 414.432C161.31 414.432 160.862 414.632 160.526 415.032C160.198 415.424 160.034 415.976 160.034 416.688C160.034 417.4 160.198 417.956 160.526 418.356C160.862 418.756 161.31 418.956 161.87 418.956C162.662 418.956 163.186 418.608 163.442 417.912H164.918C164.726 418.584 164.366 419.12 163.838 419.52C163.31 419.912 162.654 420.108 161.87 420.108C161.238 420.108 160.678 419.968 160.19 419.688C159.702 419.4 159.318 419 159.038 418.488C158.766 417.968 158.63 417.368 158.63 416.688ZM165.825 416.664C165.825 416 165.961 415.412 166.233 414.9C166.513 414.388 166.889 413.992 167.361 413.712C167.841 413.424 168.369 413.28 168.945 413.28C169.465 413.28 169.917 413.384 170.301 413.592C170.693 413.792 171.005 414.044 171.237 414.348V413.388H172.617V420H171.237V419.016C171.005 419.328 170.689 419.588 170.289 419.796C169.889 420.004 169.433 420.108 168.921 420.108C168.353 420.108 167.833 419.964 167.361 419.676C166.889 419.38 166.513 418.972 166.233 418.452C165.961 417.924 165.825 417.328 165.825 416.664ZM171.237 416.688C171.237 416.232 171.141 415.836 170.949 415.5C170.765 415.164 170.521 414.908 170.217 414.732C169.913 414.556 169.585 414.468 169.233 414.468C168.881 414.468 168.553 414.556 168.249 414.732C167.945 414.9 167.697 415.152 167.505 415.488C167.321 415.816 167.229 416.208 167.229 416.664C167.229 417.12 167.321 417.52 167.505 417.864C167.697 418.208 167.945 418.472 168.249 418.656C168.561 418.832 168.889 418.92 169.233 418.92C169.585 418.92 169.913 418.832 170.217 418.656C170.521 418.48 170.765 418.224 170.949 417.888C171.141 417.544 171.237 417.144 171.237 416.688ZM175.782 411.12V420H174.414V411.12H175.782Z" fill="#374151"/>
<rect x="122" y="147" width="41" height="246" fill="#FDC5C5"/>
<rect x="122" y="207" width="41" height="186" fill="#C1F6DD"/>
<rect x="122" y="273" width="41" height="120" fill="#C1C8EB"/>
<path d="M209.171 411.66V412.776H206.951V420H205.583V412.776H203.351V411.66H209.171ZM211.924 414.348C212.124 414.012 212.388 413.752 212.716 413.568C213.052 413.376 213.448 413.28 213.904 413.28V414.696H213.556C213.02 414.696 212.612 414.832 212.332 415.104C212.06 415.376 211.924 415.848 211.924 416.52V420H210.556V413.388H211.924V414.348ZM221.15 413.388V420H219.782V419.22C219.566 419.492 219.282 419.708 218.93 419.868C218.586 420.02 218.218 420.096 217.826 420.096C217.306 420.096 216.838 419.988 216.422 419.772C216.014 419.556 215.69 419.236 215.45 418.812C215.218 418.388 215.102 417.876 215.102 417.276V413.388H216.458V417.072C216.458 417.664 216.606 418.12 216.902 418.44C217.198 418.752 217.602 418.908 218.114 418.908C218.626 418.908 219.03 418.752 219.326 418.44C219.63 418.12 219.782 417.664 219.782 417.072V413.388H221.15ZM229.015 416.532C229.015 416.78 228.999 417.004 228.967 417.204H223.915C223.955 417.732 224.151 418.156 224.503 418.476C224.855 418.796 225.287 418.956 225.799 418.956C226.535 418.956 227.055 418.648 227.359 418.032H228.835C228.635 418.64 228.271 419.14 227.743 419.532C227.223 419.916 226.575 420.108 225.799 420.108C225.167 420.108 224.599 419.968 224.095 419.688C223.599 419.4 223.207 419 222.919 418.488C222.639 417.968 222.499 417.368 222.499 416.688C222.499 416.008 222.635 415.412 222.907 414.9C223.187 414.38 223.575 413.98 224.071 413.7C224.575 413.42 225.151 413.28 225.799 413.28C226.423 413.28 226.979 413.416 227.467 413.688C227.955 413.96 228.335 414.344 228.607 414.84C228.879 415.328 229.015 415.892 229.015 416.532ZM227.587 416.1C227.579 415.596 227.399 415.192 227.047 414.888C226.695 414.584 226.259 414.432 225.739 414.432C225.267 414.432 224.863 414.584 224.527 414.888C224.191 415.184 223.991 415.588 223.927 416.1H227.587ZM237.282 420.084C236.506 420.084 235.79 419.904 235.134 419.544C234.486 419.176 233.97 418.668 233.586 418.02C233.21 417.364 233.022 416.628 233.022 415.812C233.022 414.996 233.21 414.264 233.586 413.616C233.97 412.968 234.486 412.464 235.134 412.104C235.79 411.736 236.506 411.552 237.282 411.552C238.066 411.552 238.782 411.736 239.43 412.104C240.086 412.464 240.602 412.968 240.978 413.616C241.354 414.264 241.542 414.996 241.542 415.812C241.542 416.628 241.354 417.364 240.978 418.02C240.602 418.668 240.086 419.176 239.43 419.544C238.782 419.904 238.066 420.084 237.282 420.084ZM237.282 418.896C237.834 418.896 238.326 418.772 238.758 418.524C239.19 418.268 239.526 417.908 239.766 417.444C240.014 416.972 240.138 416.428 240.138 415.812C240.138 415.196 240.014 414.656 239.766 414.192C239.526 413.728 239.19 413.372 238.758 413.124C238.326 412.876 237.834 412.752 237.282 412.752C236.73 412.752 236.238 412.876 235.806 413.124C235.374 413.372 235.034 413.728 234.786 414.192C234.546 414.656 234.426 415.196 234.426 415.812C234.426 416.428 234.546 416.972 234.786 417.444C235.034 417.908 235.374 418.268 235.806 418.524C236.238 418.772 236.73 418.896 237.282 418.896ZM244.256 414.348C244.456 414.012 244.72 413.752 245.048 413.568C245.384 413.376 245.78 413.28 246.236 413.28V414.696H245.888C245.352 414.696 244.944 414.832 244.664 415.104C244.392 415.376 244.256 415.848 244.256 416.52V420H242.888V413.388H244.256V414.348ZM255.519 411.66V412.776H251.979V415.236H254.739V416.352H251.979V420H250.611V411.66H255.519ZM256.331 416.664C256.331 416 256.467 415.412 256.739 414.9C257.019 414.388 257.395 413.992 257.867 413.712C258.347 413.424 258.875 413.28 259.451 413.28C259.971 413.28 260.423 413.384 260.807 413.592C261.199 413.792 261.511 414.044 261.743 414.348V413.388H263.123V420H261.743V419.016C261.511 419.328 261.195 419.588 260.795 419.796C260.395 420.004 259.939 420.108 259.427 420.108C258.859 420.108 258.339 419.964 257.867 419.676C257.395 419.38 257.019 418.972 256.739 418.452C256.467 417.924 256.331 417.328 256.331 416.664ZM261.743 416.688C261.743 416.232 261.647 415.836 261.455 415.5C261.271 415.164 261.027 414.908 260.723 414.732C260.419 414.556 260.091 414.468 259.739 414.468C259.387 414.468 259.059 414.556 258.755 414.732C258.451 414.9 258.203 415.152 258.011 415.488C257.827 415.816 257.735 416.208 257.735 416.664C257.735 417.12 257.827 417.52 258.011 417.864C258.203 418.208 258.451 418.472 258.755 418.656C259.067 418.832 259.395 418.92 259.739 418.92C260.091 418.92 260.419 418.832 260.723 418.656C261.027 418.48 261.271 418.224 261.455 417.888C261.647 417.544 261.743 417.144 261.743 416.688ZM266.288 411.12V420H264.92V411.12H266.288ZM270.484 420.108C269.964 420.108 269.496 420.016 269.08 419.832C268.672 419.64 268.348 419.384 268.108 419.064C267.868 418.736 267.74 418.372 267.724 417.972H269.14C269.164 418.252 269.296 418.488 269.536 418.68C269.784 418.864 270.092 418.956 270.46 418.956C270.844 418.956 271.14 418.884 271.348 418.74C271.564 418.588 271.672 418.396 271.672 418.164C271.672 417.916 271.552 417.732 271.312 417.612C271.08 417.492 270.708 417.36 270.196 417.216C269.7 417.08 269.296 416.948 268.984 416.82C268.672 416.692 268.4 416.496 268.168 416.232C267.944 415.968 267.832 415.62 267.832 415.188C267.832 414.836 267.936 414.516 268.144 414.228C268.352 413.932 268.648 413.7 269.032 413.532C269.424 413.364 269.872 413.28 270.376 413.28C271.128 413.28 271.732 413.472 272.188 413.856C272.652 414.232 272.9 414.748 272.932 415.404H271.564C271.54 415.108 271.42 414.872 271.204 414.696C270.988 414.52 270.696 414.432 270.328 414.432C269.968 414.432 269.692 414.5 269.5 414.636C269.308 414.772 269.212 414.952 269.212 415.176C269.212 415.352 269.276 415.5 269.404 415.62C269.532 415.74 269.688 415.836 269.872 415.908C270.056 415.972 270.328 416.056 270.688 416.16C271.168 416.288 271.56 416.42 271.864 416.556C272.176 416.684 272.444 416.876 272.668 417.132C272.892 417.388 273.008 417.728 273.016 418.152C273.016 418.528 272.912 418.864 272.704 419.16C272.496 419.456 272.2 419.688 271.816 419.856C271.44 420.024 270.996 420.108 270.484 420.108ZM280.554 416.532C280.554 416.78 280.538 417.004 280.506 417.204H275.454C275.494 417.732 275.69 418.156 276.042 418.476C276.394 418.796 276.826 418.956 277.338 418.956C278.074 418.956 278.594 418.648 278.898 418.032H280.374C280.174 418.64 279.81 419.14 279.282 419.532C278.762 419.916 278.114 420.108 277.338 420.108C276.706 420.108 276.138 419.968 275.634 419.688C275.138 419.4 274.746 419 274.458 418.488C274.178 417.968 274.038 417.368 274.038 416.688C274.038 416.008 274.174 415.412 274.446 414.9C274.726 414.38 275.114 413.98 275.61 413.7C276.114 413.42 276.69 413.28 277.338 413.28C277.962 413.28 278.518 413.416 279.006 413.688C279.494 413.96 279.874 414.344 280.146 414.84C280.418 415.328 280.554 415.892 280.554 416.532ZM279.126 416.1C279.118 415.596 278.938 415.192 278.586 414.888C278.234 414.584 277.798 414.432 277.278 414.432C276.806 414.432 276.402 414.584 276.066 414.888C275.73 415.184 275.53 415.588 275.466 416.1H279.126Z" fill="#374151"/>
<rect x="221" y="231" width="41" height="162" fill="#FDC5C5"/>
<rect x="221" y="335" width="41" height="58" fill="#C1F6DD"/>
<rect x="221" y="342" width="41" height="51" fill="#C1C8EB"/>
<path d="M315.684 411.66V420H314.316V414.288L311.772 420H310.824L308.268 414.288V420H306.9V411.66H308.376L311.304 418.2L314.22 411.66H315.684ZM323.47 413.388V420H322.102V419.22C321.886 419.492 321.602 419.708 321.25 419.868C320.906 420.02 320.538 420.096 320.146 420.096C319.626 420.096 319.158 419.988 318.742 419.772C318.334 419.556 318.01 419.236 317.77 418.812C317.538 418.388 317.422 417.876 317.422 417.276V413.388H318.778V417.072C318.778 417.664 318.926 418.12 319.222 418.44C319.518 418.752 319.922 418.908 320.434 418.908C320.946 418.908 321.35 418.752 321.646 418.44C321.95 418.12 322.102 417.664 322.102 417.072V413.388H323.47ZM326.643 411.12V420H325.275V411.12H326.643ZM330.035 414.504V418.164C330.035 418.412 330.091 418.592 330.203 418.704C330.323 418.808 330.523 418.86 330.803 418.86H331.643V420H330.563C329.947 420 329.475 419.856 329.147 419.568C328.819 419.28 328.655 418.812 328.655 418.164V414.504H327.875V413.388H328.655V411.744H330.035V413.388H331.643V414.504H330.035ZM333.6 412.512C333.352 412.512 333.144 412.428 332.976 412.26C332.808 412.092 332.724 411.884 332.724 411.636C332.724 411.388 332.808 411.18 332.976 411.012C333.144 410.844 333.352 410.76 333.6 410.76C333.84 410.76 334.044 410.844 334.212 411.012C334.38 411.18 334.464 411.388 334.464 411.636C334.464 411.884 334.38 412.092 334.212 412.26C334.044 412.428 333.84 412.512 333.6 412.512ZM334.272 413.388V420H332.904V413.388H334.272ZM337.436 414.36C337.668 414.056 337.984 413.8 338.384 413.592C338.784 413.384 339.236 413.28 339.74 413.28C340.316 413.28 340.84 413.424 341.312 413.712C341.792 413.992 342.168 414.388 342.44 414.9C342.712 415.412 342.848 416 342.848 416.664C342.848 417.328 342.712 417.924 342.44 418.452C342.168 418.972 341.792 419.38 341.312 419.676C340.84 419.964 340.316 420.108 339.74 420.108C339.236 420.108 338.788 420.008 338.396 419.808C338.004 419.6 337.684 419.344 337.436 419.04V423.144H336.068V413.388H337.436V414.36ZM341.456 416.664C341.456 416.208 341.36 415.816 341.168 415.488C340.984 415.152 340.736 414.9 340.424 414.732C340.12 414.556 339.792 414.468 339.44 414.468C339.096 414.468 338.768 414.556 338.456 414.732C338.152 414.908 337.904 415.164 337.712 415.5C337.528 415.836 337.436 416.232 337.436 416.688C337.436 417.144 337.528 417.544 337.712 417.888C337.904 418.224 338.152 418.48 338.456 418.656C338.768 418.832 339.096 418.92 339.44 418.92C339.792 418.92 340.12 418.832 340.424 418.656C340.736 418.472 340.984 418.208 341.168 417.864C341.36 417.52 341.456 417.12 341.456 416.664ZM345.569 411.12V420H344.201V411.12H345.569ZM353.425 416.532C353.425 416.78 353.409 417.004 353.377 417.204H348.325C348.365 417.732 348.561 418.156 348.913 418.476C349.265 418.796 349.697 418.956 350.209 418.956C350.945 418.956 351.465 418.648 351.769 418.032H353.245C353.045 418.64 352.681 419.14 352.153 419.532C351.633 419.916 350.985 420.108 350.209 420.108C349.577 420.108 349.009 419.968 348.505 419.688C348.009 419.4 347.617 419 347.329 418.488C347.049 417.968 346.909 417.368 346.909 416.688C346.909 416.008 347.045 415.412 347.317 414.9C347.597 414.38 347.985 413.98 348.481 413.7C348.985 413.42 349.561 413.28 350.209 413.28C350.833 413.28 351.389 413.416 351.877 413.688C352.365 413.96 352.745 414.344 353.017 414.84C353.289 415.328 353.425 415.892 353.425 416.532ZM351.997 416.1C351.989 415.596 351.809 415.192 351.457 414.888C351.105 414.584 350.669 414.432 350.149 414.432C349.677 414.432 349.273 414.584 348.937 414.888C348.601 415.184 348.401 415.588 348.337 416.1H351.997ZM357.432 415.812C357.432 414.996 357.62 414.264 357.996 413.616C358.38 412.968 358.896 412.464 359.544 412.104C360.2 411.736 360.916 411.552 361.692 411.552C362.58 411.552 363.368 411.772 364.056 412.212C364.752 412.644 365.256 413.26 365.568 414.06H363.924C363.708 413.62 363.408 413.292 363.024 413.076C362.64 412.86 362.196 412.752 361.692 412.752C361.14 412.752 360.648 412.876 360.216 413.124C359.784 413.372 359.444 413.728 359.196 414.192C358.956 414.656 358.836 415.196 358.836 415.812C358.836 416.428 358.956 416.968 359.196 417.432C359.444 417.896 359.784 418.256 360.216 418.512C360.648 418.76 361.14 418.884 361.692 418.884C362.196 418.884 362.64 418.776 363.024 418.56C363.408 418.344 363.708 418.016 363.924 417.576H365.568C365.256 418.376 364.752 418.992 364.056 419.424C363.368 419.856 362.58 420.072 361.692 420.072C360.908 420.072 360.192 419.892 359.544 419.532C358.896 419.164 358.38 418.656 357.996 418.008C357.62 417.36 357.432 416.628 357.432 415.812ZM370.59 413.28C371.094 413.28 371.542 413.388 371.934 413.604C372.334 413.82 372.646 414.14 372.87 414.564C373.102 414.988 373.218 415.5 373.218 416.1V420H371.862V416.304C371.862 415.712 371.714 415.26 371.418 414.948C371.122 414.628 370.718 414.468 370.206 414.468C369.694 414.468 369.286 414.628 368.982 414.948C368.686 415.26 368.538 415.712 368.538 416.304V420H367.17V411.12H368.538V414.156C368.77 413.876 369.062 413.66 369.414 413.508C369.774 413.356 370.166 413.28 370.59 413.28ZM377.831 420.108C377.207 420.108 376.643 419.968 376.139 419.688C375.635 419.4 375.239 419 374.951 418.488C374.663 417.968 374.519 417.368 374.519 416.688C374.519 416.016 374.667 415.42 374.963 414.9C375.259 414.38 375.663 413.98 376.175 413.7C376.687 413.42 377.259 413.28 377.891 413.28C378.523 413.28 379.095 413.42 379.607 413.7C380.119 413.98 380.523 414.38 380.819 414.9C381.115 415.42 381.263 416.016 381.263 416.688C381.263 417.36 381.111 417.956 380.807 418.476C380.503 418.996 380.087 419.4 379.559 419.688C379.039 419.968 378.463 420.108 377.831 420.108ZM377.831 418.92C378.183 418.92 378.511 418.836 378.815 418.668C379.127 418.5 379.379 418.248 379.571 417.912C379.763 417.576 379.859 417.168 379.859 416.688C379.859 416.208 379.767 415.804 379.583 415.476C379.399 415.14 379.155 414.888 378.851 414.72C378.547 414.552 378.219 414.468 377.867 414.468C377.515 414.468 377.187 414.552 376.883 414.72C376.587 414.888 376.351 415.14 376.175 415.476C375.999 415.804 375.911 416.208 375.911 416.688C375.911 417.4 376.091 417.952 376.451 418.344C376.819 418.728 377.279 418.92 377.831 418.92ZM383.311 412.512C383.063 412.512 382.855 412.428 382.687 412.26C382.519 412.092 382.435 411.884 382.435 411.636C382.435 411.388 382.519 411.18 382.687 411.012C382.855 410.844 383.063 410.76 383.311 410.76C383.551 410.76 383.755 410.844 383.923 411.012C384.091 411.18 384.175 411.388 384.175 411.636C384.175 411.884 384.091 412.092 383.923 412.26C383.755 412.428 383.551 412.512 383.311 412.512ZM383.983 413.388V420H382.615V413.388H383.983ZM385.323 416.688C385.323 416.008 385.459 415.412 385.731 414.9C386.011 414.38 386.395 413.98 386.883 413.7C387.371 413.42 387.931 413.28 388.563 413.28C389.363 413.28 390.023 413.472 390.543 413.856C391.071 414.232 391.427 414.772 391.611 415.476H390.135C390.015 415.148 389.823 414.892 389.559 414.708C389.295 414.524 388.963 414.432 388.563 414.432C388.003 414.432 387.555 414.632 387.219 415.032C386.891 415.424 386.727 415.976 386.727 416.688C386.727 417.4 386.891 417.956 387.219 418.356C387.555 418.756 388.003 418.956 388.563 418.956C389.355 418.956 389.879 418.608 390.135 417.912H391.611C391.419 418.584 391.059 419.12 390.531 419.52C390.003 419.912 389.347 420.108 388.563 420.108C387.931 420.108 387.371 419.968 386.883 419.688C386.395 419.4 386.011 419 385.731 418.488C385.459 417.968 385.323 417.368 385.323 416.688ZM399.034 416.532C399.034 416.78 399.018 417.004 398.986 417.204H393.934C393.974 417.732 394.17 418.156 394.522 418.476C394.874 418.796 395.306 418.956 395.818 418.956C396.554 418.956 397.074 418.648 397.378 418.032H398.854C398.654 418.64 398.29 419.14 397.762 419.532C397.242 419.916 396.594 420.108 395.818 420.108C395.186 420.108 394.618 419.968 394.114 419.688C393.618 419.4 393.226 419 392.938 418.488C392.658 417.968 392.518 417.368 392.518 416.688C392.518 416.008 392.654 415.412 392.926 414.9C393.206 414.38 393.594 413.98 394.09 413.7C394.594 413.42 395.17 413.28 395.818 413.28C396.442 413.28 396.998 413.416 397.486 413.688C397.974 413.96 398.354 414.344 398.626 414.84C398.898 415.328 399.034 415.892 399.034 416.532ZM397.606 416.1C397.598 415.596 397.418 415.192 397.066 414.888C396.714 414.584 396.278 414.432 395.758 414.432C395.286 414.432 394.882 414.584 394.546 414.888C394.21 415.184 394.01 415.588 393.946 416.1H397.606Z" fill="#F27430"/>
<path d="M306 421.2H399.478V421.8H306V421.2Z" fill="#F27430"/>
<rect x="333" y="127" width="41" height="266" fill="#FDC5C5"/>
<rect x="333" y="251" width="41" height="142" fill="#C1C8EB"/>
<rect x="333" y="311" width="41" height="82" fill="#C1F6DD"/>
<path d="M431.027 411.66V412.776H427.487V415.236H430.247V416.352H427.487V420H426.119V411.66H431.027ZM432.991 412.512C432.743 412.512 432.535 412.428 432.367 412.26C432.199 412.092 432.115 411.884 432.115 411.636C432.115 411.388 432.199 411.18 432.367 411.012C432.535 410.844 432.743 410.76 432.991 410.76C433.231 410.76 433.435 410.844 433.603 411.012C433.771 411.18 433.855 411.388 433.855 411.636C433.855 411.884 433.771 412.092 433.603 412.26C433.435 412.428 433.231 412.512 432.991 412.512ZM433.663 413.388V420H432.295V413.388H433.663ZM436.827 411.12V420H435.459V411.12H436.827ZM439.991 411.12V420H438.623V411.12H439.991ZM446.272 411.66V420H444.904V411.66H446.272ZM451.404 413.28C451.924 413.28 452.388 413.388 452.796 413.604C453.212 413.82 453.536 414.14 453.768 414.564C454 414.988 454.116 415.5 454.116 416.1V420H452.76V416.304C452.76 415.712 452.612 415.26 452.316 414.948C452.02 414.628 451.616 414.468 451.104 414.468C450.592 414.468 450.184 414.628 449.88 414.948C449.584 415.26 449.436 415.712 449.436 416.304V420H448.068V413.388H449.436V414.144C449.66 413.872 449.944 413.66 450.288 413.508C450.64 413.356 451.012 413.28 451.404 413.28ZM463.442 415.716C463.89 415.796 464.27 416.032 464.582 416.424C464.894 416.816 465.05 417.26 465.05 417.756C465.05 418.18 464.938 418.564 464.714 418.908C464.498 419.244 464.182 419.512 463.766 419.712C463.35 419.904 462.866 420 462.314 420H458.978V411.66H462.158C462.726 411.66 463.214 411.756 463.622 411.948C464.03 412.14 464.338 412.4 464.546 412.728C464.754 413.048 464.858 413.408 464.858 413.808C464.858 414.288 464.73 414.688 464.474 415.008C464.218 415.328 463.874 415.564 463.442 415.716ZM460.346 415.164H462.038C462.486 415.164 462.834 415.064 463.082 414.864C463.338 414.656 463.466 414.36 463.466 413.976C463.466 413.6 463.338 413.308 463.082 413.1C462.834 412.884 462.486 412.776 462.038 412.776H460.346V415.164ZM462.194 418.884C462.658 418.884 463.022 418.772 463.286 418.548C463.55 418.324 463.682 418.012 463.682 417.612C463.682 417.204 463.542 416.88 463.262 416.64C462.982 416.4 462.61 416.28 462.146 416.28H460.346V418.884H462.194ZM467.905 411.12V420H466.537V411.12H467.905ZM469.245 416.664C469.245 416 469.381 415.412 469.653 414.9C469.933 414.388 470.309 413.992 470.781 413.712C471.261 413.424 471.789 413.28 472.365 413.28C472.885 413.28 473.337 413.384 473.721 413.592C474.113 413.792 474.425 414.044 474.657 414.348V413.388H476.037V420H474.657V419.016C474.425 419.328 474.109 419.588 473.709 419.796C473.309 420.004 472.853 420.108 472.341 420.108C471.773 420.108 471.253 419.964 470.781 419.676C470.309 419.38 469.933 418.972 469.653 418.452C469.381 417.924 469.245 417.328 469.245 416.664ZM474.657 416.688C474.657 416.232 474.561 415.836 474.369 415.5C474.185 415.164 473.941 414.908 473.637 414.732C473.333 414.556 473.005 414.468 472.653 414.468C472.301 414.468 471.973 414.556 471.669 414.732C471.365 414.9 471.117 415.152 470.925 415.488C470.741 415.816 470.649 416.208 470.649 416.664C470.649 417.12 470.741 417.52 470.925 417.864C471.117 418.208 471.365 418.472 471.669 418.656C471.981 418.832 472.309 418.92 472.653 418.92C473.005 418.92 473.333 418.832 473.637 418.656C473.941 418.48 474.185 418.224 474.369 417.888C474.561 417.544 474.657 417.144 474.657 416.688ZM481.17 413.28C481.69 413.28 482.154 413.388 482.562 413.604C482.978 413.82 483.302 414.14 483.534 414.564C483.766 414.988 483.882 415.5 483.882 416.1V420H482.526V416.304C482.526 415.712 482.378 415.26 482.082 414.948C481.786 414.628 481.382 414.468 480.87 414.468C480.358 414.468 479.95 414.628 479.646 414.948C479.35 415.26 479.202 415.712 479.202 416.304V420H477.834V413.388H479.202V414.144C479.426 413.872 479.71 413.66 480.054 413.508C480.406 413.356 480.778 413.28 481.17 413.28ZM488.243 416.7L491.291 420H489.443L486.995 417.156V420H485.627V411.12H486.995V416.28L489.395 413.388H491.291L488.243 416.7ZM494.671 420.108C494.151 420.108 493.683 420.016 493.267 419.832C492.859 419.64 492.535 419.384 492.295 419.064C492.055 418.736 491.927 418.372 491.911 417.972H493.327C493.351 418.252 493.483 418.488 493.723 418.68C493.971 418.864 494.279 418.956 494.647 418.956C495.031 418.956 495.327 418.884 495.535 418.74C495.751 418.588 495.859 418.396 495.859 418.164C495.859 417.916 495.739 417.732 495.499 417.612C495.267 417.492 494.895 417.36 494.383 417.216C493.887 417.08 493.483 416.948 493.171 416.82C492.859 416.692 492.587 416.496 492.355 416.232C492.131 415.968 492.019 415.62 492.019 415.188C492.019 414.836 492.123 414.516 492.331 414.228C492.539 413.932 492.835 413.7 493.219 413.532C493.611 413.364 494.059 413.28 494.563 413.28C495.315 413.28 495.919 413.472 496.375 413.856C496.839 414.232 497.087 414.748 497.119 415.404H495.751C495.727 415.108 495.607 414.872 495.391 414.696C495.175 414.52 494.883 414.432 494.515 414.432C494.155 414.432 493.879 414.5 493.687 414.636C493.495 414.772 493.399 414.952 493.399 415.176C493.399 415.352 493.463 415.5 493.591 415.62C493.719 415.74 493.875 415.836 494.059 415.908C494.243 415.972 494.515 416.056 494.875 416.16C495.355 416.288 495.747 416.42 496.051 416.556C496.363 416.684 496.631 416.876 496.855 417.132C497.079 417.388 497.195 417.728 497.203 418.152C497.203 418.528 497.099 418.864 496.891 419.16C496.683 419.456 496.387 419.688 496.003 419.856C495.627 420.024 495.183 420.108 494.671 420.108Z" fill="#374151"/>
<rect x="441" y="251" width="41" height="142" fill="#FDC5C5"/>
<rect x="441" y="280" width="41" height="113" fill="#C1F6DD"/>
<rect x="441" y="342" width="41" height="51" fill="#C1C8EB"/>
<path d="M525.448 412.764V415.212H528.328V416.328H525.448V418.884H528.688V420H524.08V411.648H528.688V412.764H525.448ZM532.773 420.108C532.253 420.108 531.785 420.016 531.369 419.832C530.961 419.64 530.637 419.384 530.397 419.064C530.157 418.736 530.029 418.372 530.013 417.972H531.429C531.453 418.252 531.585 418.488 531.825 418.68C532.073 418.864 532.381 418.956 532.749 418.956C533.133 418.956 533.429 418.884 533.637 418.74C533.853 418.588 533.961 418.396 533.961 418.164C533.961 417.916 533.841 417.732 533.601 417.612C533.369 417.492 532.997 417.36 532.485 417.216C531.989 417.08 531.585 416.948 531.273 416.82C530.961 416.692 530.689 416.496 530.457 416.232C530.233 415.968 530.121 415.62 530.121 415.188C530.121 414.836 530.225 414.516 530.433 414.228C530.641 413.932 530.937 413.7 531.321 413.532C531.713 413.364 532.161 413.28 532.665 413.28C533.417 413.28 534.021 413.472 534.477 413.856C534.941 414.232 535.189 414.748 535.221 415.404H533.853C533.829 415.108 533.709 414.872 533.493 414.696C533.277 414.52 532.985 414.432 532.617 414.432C532.257 414.432 531.981 414.5 531.789 414.636C531.597 414.772 531.501 414.952 531.501 415.176C531.501 415.352 531.565 415.5 531.693 415.62C531.821 415.74 531.977 415.836 532.161 415.908C532.345 415.972 532.617 416.056 532.977 416.16C533.457 416.288 533.849 416.42 534.153 416.556C534.465 416.684 534.733 416.876 534.957 417.132C535.181 417.388 535.297 417.728 535.305 418.152C535.305 418.528 535.201 418.864 534.993 419.16C534.785 419.456 534.489 419.688 534.105 419.856C533.729 420.024 533.285 420.108 532.773 420.108ZM539.183 420.108C538.663 420.108 538.195 420.016 537.779 419.832C537.371 419.64 537.047 419.384 536.807 419.064C536.567 418.736 536.439 418.372 536.423 417.972H537.839C537.863 418.252 537.995 418.488 538.235 418.68C538.483 418.864 538.791 418.956 539.159 418.956C539.543 418.956 539.839 418.884 540.047 418.74C540.263 418.588 540.371 418.396 540.371 418.164C540.371 417.916 540.251 417.732 540.011 417.612C539.779 417.492 539.407 417.36 538.895 417.216C538.399 417.08 537.995 416.948 537.683 416.82C537.371 416.692 537.099 416.496 536.867 416.232C536.643 415.968 536.531 415.62 536.531 415.188C536.531 414.836 536.635 414.516 536.843 414.228C537.051 413.932 537.347 413.7 537.731 413.532C538.123 413.364 538.571 413.28 539.075 413.28C539.827 413.28 540.431 413.472 540.887 413.856C541.351 414.232 541.599 414.748 541.631 415.404H540.263C540.239 415.108 540.119 414.872 539.903 414.696C539.687 414.52 539.395 414.432 539.027 414.432C538.667 414.432 538.391 414.5 538.199 414.636C538.007 414.772 537.911 414.952 537.911 415.176C537.911 415.352 537.975 415.5 538.103 415.62C538.231 415.74 538.387 415.836 538.571 415.908C538.755 415.972 539.027 416.056 539.387 416.16C539.867 416.288 540.259 416.42 540.563 416.556C540.875 416.684 541.143 416.876 541.367 417.132C541.591 417.388 541.707 417.728 541.715 418.152C541.715 418.528 541.611 418.864 541.403 419.16C541.195 419.456 540.899 419.688 540.515 419.856C540.139 420.024 539.695 420.108 539.183 420.108ZM542.737 416.664C542.737 416 542.873 415.412 543.145 414.9C543.425 414.388 543.801 413.992 544.273 413.712C544.753 413.424 545.281 413.28 545.857 413.28C546.377 413.28 546.829 413.384 547.213 413.592C547.605 413.792 547.917 414.044 548.149 414.348V413.388H549.529V420H548.149V419.016C547.917 419.328 547.601 419.588 547.201 419.796C546.801 420.004 546.345 420.108 545.833 420.108C545.265 420.108 544.745 419.964 544.273 419.676C543.801 419.38 543.425 418.972 543.145 418.452C542.873 417.924 542.737 417.328 542.737 416.664ZM548.149 416.688C548.149 416.232 548.053 415.836 547.861 415.5C547.677 415.164 547.433 414.908 547.129 414.732C546.825 414.556 546.497 414.468 546.145 414.468C545.793 414.468 545.465 414.556 545.161 414.732C544.857 414.9 544.609 415.152 544.417 415.488C544.233 415.816 544.141 416.208 544.141 416.664C544.141 417.12 544.233 417.52 544.417 417.864C544.609 418.208 544.857 418.472 545.161 418.656C545.473 418.832 545.801 418.92 546.145 418.92C546.497 418.92 546.825 418.832 547.129 418.656C547.433 418.48 547.677 418.224 547.861 417.888C548.053 417.544 548.149 417.144 548.149 416.688ZM557.278 413.388L553.222 423.108H551.806L553.15 419.892L550.546 413.388H552.07L553.93 418.428L555.862 413.388H557.278ZM560.71 420.108C560.19 420.108 559.722 420.016 559.306 419.832C558.898 419.64 558.574 419.384 558.334 419.064C558.094 418.736 557.966 418.372 557.95 417.972H559.366C559.39 418.252 559.522 418.488 559.762 418.68C560.01 418.864 560.318 418.956 560.686 418.956C561.07 418.956 561.366 418.884 561.574 418.74C561.79 418.588 561.898 418.396 561.898 418.164C561.898 417.916 561.778 417.732 561.538 417.612C561.306 417.492 560.934 417.36 560.422 417.216C559.926 417.08 559.522 416.948 559.21 416.82C558.898 416.692 558.626 416.496 558.394 416.232C558.17 415.968 558.058 415.62 558.058 415.188C558.058 414.836 558.162 414.516 558.37 414.228C558.578 413.932 558.874 413.7 559.258 413.532C559.65 413.364 560.098 413.28 560.602 413.28C561.354 413.28 561.958 413.472 562.414 413.856C562.878 414.232 563.126 414.748 563.158 415.404H561.79C561.766 415.108 561.646 414.872 561.43 414.696C561.214 414.52 560.922 414.432 560.554 414.432C560.194 414.432 559.918 414.5 559.726 414.636C559.534 414.772 559.438 414.952 559.438 415.176C559.438 415.352 559.502 415.5 559.63 415.62C559.758 415.74 559.914 415.836 560.098 415.908C560.282 415.972 560.554 416.056 560.914 416.16C561.394 416.288 561.786 416.42 562.09 416.556C562.402 416.684 562.67 416.876 562.894 417.132C563.118 417.388 563.234 417.728 563.242 418.152C563.242 418.528 563.138 418.864 562.93 419.16C562.722 419.456 562.426 419.688 562.042 419.856C561.666 420.024 561.222 420.108 560.71 420.108Z" fill="#374151"/>
<rect x="523" y="193" width="41" height="200" fill="#FDC5C5"/>
<rect x="523" y="242" width="41" height="151" fill="#C1F6DD"/>
<rect x="523" y="245" width="41" height="148" fill="#C1C8EB"/>
</svg>
