<svg width="231" height="94" viewBox="0 0 231 94" fill="none" xmlns="http://www.w3.org/2000/svg">
<path d="M92.0683 53.1034C87.3017 53.1034 83.9827 51.5851 81.6171 49.3607L84.8301 44.6294C86.5249 46.3242 89.1377 47.7365 92.3861 47.7365C94.434 47.7365 95.7051 47.0304 95.7051 45.8652C95.7051 42.7581 82.3938 45.3356 82.3938 36.2613C82.3938 32.3068 85.7128 28.776 91.7505 28.776C95.5285 28.776 98.8122 29.9058 101.319 32.0596L98.0001 36.6144C96.0228 34.9549 93.4453 34.1428 91.115 34.1428C89.3496 34.1428 88.5728 34.7431 88.5728 35.767C88.5728 38.6623 101.884 36.4732 101.884 45.2296C101.884 49.9609 98.3885 53.1034 92.0683 53.1034ZM116.27 53.1034C109.032 53.1034 103.524 48.1602 103.524 40.922C103.524 33.6485 109.032 28.7407 116.27 28.7407C121.955 28.7407 125.027 31.9537 126.545 35.0255L121.319 37.5324C120.543 35.6611 118.53 34.1075 116.27 34.1075C112.422 34.1075 109.703 37.0381 109.703 40.922C109.703 44.7706 112.422 47.7365 116.27 47.7365C118.53 47.7365 120.543 46.183 121.319 44.3116L126.545 46.7832C125.027 49.7844 121.955 53.1034 116.27 53.1034ZM135.244 52.6797H129.171V29.1291H135.244V52.6797ZM156.747 52.6797H139.481V29.1291H156.747V34.4253H145.554V38.0974H156.5V43.3936H145.554V47.3834H156.747V52.6797ZM182.164 52.6797H176.303L166.346 39.0507V52.6797H160.273V29.1291H166.522L176.056 42.0872V29.1291H182.164V52.6797ZM197.955 53.1034C190.717 53.1034 185.209 48.1602 185.209 40.922C185.209 33.6485 190.717 28.7407 197.955 28.7407C203.64 28.7407 206.712 31.9537 208.23 35.0255L203.004 37.5324C202.227 35.6611 200.215 34.1075 197.955 34.1075C194.107 34.1075 191.388 37.0381 191.388 40.922C191.388 44.7706 194.107 47.7365 197.955 47.7365C200.215 47.7365 202.227 46.183 203.004 44.3116L208.23 46.7832C206.712 49.7844 203.64 53.1034 197.955 53.1034ZM228.122 52.6797H210.856V29.1291H228.122V34.4253H216.929V38.0974H227.875V43.3936H216.929V47.3834H228.122V52.6797Z" fill="white"/>
<path d="M95.4271 77.0039H92.7101L91.7091 74.3686H85.458L84.457 77.0039H81.7401L87.0923 63.3782H90.0749L95.4271 77.0039ZM91.035 72.2645L88.5836 65.7683L86.1322 72.2645H91.035ZM102.734 77.249C98.7098 77.249 95.5843 74.3891 95.5843 70.2013C95.5843 65.993 98.7098 63.1535 102.734 63.1535C105.472 63.1535 107.188 64.563 108.189 66.1973L106.166 67.2596C105.512 66.1156 104.185 65.278 102.734 65.278C100.038 65.278 98.0357 67.3209 98.0357 70.2013C98.0357 73.0408 100.038 75.1245 102.734 75.1245C104.185 75.1245 105.512 74.2665 106.166 73.1429L108.209 74.1644C107.167 75.7986 105.472 77.249 102.734 77.249ZM122.379 77.0039H119.662L118.661 74.3686H112.41L111.409 77.0039H108.692L114.044 63.3782H117.027L122.379 77.0039ZM117.987 72.2645L115.535 65.7683L113.084 72.2645H117.987ZM128.933 77.0039H123.847V63.3782H128.913C133.183 63.3782 136.043 66.1973 136.043 70.1808C136.043 74.2052 133.183 77.0039 128.933 77.0039ZM128.913 74.8998C131.875 74.8998 133.591 72.7752 133.591 70.1808C133.591 67.566 131.957 65.4823 128.933 65.4823H126.237V74.8998H128.913ZM147.686 77.0039H138.35V63.3782H147.686V65.4823H140.74V68.996H147.543V71.1001H140.74V74.8998H147.686V77.0039ZM164.297 77.0039H161.907V66.4833L157.74 77.0039H156.718L152.53 66.4833V77.0039H150.14V63.3782H153.511L157.229 72.7344L160.927 63.3782H164.297V77.0039ZM173.469 77.0039H171.079V71.3452L165.788 63.3782H168.525L172.263 69.2003L176.002 63.3782H178.739L173.469 71.3452V77.0039Z" fill="#7193B7"/>
<path d="M42.7331 74.0119C42.7331 74.0116 42.733 74.0112 42.7329 74.0109C40.9856 68.7312 40.9424 62.8801 42.6099 57.5652C42.6703 57.3753 42.5354 57.1821 42.3361 57.1864C38.2228 57.2758 3.52006 58.0176 3.06384 57.62C2.57886 57.1973 1.80482 59.8424 0.998096 61.2664C0.287362 62.521 0.275101 65.5821 0.282245 66.2928C0.283254 66.3931 0.290136 66.4934 0.301627 66.593C0.652527 69.6358 1.24054 71.1992 2.71613 73.3059C3.35162 74.2132 4.41861 74.708 5.52613 74.688L42.7297 74.0154C42.7316 74.0153 42.7331 74.0138 42.7331 74.0119Z" fill="#3758F9" fill-opacity="0.05"/>
<path d="M43.8232 92.1176C43.4838 93.0402 44.3289 93.654 45.0343 93.1106L66.5149 76.9181C66.5382 76.8985 66.5582 76.879 66.5748 76.8477C66.994 76.144 72.2045 66.1674 66.1057 57.3948C66.0291 57.2854 65.896 57.2619 65.7995 57.344C63.8332 58.9859 44.7648 71.965 42.4989 73.6186C42.3791 73.7046 42.3492 73.8962 42.4224 74.0408C43.1011 75.3309 47.8358 81.2145 43.8198 92.1176H43.8232Z" fill="#000F28"/>
<path d="M42.4575 58.113H3.10691C2.47211 58.113 2.26606 57.1086 2.83438 56.7738L24.1548 44.1256C24.5935 43.8648 25.0788 43.7285 25.574 43.7285H66.706L42.4575 58.113Z" fill="#16213E"/>
<path d="M6.7168 65.5977H36.6553" stroke="#E4E6F2" stroke-width="0.350842" stroke-miterlimit="10" stroke-linecap="round"/>
<path d="M4.95898 84.8945H9.75382" stroke="#E4E6F2" stroke-width="0.350842" stroke-miterlimit="10" stroke-linecap="round"/>
<path d="M16.8887 84.6602H41.5645" stroke="#E4E6F2" stroke-width="0.350842" stroke-miterlimit="10" stroke-linecap="round"/>
<path d="M51.6348 57.9359L63.2899 51.8633" stroke="#E4E6F2" stroke-width="0.350842" stroke-miterlimit="10" stroke-linecap="round"/>
<path d="M46.125 63.4937L48.1131 62.3242" stroke="#E4E6F2" stroke-width="0.350842" stroke-miterlimit="10" stroke-linecap="round"/>
<mask id="mask0_238_23086" style="mask-type:alpha" maskUnits="userSpaceOnUse" x="42" y="57" width="28" height="37">
<path d="M43.8271 92.1176C43.4877 93.0402 44.3328 93.654 45.0382 93.1106L66.5188 76.9181C66.5421 76.8985 66.5621 76.879 66.5787 76.8477C66.9979 76.144 72.2084 66.1674 66.1096 57.3948C66.033 57.2854 65.8999 57.2619 65.8035 57.344C63.8371 58.9859 44.7687 71.965 42.5028 73.6186C42.383 73.7046 42.3531 73.8962 42.4263 74.0408C43.1051 75.3309 47.8397 81.2145 43.8237 92.1176H43.8271Z" fill="#000F28"/>
</mask>
<g mask="url(#mask0_238_23086)">
<path d="M64.6093 75.3427C60.2714 79.3328 55.4162 82.5346 50.268 84.7971C48.6093 85.5241 46.5576 85.8467 44.8749 86.6717C44.6438 88.4441 44.1818 90.3963 43.4025 92.5322C43.0507 93.496 43.9266 94.1372 44.6576 93.5695L66.9196 76.6537C66.9438 76.6332 66.9644 76.6128 66.9817 76.5802C67.1748 76.2494 68.3644 73.9746 69.0506 70.7441C67.6403 72.3696 66.161 73.9092 64.6058 75.3386L64.6093 75.3427Z" fill="#16213E"/>
</g>
<path d="M66.706 43.7285H57.6294C56.9082 44.3008 56.1837 44.8692 55.4492 45.4181C51.996 48.0069 48.3202 50.1831 44.5015 51.9349C37.5885 55.1038 30.207 56.8751 22.7888 57.1787C19.0798 57.3305 15.3608 57.1164 11.6816 56.5247C9.82709 56.2249 7.98253 55.8317 6.15791 55.3412C5.95185 55.2867 5.74911 55.2244 5.5497 55.1622L2.83438 56.7738C2.26606 57.1125 2.47211 58.113 3.10691 58.113H42.4575L66.706 43.7285Z" fill="#000F28"/>
<rect x="0.28125" y="92.7285" width="44.4399" height="0.584736" rx="0.292368" fill="#14263E"/>
<path fill-rule="evenodd" clip-rule="evenodd" d="M3.05284 57.3234C3.13399 57.1982 3.09829 57.0309 2.9731 56.9497C2.8479 56.8686 2.68062 56.9043 2.59946 57.0295C-0.984062 62.5577 -0.819387 69.9542 2.92102 74.0638L2.92112 74.0639C3.34083 74.5246 3.90692 74.7637 4.48782 74.7545L4.48788 74.7545L42.7368 74.16C42.886 74.1577 43.0051 74.0349 43.0028 73.8857C43.0004 73.7365 42.8776 73.6175 42.7284 73.6198L4.47942 74.2143L4.47936 74.2143C4.05579 74.221 3.63752 74.0479 3.3206 73.7001C-0.0477512 69.9993 -0.40077 63.3735 2.57475 58.1122H3.08969V57.8783H2.70976C2.81984 57.6915 2.9342 57.5064 3.05284 57.3234Z" fill="#000F28"/>
<path d="M61.9579 70.5938L57.8723 70.1723L52.8226 75.7571L52.5566 57.4597L61.7518 52.668L61.9579 70.5938Z" fill="#FFCA00"/>
<path d="M58.1937 64.3745C57.1865 65.9839 55.8368 67.444 54.2012 68.4263C53.6992 68.7282 53.2139 68.9107 52.7285 69.0402L52.8249 75.7565L57.8746 70.1717L61.9602 70.5931L61.784 55.2656C61.7508 55.3619 61.7175 55.4581 61.6876 55.551C60.7369 58.5774 59.8759 61.6833 58.1937 64.3745Z" fill="#F9B300"/>
<path d="M42.8452 92.7281C43.5722 92.5913 43.9272 91.9371 44.0218 91.5586H44.3726V92.7281H42.8452C42.6739 92.7603 42.4818 92.7638 42.2676 92.7281H42.8452Z" fill="#14263E"/>
<path d="M54.1458 11.7844L52.957 12.4707L61.6009 27.4422L62.7896 26.7559L54.1458 11.7844Z" fill="#64748B"/>
<path d="M61.709 26.2677C62.5621 25.7752 62.8543 24.6844 62.3618 23.8314C61.8693 22.9783 60.7785 22.686 59.9255 23.1785C59.0724 23.6711 58.7801 24.7619 59.2726 25.6149C59.7651 26.468 60.8559 26.7602 61.709 26.2677Z" fill="#16213E"/>
<path fill-rule="evenodd" clip-rule="evenodd" d="M27.5942 13.8699L57.3526 9.9319L49.1727 19.0906L56.7891 32.2826C56.7891 32.2826 57.6841 36.852 43.4848 45.05C29.2856 53.2479 25.7758 50.1881 25.7758 50.1881L17.6767 36.16L5.19628 38.143L27.5942 13.8699Z" fill="#16213E"/>
<mask id="mask1_238_23086" style="mask-type:alpha" maskUnits="userSpaceOnUse" x="5" y="9" width="53" height="42">
<path fill-rule="evenodd" clip-rule="evenodd" d="M27.5942 13.8699L57.3526 9.9319L49.1727 19.0906L56.7891 32.2826C56.7891 32.2826 57.6841 36.852 43.4848 45.05C29.2856 53.2479 25.7758 50.1881 25.7758 50.1881L17.6767 36.16L5.19628 38.143L27.5942 13.8699Z" fill="#1E293B"/>
</mask>
<g mask="url(#mask1_238_23086)">
<path d="M51.789 18.7109C48.57 47.6816 31.6705 50.0958 23.623 47.6816L26.0373 53.516L43.9428 47.6816L60.6411 34.6046L51.789 18.7109Z" fill="#000F28"/>
</g>
</svg>
