<svg width="80" height="80" viewBox="0 0 80 80" fill="none" xmlns="http://www.w3.org/2000/svg">
<path d="M39.9036 6.66602C21.5036 6.66602 6.57031 21.5993 6.57031 39.9993C6.57031 58.3993 21.5036 73.3327 39.9036 73.3327C58.3036 73.3327 73.237 58.3993 73.237 39.9993C73.237 21.5993 58.337 6.66602 39.9036 6.66602ZM49.9036 47.4327L40.237 52.9993C39.037 53.6993 37.7036 54.0327 36.4036 54.0327C35.0703 54.0327 33.7703 53.6993 32.5703 52.9993C30.1703 51.5993 28.737 49.1327 28.737 46.3327V35.166C28.737 32.3993 30.1703 29.8993 32.5703 28.4993C34.9703 27.0993 37.837 27.0993 40.2703 28.4993L49.937 34.066C52.337 35.466 53.7703 37.9327 53.7703 40.7327C53.7703 43.5327 52.337 46.0327 49.9036 47.4327Z" fill="white"/>
</svg>
