<svg width="16" height="16" viewBox="0 0 16 16" fill="none" xmlns="http://www.w3.org/2000/svg">
<g clip-path="url(#clip0_238_23455)">
<path d="M7.9987 1.33398C11.6807 1.33398 14.6654 4.31865 14.6654 8.00065C14.6654 11.6827 11.6807 14.6673 7.9987 14.6673C4.3167 14.6673 1.33203 11.6827 1.33203 8.00065C1.33203 4.31865 4.3167 1.33398 7.9987 1.33398ZM7.9987 2.66732C6.58421 2.66732 5.22766 3.22922 4.22746 4.22941C3.22727 5.22961 2.66536 6.58616 2.66536 8.00065C2.66536 9.41514 3.22727 10.7717 4.22746 11.7719C5.22766 12.7721 6.58421 13.334 7.9987 13.334C9.41319 13.334 10.7697 12.7721 11.7699 11.7719C12.7701 10.7717 13.332 9.41514 13.332 8.00065C13.332 6.58616 12.7701 5.22961 11.7699 4.22941C10.7697 3.22922 9.41319 2.66732 7.9987 2.66732ZM7.9987 4.00065C8.16199 4.00067 8.31959 4.06062 8.44161 4.16913C8.56364 4.27763 8.64159 4.42715 8.6607 4.58932L8.66536 4.66732V7.72465L10.47 9.52932C10.5896 9.64929 10.659 9.81027 10.6642 9.97957C10.6694 10.1489 10.6099 10.3138 10.4979 10.4408C10.3858 10.5679 10.2297 10.6475 10.061 10.6636C9.89243 10.6796 9.72402 10.6309 9.59003 10.5273L9.52736 10.472L7.52736 8.47198C7.42375 8.36828 7.35721 8.23332 7.33803 8.08798L7.33203 8.00065V4.66732C7.33203 4.49051 7.40227 4.32094 7.52729 4.19591C7.65232 4.07089 7.82189 4.00065 7.9987 4.00065Z" fill="#696A6F"/>
</g>
<defs>
<clipPath id="clip0_238_23455">
<rect width="16" height="16" fill="white"/>
</clipPath>
</defs>
</svg>
