<svg width="24" height="24" viewBox="0 0 24 24" fill="none" xmlns="http://www.w3.org/2000/svg">
<g clip-path="url(#clip0_238_23254)">
<path d="M9.50046 12.375C9.50046 10.7872 10.7872 9.49977 12.375 9.49977C13.9628 9.49977 15.2502 10.7872 15.2502 12.375C15.2502 13.9628 13.9628 15.2502 12.375 15.2502C10.7872 15.2502 9.50046 13.9628 9.50046 12.375ZM7.94615 12.375C7.94615 14.8211 9.92893 16.8038 12.375 16.8038C14.8211 16.8038 16.8038 14.8211 16.8038 12.375C16.8038 9.92893 14.8211 7.94615 12.375 7.94615C9.92893 7.94615 7.94615 9.92893 7.94615 12.375ZM15.9441 7.77059C15.9441 8.34187 16.4074 8.80587 16.9794 8.80587C17.5507 8.80587 18.0147 8.34187 18.0147 7.77059C18.0147 7.1993 17.5514 6.73601 16.9794 6.73601C16.4074 6.73601 15.9441 7.1993 15.9441 7.77059ZM8.89017 19.3955C8.04926 19.3572 7.59224 19.2172 7.28848 19.0987C6.88579 18.942 6.59876 18.7553 6.2964 18.4536C5.99473 18.1519 5.80732 17.8649 5.65126 17.4622C5.53283 17.1585 5.39279 16.7014 5.35447 15.8605C5.31267 14.9514 5.30431 14.6783 5.30431 12.375C5.30431 10.0717 5.31337 9.79934 5.35447 8.88947C5.39279 8.04857 5.53352 7.59224 5.65126 7.28778C5.80802 6.8851 5.99473 6.59806 6.2964 6.2957C6.59806 5.99403 6.8851 5.80662 7.28848 5.65057C7.59224 5.53213 8.04926 5.39209 8.89017 5.35378C9.79934 5.31197 10.0724 5.30361 12.375 5.30361C14.6783 5.30361 14.9507 5.31267 15.8605 5.35378C16.7014 5.39209 17.1578 5.53282 17.4622 5.65057C17.8649 5.80662 18.1519 5.99403 18.4543 6.2957C18.756 6.59736 18.9427 6.8851 19.0994 7.28778C19.2179 7.59154 19.3579 8.04857 19.3962 8.88947C19.438 9.79934 19.4464 10.0717 19.4464 12.375C19.4464 14.6776 19.438 14.9507 19.3962 15.8605C19.3579 16.7014 19.2172 17.1585 19.0994 17.4622C18.9427 17.8649 18.756 18.1519 18.4543 18.4536C18.1526 18.7553 17.8649 18.942 17.4622 19.0987C17.1585 19.2172 16.7014 19.3572 15.8605 19.3955C14.9514 19.4373 14.6783 19.4457 12.375 19.4457C10.0724 19.4457 9.79934 19.4373 8.89017 19.3955ZM8.8191 3.80225C7.90087 3.84405 7.27385 3.98966 6.72556 4.20285C6.15845 4.423 5.67774 4.7184 5.19772 5.19772C4.7184 5.67704 4.423 6.15775 4.20285 6.72556C3.98966 7.27385 3.84405 7.90087 3.80225 8.8191C3.75975 9.73873 3.75 10.0327 3.75 12.375C3.75 14.7173 3.75975 15.0113 3.80225 15.9309C3.84405 16.8491 3.98966 17.4762 4.20285 18.0244C4.423 18.5915 4.7177 19.073 5.19772 19.5523C5.67704 20.0316 6.15775 20.3263 6.72556 20.5472C7.27455 20.7603 7.90087 20.9059 8.8191 20.9477C9.73943 20.9895 10.0327 21 12.375 21C14.718 21 15.0113 20.9902 15.9309 20.9477C16.8491 20.9059 17.4762 20.7603 18.0244 20.5472C18.5915 20.3263 19.0723 20.0316 19.5523 19.5523C20.0316 19.073 20.3263 18.5915 20.5472 18.0244C20.7603 17.4762 20.9066 16.8491 20.9478 15.9309C20.9895 15.0106 20.9993 14.7173 20.9993 12.375C20.9993 10.0327 20.9895 9.73873 20.9478 8.8191C20.9059 7.90087 20.7603 7.27385 20.5472 6.72556C20.3263 6.15845 20.0316 5.67774 19.5523 5.19772C19.073 4.7184 18.5915 4.423 18.0251 4.20285C17.4762 3.98966 16.8491 3.84336 15.9316 3.80225C15.012 3.76045 14.718 3.75 12.3757 3.75C10.0327 3.75 9.73943 3.75975 8.8191 3.80225Z" fill="white"/>
</g>
<defs>
<clipPath id="clip0_238_23254">
<rect width="17.25" height="17.25" fill="white" transform="translate(3.75 3.75)"/>
</clipPath>
</defs>
</svg>
